<svg xmlns="http://www.w3.org/2000/svg" width="226" height="239" fill="none">
  <rect width="163" height="10" y="229" fill="#C4C4C4" rx="5"/>
  <g clip-path="url(#a)">
    <path fill="#4B0E2F" d="M114.2 92.8786c.037.0629.085.1296.118.2073.022.0482.059.1111.081.1704.252.4295.481.896.647 1.3885.148.3259.322.6703.389 1.0331l10.529-1.4441.344-2.5883-12.108 1.2368v-.0037Z"/>
    <path fill="#F9A0A9" d="M71.7162 193.489c-11.8382-1.292-31.0594-24.831-40.6903-30.511 2.2626-6.025 7.054-8.928 9.9932-11.32 2.7174-2.229 5.9672-3.207 7.3129-6.706.1553-.396.3623-1.811.562-3.755.2033-1.944.414-4.413.573-6.931.2514-3.948.3845-5.414.2329-7.747-.0037-.033-.0037-.066-.0074-.103-.1331-2.018-.3771-3.544-.6359-4.696-.1183-.522-.244-.966-.3697-1.344-.4843-1.485-.9464-1.914-.9464-1.914s.1811-.089.5397-.215c.3365-.126.8282-.285 1.4715-.441.2329-.055.4843-.111.7542-.166 2.2774-.459 5.9191-.759 10.8251.17.7283.137 1.4788.307 2.2589.489.6396.163 1.2977.337 1.9743.541 3.0575.907 5.4384 2.314 7.2574 3.932 1.4234 1.255 2.4955 2.651 3.2793 4.04.0111 0 .0074.015.0185.022.5804 1.007 1.0056 2.011 1.2866 2.962.0924.278.1664.559.2218.826.4806 2.048.318 3.747-.244 4.503-.8466 1.137-1.8374-.363-3.4161-.404-.0444 0-.0887 0-.122.008-1.8818.129-2.1776 1.977-2.2294 6.568-.0111.893-.0111 1.793-.0148 2.666 0 .619.0001 1.222-.0036 1.807-.0074.774-.0185 1.508-.0518 2.178-.1627 3.999 16.6 7.043 19.0881 15.152.5509 1.796.5398 6.887.721 8.89 1.7783 3.611-10.0377 22.555-19.639 21.499Z"/>
    <path fill="#E5C5BD" d="M78.5301 129.444c-.3402.452-.7025.482-1.124.352-.6137-.196-1.3494-.737-2.2922-.763-1.0056-.029.3956.549 2.5141 1.589.4806 2.048.3179 3.747-.2441 4.503-.8466 1.136-1.8374-.363-3.4161-.404-.0443 0-.0887 0-.122.007-1.8818.13-2.1776 1.978-2.2293 6.569-.0111.893-.0111 1.793-.0148 2.666-3.3274.297-7.1761.123-10.8399-1.625-3.7193-1.774-7.616-3.814-11.2946-8.072.2514-3.948.3844-5.414.2329-7.747-.0037-.033-.0037-.066-.0074-.103-.0814-.971-.5139-3.433-1.0056-6.04-.1331-.707-.2699-1.425-.4067-2.129-.5509-2.84-1.0796-5.414-1.1979-5.947.6581.037 1.8116 3.059 2.6693 5.506.6396 1.83 1.1165 3.333 1.0981 3.026-.0814-1.237-.1997-2.296-.3439-3.192-.6063-3.925-1.6193-4.866-1.6193-4.866s4.7397-2.329 13.5905-.648c.721.13 1.4789.3 2.259.489.6396.159 1.2977.333 1.9742.544 3.0575.904 5.4385 2.307 7.2574 3.925 1.4234 1.252 2.4956 2.652 3.2794 4.04.011.004.011.015.0184.022 2.0445 3.563 2.1555 7.102 1.2645 8.298Z" opacity=".6" style="mix-blend-mode:multiply"/>
    <path fill="#E5A898" d="M75.1952 157.868c-1.2644-.607-6.5032 2.966-5.9043 3.61.6026.645 5.3756-1.862 6.5845-2.147 1.2053-.285.281-1.004-.6802-1.463ZM51.9442 157.086c1.7006-.64 8.9728 3.455 8.1779 4.151-.7948.7-7.3942-2.199-9.0468-2.547-1.6563-.348-.4177-1.119.8689-1.607v.003Z" opacity=".4" style="mix-blend-mode:multiply"/>
    <path fill="#FEAEB4" d="M118.399 95.9519c-.554 1.6404-.462 3.6992-.232 5.7171.221 1.977.561 3.936.506 5.436-.011.422-.067.959-.177 1.57-.082.452-.193.948-.329 1.489-1.002 3.984-3.498 10.134-7.768 14.785-.189.196-.359.393-.547.585-1.734 1.84-3.586 3.533-5.49 5.073-8.3004 6.706-17.5654 10.457-22.0204 10.364-2.3476-.048-15.1951-.392-26.9999-13.382-4.577-5.039-11.2096-16.848-11.8529-17.811-.5841-.881-3.3089 1.711-4.3219 2.074-.9982.367-4.3219.537-6.8951-1.426-2.588-1.969-8.6216-8.446-9.0098-17.229-.3697-8.7832 3.7784-14.082 8.6142-14.082 7.2426 0 6.7176 5.0729 8.1225 7.9241 1.4197 2.8327 3.1869-1.2589 2.8468-3.9694-.3438-2.692-3.3422-23.4207 3.6638-34.4145 6.9876-10.9938 33.3885-15.6927 46.9865-13.8302 13.5832 1.8774 22.6592 12.1639 27.4732 22.706 1.619 3.5473 2.41 7.1873 2.717 10.5939.093 1.0442.141 2.0699.156 3.0623.07 5.3913-.903 9.8718-1.328 11.9713-.758 3.7325-3.013 9.546-4.115 12.7934Z"/>
    <path fill="#B7516F" d="M83.1847 79.0522c-1.7229 1.7885-8.8841-4.1953-12.3335-6.4689-3.4494-2.2699-7.4682-3.514-10.6366-3.0475-3.1684.4666-6.0522 2.044-5.6085.8369.4437-1.2108 3.7341-3.1215 8.422-3.9102 4.6879-.7887 24.3306 8.2611 20.1566 12.5934v-.0037Z"/>
    <path fill="#E5C5BD" d="M126.282 59.0129c.1.5258.362 4.9952.362 4.9952l-2.407 2.7512s-2.296-9.683-9.013-15.5224c0 0-6.034 3.1215-11.391-2.7068 0 0-2.784 3.003-8.6659 2.4328-5.9671-.5776-6.884-3.3029-6.884-3.3029s-6.9986 2.6956-13.2763-2.6143c0 0-10.363-.1814-12.23 8.7795-1.5934 7.6427 4.8765 14.6337 5.8008 16.6296.9279 1.9995-7.3314-2.5069-10.5479-6.5171-3.2164-4.0102-4.9208-9.7792-4.9208-9.7792l.4584-11.1938s42.5056-13.0341 45.1194-12.175c2.6103.8591 27.5993 28.2232 27.5993 28.2232h-.004Z" style="mix-blend-mode:multiply"/>
    <path fill="url(#b)" d="M68.8048 113.489c3.8179-4.733 1.6266-12.847-4.8944-18.1245-6.521-5.2775-14.9023-5.7196-18.7202-.9875-3.8179 4.7321-1.6265 12.847 4.8944 18.124 6.521 5.278 14.9023 5.72 18.7202.988Z" opacity=".6"/>
    <path fill="url(#c)" d="M109.852 125.538c.185-.196.358-.393.543-.585 4.847-5.281 7.406-12.49 8.097-16.274.111-.615.166-1.148.177-1.57.052-1.5-.288-3.463-.506-5.436-4.448.726-9.054 4.314-11.487 9.342-3.039 6.295-1.608 12.601 3.176 14.523Z" opacity=".6"/>
    <path fill="#CB6275" d="M118.167 110.164c-1.002 3.984-3.498 10.135-7.768 14.786-.189.196-.359.392-.547.585-1.734 1.84-3.586 3.532-5.49 5.073.288-1.233 1.279-4.044 2.58-6.184 2.681-4.396 8.263-11.131 11.225-14.26Z" opacity=".6"/>
    <path fill="#CB6275" d="M38.4646 93.012c-.6692-1.1183-1.1203-2.4587-2.8579-4.6952-1.3199-1.7034-3.7304-2.3847-5.797-.4777-1.9262 1.7885-2.0519 5.6209-2.3329 4.7841-1.0907-3.1808.8762-7.5353 3.5973-8.1945 3.1536-.7887 4.8727.263 6.6584 2.9179.3771.5517 1.1979 2.3624 1.7155 4.1065.8577 2.903.7727 4.499-.9797 1.5589h-.0037Z"/>
    <path fill="#9740E5" d="M134.608 50.2626c-.54-5.8505-3.805-9.546-6.441-11.5751-.625-.4777-1.216-.8628-1.715-1.1627l.018-.026c.248-.5517 3.402-7.7093-1.394-15.3965-5.016-8.0093-12.851-12.25276-26.297-13.07109 0 0-5.3164-5.83942-16.7626-7.95746-11.461-2.13656-22.0976 3.31406-24.4674 4.89889-2.3588 1.58853-6.8323 5.49876-12.988 2.34391 0 0 1.1055 3.90655 5.2204 6.35415 0 0-7.6198-1.3479-12.6072 1.5737-4.9984 2.9067-9.5865 12.4046-13.8678 13.6488 0 0 3.198 1.3182 9.5903-1.6219 0 0-1.0574 3.4585-4.9245 6.0912-3.8524 2.6327-14.6258 7.4502-20.92562 14.3227C.757811 55.5503.0627569 63.6929-.00009384 66.2294-.0703387 68.751.927878 73.8869.240218 75.4458c.207037-.237.983432-.6887 2.096252-3.4807.50651-1.2775 1.43078-2.4143 2.27372-3.2659v-.0148c1.12022-1.2849 3.46418-2.5402 4.34039-2.9771.11092-.0593.21813-.1185.34383-.1741-.00369.0297-2.74694 9.3387-2.17389 14.0302.90209 7.4168 5.27578 14.7707 9.31298 20.3695 4.0483 5.6131 4.3959 11.1081 1.7044 19.0841 3.4531-2.866 5.7601-4.669 5.6713-8.664 1.0315 7.628 9.4387 14.148 22.7076 16.94.9428.2 2.2922.948 3.2461 1.422-.0074-.674-.3919-7.472-.488-9.612-.3808-.571-.7617-1.156-1.1388-1.756-4.0779-6.494-4.9393-9.634-6.3331-9.601-1.3938.033-2.3476 1.633-5.8192 1.363-3.6158-.274-7.5125-2.722-10.7438-10.5092-3.235-7.7723-1.8448-13.2044.44-16.1186 2.2996-2.9289 5.6713-3.3585 7.7158-2.9104 1.1757.274 2.4475.8072 3.4716 1.9218.281.2999.5435.6295.7727 1.0109.0591.0962.1072.1888.1663.2851.037.0629.0851.1296.1184.2073.0221.0482.0591.1111.0813.1704.2514.4295.4806.8961.647 1.3885.1479.3259.3216.6703.3882 1.0332.0517.1518.0739.3332.0665.4924-.3771 8.2574 1.4974 12.5305 1.9558 14.1266.4621 1.596 1.2385 2.24 1.7339 1.899.4991-.344-.2181-1.77.7542-7.0387.7727-4.1843 1.7414-4.4361 2.3625-8.5944l.048-.3591c.0925-.6888.1331-1.4442.1368-2.2477.0185-.1296.0185-.2444.0222-.3777.0148-.2184.0148-.4369 0-.6591-.1368-5.9135-2.4881-18.9513 6.677-28.3973 1.0832-1.1145 2.2996-2.1513 3.7045-3.1511.0961-.0592.1922-.1222.2884-.1963l.011.1482c.0814 3.5806.7062 7.4798 2.418 10.9827 4.6546 9.4238 11.7124 9.9348 11.7124 9.9348-5.4126-4.0103-6.6881-8.1871-7.3277-16.9036-.2588-3.677.7431-6.9355 1.7229-9.1609 6.9357-3.1882 10.4701-2.4291 10.8657-2.318.0444.0074.0592.0074.0592.0074s2.5917 2.3772 5.4569 2.5809c5.4273.3703 6.5661-.8258 6.5661-.8258s2.5325 3.4807 7.372 3.7733c4.8094.3036 7.2134-1.8515 8.0154-3.0623 0 0 1.845 2.4994 5.483 3.1548 3.649.6888 5.749.0334 5.749.0334s4.824 3.5954 7.22 11.7529c2.385 8.1278 1.582 15.7297-.259 23.1503.178-.0074 7.187-4.6323 8.123-11.3715.968-6.8762.699-8.2611.699-8.2611s4.636-7.2243 3.941-14.4412l-.011.0037Z"/>
    <path fill="#fff" d="M35.9394 105.709c1.3333 0 2.4142-1.083 2.4142-2.418 0-1.335-1.0809-2.418-2.4142-2.418-1.3334 0-2.4143 1.083-2.4143 2.418 0 1.335 1.0809 2.418 2.4143 2.418Z"/>
    <path fill="#7F2636" d="M113.161 97.3663c.273.4629 1.364 1.9477 4.898 1.1368 3.531-.811 4.193-1.7293 4.008-1.9144-.185-.1851-3.786-1.0183-3.786-1.0183s1.013-5.221-.702-8.8313c-1.716-3.6103-6.747-5.7358-10.685-5.0581-5.386.9294-8.1186 6.7429-7.5604 10.8901.5583 4.1509 13.8274 4.7915 13.8274 4.7915v.0037Z"/>
    <path fill="#fff" d="M99.7292 90.805c-1.6009 5.6099-1.3236 12.827 6.5658 13.923.695.096 1.387.074 2.059-.071 2.759-.573 5.169-3.18 5.676-8.0347.632-6.0394-.518-9.9534-3.679-11.7418-2.514-1.4219-5.657-.8184-7.96 1.3848-1.168 1.1183-2.118 2.6476-2.6618 4.5397Z"/>
    <path fill="#000" d="M99.7292 90.8048c-1.6009 5.6098-3.0464 12.8382 5.6308 13.9002.695.086 2.322.1 2.991-.048 1.941-1.448 3.224-4.091 3.712-7.4722.894-6.28-2.562-10.9567-6.581-11.3344-1.135-.1074-2.17.0333-3.095.4147-1.168 1.1182-2.118 2.6475-2.6615 4.5397h.0037Z"/>
    <path fill="#fff" d="M102.509 91.8305c.755.6628 1.923-.6924 1.609-1.6367-.23-.6961-.932-.6517-1.442-.1555-.511.4962-.559 1.4478-.17 1.7922h.003Z"/>
    <path fill="#7D1EBF" d="M128.529 38.6842c-1.685 7.4687-9.353 9.0461-9.353 9.0461 5.63-4.3583 7.645-10.2088 7.645-10.2088.499.3073 1.087.685 1.708 1.1627ZM103.607 15.1377s4.459 6.2319 5.114 12.4342c.658 6.1986-1.039 12.0343-1.039 12.0343s5.346-6.3911 3.549-14.63c-1.597-7.3169-7.624-9.8348-7.624-9.8348v-.0037ZM77.2026 33.5364S71.657 22.4537 63.113 20.5615c-8.4146-1.8625-13.2504.2814-16.2488 1.2849-2.7617.922-4.7027 2.1736-7.7602 3.8251 0 0 3.4346-1.1812 7.8822-2.2218 4.4476-1.0405 9.9193-1.8477 14.8919-.3184 4.9763 1.5293 13.0841 6.9095 15.3245 10.4088v-.0037ZM66.2668 34.9214s-8.9137 2.0292-9.1097 16.1631c-.0998.074-.1996.137-.2847.1962-1.4086.9924-2.6286 2.0366-3.7045 3.1511-.1072-.3147-1.5897-5.2247.8578-10.5642 2.5325-5.5136 7.7121-9.8756 12.2374-8.9425l.0037-.0037ZM39.8917 40.6055s-1.7229 8.8572-7.849 11.6862c-6.1261 2.829-15.269 1.8996-18.0566 4.3694 0 0 1.6896-3.2437 7.1871-4.2176 5.4976-.9738 11.8493-2.2957 18.7222-11.8343l-.0037-.0037ZM4.98005 68.6847c1.12022-1.2849 3.46049-2.5402 4.3367-2.9771.11091-.0593.21813-.1185.34383-.1741.91692-.4184 2.04082-.622 3.44572-.8887 4.2258-.7998 10.2705 2.7365 17.7756 1.0887 7.2648-1.5811 11.1542-7.1354 11.3871-7.4835-.3253.2629-5.7379 4.5027-12.6034 4.7323-7.0984.2295-19.0179-4.5138-24.69294 5.7024h.00739ZM76.5595 43.7644c-.4067-.1074-3.93-.8628-10.8769 2.3254 0 0 .9982-2.5032 2.3736-4.2065 1.379-1.7033 3.4937-2.7845 5.8007-1.4626 1.2496.7109 2.1517 2.1662 2.7026 3.3437Z"/>
    <path fill="#B65BED" d="M109.323 12.8115s5.006 2.2847 8.223 6.6689c3.216 4.3842 3.967 6.206 3.967 6.206s.329-5.0915-3.084-8.5647c-3.937-4.0102-9.106-4.3102-9.106-4.3102ZM70.3928 14.8451s11.0173-2.9734 20.8812 3.4659c9.864 6.4393 11.28 12.5786 11.28 12.5786s.299-4.9951-1.316-9.0165c0 0 1.759 2.892 2.037 3.914 0 0-.514-10.7161-11.1618-18.15148-10.6476-7.435351-25.8908-2.3291-30.1239.73317 0 0 19.1842-6.13195 30.7968 6.18381 0 0-11.2651-6.15419-22.3933.2925Z"/>
    <path fill="#5B1336" d="M38.1687 82.7887c.037.063.085.1296.1183.2074.0222.0481.0592.1111.0813.1703.2514.4295.4807.8961.647 1.3886.1479.3258.3217.6702.3882 1.0331l10.5294-1.4441.3438-2.5883-12.108 1.2367v-.0037Z"/>
    <path fill="#5B1336" d="M61.7452 75.9382c2.1776-.0444 4.6695.0778 7.8453.3962 5.7231.5702 10.3703 2.1884 12.7402 4.4434 2.2404 2.1292 2.6323 3.5696 2.7026 6.1986.1072 3.9399-1.6674 10.2422-3.9485 12.8046-2.0298 2.281-5.0392 5.332-11.5831 5.473-.9021.018-1.8633-.004-2.8578-.071-7.0504-.462-11.7605-4.613-13.8198-8.3421-2.3698-4.2916-2.9872-10.1385-2.1998-13.0934 1.0981-4.1287 2.6361-6.2837 4.9911-6.9836 1.6785-.4998 3.6823-.7702 6.1298-.822m-.0702-2.5883c-2.4771.0518-4.7915.3221-6.8397.9331-4.1851 1.2479-5.8451 5.347-6.762 8.7943-.9168 3.4511-.3179 10.0015 2.4364 14.9892 2.7544 4.9838 8.4997 9.2088 15.9752 9.7018 1.098.07 2.1258.096 3.0908.074 7.4016-.156 11.0395-3.585 13.5018-6.351 2.7839-3.1248 4.7175-10.0862 4.5955-14.5704-.0814-2.9956-.5657-5.1988-3.5123-8.0019-3.1684-3.0141-8.8175-4.6175-14.3188-5.1618-2.8135-.2777-5.579-.4628-8.1706-.4073h.0037ZM114.865 82.377c.673.0889 1.357.2 2.041.3296 4.318.8146 5.313 1.8255 6.041 2.5661 1.557 1.5848 1.804 3.9287 1.697 7.1946-.1 3.1141-2.163 10.3567-5.912 13.7117-2.632 2.355-5.057 3.596-9.671 2.985-.27-.037-.547-.078-.828-.126-3.49-.597-6.053-2.829-7.616-6.628-1.0578-2.574-1.3018-11.1461-.134-14.6009.718-2.1217 1.343-3.2622 3.96-4.5582 2.318-1.1479 6.019-1.4552 10.422-.8739Zm.34-2.5661c-4.388-.5813-8.847-.4147-11.956 1.1257-3.3756 1.67-4.396 3.4622-5.2685 6.0431-1.3088 3.8658-1.1683 13.0753.1923 16.3893 1.4492 3.521 4.2702 7.305 9.6202 8.224.318.055.624.1.928.14 5.394.715 8.606-.781 11.793-3.632 4.637-4.147 6.663-12.2974 6.766-15.5374.104-3.2363-.037-6.6355-2.44-9.0831-1.017-1.0368-2.403-2.3662-7.45-3.3178-.721-.137-1.453-.2555-2.185-.3518Z"/>
    <path fill="#CB6275" d="M95.156 95.5371c-.843.0222-.9206 3.7436.1442 5.8729 1.0647 2.129 1.8485 3.04 1.3716 4.28-.4769 1.237-1.7118 2.537-2.9651 2.989-1.257.451-2.8579.577-2.673 1.247.1849.671 2.7211.778 5.3053-.636 2.5843-1.415 2.9651-3.118 2.7618-4.466-.2034-1.348-2.0334-3.84-2.747-5.3433-.7135-1.5034-1.1941-3.9436-1.1941-3.9436h-.0037Z"/>
    <path fill="#5B1336" d="M99.4592 90.5419c-.939-4.1658-3.8708-5.3285-5.7194-5.6543-1.8781-.3296-3.3791-.2629-5.5234 1.0516-.6951.4258-1.3051 1.0368-1.8338 1.6774.1035 1.633-.0591 3.2659-.2625 4.8952.2847-.1259.5287-.3444.6655-.6517.3179-.711 1.5084-2.9105 2.7876-3.6955 1.6045-.9849 2.4734-.9257 3.7119-.7072.5767.1 2.8726.3147 3.6269 3.6584.1367.6073.6802 1.0035 1.2791.9998.6581-.2629 1.4013-.9554 1.2645-1.5774l.0036.0037Z"/>
    <path fill="#B7516F" d="M123.579 71.0283c-.333-.2851-.432-.411-.817-.6517-1.93-1.2146-4.595-.6258-7.564.8072-2.969 1.4293-11.476 6.8762-12.049 4.6915-1.386-5.2876 15.901-11.1197 18.726-9.2201.676.4555 1.02.7961 1.549 1.3108.092 1.0442.14 2.0699.155 3.0623Z"/>
    <path fill="#7F2636" d="M54.9684 85.6211c.2884.8146 2.8172 4.2509 6.5402 4.5693 0 0 1.0278-.5184 3.1573-2.4439 2.7063-2.4439 7.4386-4.2101 12.0526-1.8403 4.9615 2.5513 4.3737 8.6425 5.0502 8.9609.6766.3185 2.1887-4.4656-.5619-9.5682-2.6546-4.9211-8.5662-6.0838-13.1913-4.4916-4.6251 1.5923-6.847 4.7027-7.5236 5.3396-.6766.6369-6.2-2.4439-5.5235-.5332v.0074Z"/>
    <path fill="#FF2ED2" d="M120.4 229H36.3092c-.8614-3.399-1.782-6.795-2.5621-9.609-.2625-.952-.5139-1.833-.7394-2.629-.684-2.399-1.1535-3.999-1.2053-4.184v-.011c0-.004-.0037-.004-.0037-.008-.0073-.014-.0184-.029-.0258-.04-.0259-.037-.0481-.078-.0703-.115-.939-1.578-8.7658-14.841-14.3928-29.871-5.9967-16.011-1.4862-23.102 2.6767-26.439 4.163-3.336 8.8028-3.847 13.2911-4.243 5.2647-.47 9.679-1.844 9.679-1.844 2.4512 6.806 5.2166 13.815 13.9011 25.653 4.2517 5.792 9.2797 10.324 11.657 12.323.6469.545 1.098.9 1.2828 1.048.0629.048.0962.074.0962.074.1959-.359.3956-.703.5952-1.033.0074-.007.0111-.018.0185-.026.4399-.714.891-1.373 1.3531-1.966 3.9226-5.084 8.3777-6.076 8.6956-6.143h.0185s.037-.648.0591-1.737c.037-1.914.0259-5.198-.3142-8.746-.8947-9.353-2.222-16.611-2.222-16.611 8.8287 1 16.4891 5.506 19.151 12.009 2.6656 6.506 4.7505 15.222 4.7505 15.222s6.677 3.133 10.641 10.239c6.336 11.356 1.878 21.102 1.878 21.102l.085.259.565 1.685L120.403 229h-.003Z"/>
    <path fill="#DD00C4" d="M64.8987 201.036c-1.0721 6.84 1.172 12.261 1.172 12.261s-2.2182-.474-3.1351-9.913c0 0-4.37-4.606-10.5774-12.893-6.2038-8.291-8.0449-13.127-6.6659-13.357 1.6341-.274 4.1371 7.139 8.9655 12.894 4.8284 5.758 8.7177 11.082 8.7177 11.082s.5694-7.028 5.1353-13.126c.647.544 1.098.9 1.2829 1.048-1.7857 2.577-4.0742 6.739-4.895 12.004ZM72.1304 186.113s-.6766.678-1.6267 1.933c.4399-.714.891-1.373 1.3531-1.966l.2736.033ZM94.1429 179.315c-6.9321-1.429-13.5721.619-13.5721.619s.037-.645.0592-1.733c9.3462-3.503 18.9106.429 18.9106.429s2.5174 2.315-5.3977.685ZM115.165 213.359c-2.392 6.531-5.831 11.649-9.568 15.641h-2.459c5.708-6.003 9.294-12.342 10.903-15.997.192-.437.377-.881.558-1.329l.566 1.685ZM43.9583 229h-2.2256c-3.0538-3.796-6.0411-7.932-8.7252-12.238-.684-2.4-1.1535-3.999-1.2053-4.184v-.012c2.222 3.563 6.8064 10.165 12.1598 16.434h-.0037Z"/>
    <path fill="#FEAEB4" d="M125.809 131.374c-1.465 3.236-3.564 6.413-4.511 7.794 0 0 .144 4.073-.237 8.372-.495 5.577-4.928 8.365-4.928 8.365l-9.934 35.307s-3.978 3.103-9.5014.215c-6.4515-3.381-5.7047-7.524-5.7047-7.524s15.8971-31.119 15.8971-32.075c0-.955-3.098-15.641-2.525-18.699.573-3.062 3.627-8.224 5.535-10.901 1.911-2.678 9.93-12.427 9.93-12.427 1.002 1.91.185 4.91-.82 7.32-.873 2.107-1.893 3.766-1.956 3.87l11.365-10.235c.717 1 .735 2.218.484 3.348-.274 1.207-.865 2.318-1.253 2.962-.189.315-.333.518-.366.566l3.808-3.051c1.386 2.663-2.725 8.302-2.725 8.302-.207.263-.451.541-.71.826-1.25 1.374-2.902 2.844-2.987 2.929.151-.074.314-.148.495-.226.229-.104.485-.219.773-.359l7.109-2.196c1.165 3.884-7.238 7.517-7.238 7.517Z"/>
    <path fill="#CB6275" d="M119.01 117.121c-.873 2.103-1.893 3.762-1.953 3.866h-.003c-1.971 1.911-1.797 1.307-2.488 2.518-.688 1.211-3.539 6.702-4.4 6.617-.865-.085 2.414-5.147 3.712-7.31 1.031-1.721 3.978-4.595 5.132-5.691ZM128.903 114.099c-.274 1.211-.865 2.322-1.253 2.963-.115.114-.222.218-.311.303-1.294 1.211-6.3 5.792-6.821 6.48-.518.693-5.435 7.98-6.215 7.806-.776-.17 4.662-7.372 5.35-8.58.577-1.014 7.098-7.009 9.246-8.975l.004.003ZM125.165 126.412l.773-.359c-.288.14-.543.255-.773.359Z" opacity=".6"/>
    <path fill="#CB6275" d="M127.657 123.709c-1.25 1.374-2.902 2.844-2.987 2.929-.699.33-1.157.618-1.73 1.366-.866 1.126-4.467 6.184-4.903 5.925-.429-.263 3.864-6.188 4.381-7.047.344-.57 3.28-2.158 5.239-3.173Z" opacity=".6"/>
    <path fill="#F7EFE2" d="M185.31 81.5001c22.47 0 40.686-18.2444 40.686-40.7501C225.996 18.2444 207.78 0 185.31 0c-22.471 0-40.687 18.2444-40.687 40.75 0 22.5057 18.216 40.7501 40.687 40.7501Z"/>
    <path fill="#F7EFE2" d="M134.19 110.298s16.245 1.214 24.974-15.8486c8.729-17.0628 18.023-17.9997 25.244-17.8441l-12.26-15.241s-9.08 5.8579-14.622 20.4398c-5.542 14.5819-2.192 19.4359-23.34 28.4899l.004.004Z"/>
    <path fill="#5B1336" d="M194.837 24.2572c1.919 1.7996 2.877 3.9547 2.877 6.4615 0 1.8996-.433 3.5177-1.302 4.8545-.869 1.333-2.229 2.7919-4.089 4.3693-2.381 2.0625-3.575 4.1436-3.575 6.2468 0 2.9512-1.493 4.4286-4.481 4.4286-2.987 0-4.299-1.5182-4.299-4.5508 0-3.0327 1.19-5.8839 3.575-8.3092 1.371-1.4145 2.31-2.5069 2.817-3.2771.506-.7702.758-1.5552.758-2.3661 0-1.3738-.888-2.0625-2.666-2.0625-1.172 0-2.643.4258-4.422 1.2738-1.131.5665-2.199.7368-3.209.5147-1.009-.2222-1.778-.8184-2.303-1.7885-.525-.7702-.617-1.77-.274-3.003.344-1.2331 1.18-2.2551 2.515-3.0623 2.584-1.6182 5.712-2.4254 9.386-2.4254 3.875 0 6.774.8998 8.692 2.6994v-.0037Zm-13.62 30.6486c.762-.7146 1.841-1.0701 3.239-1.0701 1.397 0 2.484.3555 3.261 1.0701.776.7147 1.164 1.6774 1.164 2.8883 0 1.2108-.388 2.1661-1.164 2.866-.777.6998-1.864 1.0479-3.261 1.0479-1.398 0-2.518-.3407-3.261-1.0257-.747-.685-1.12-1.6441-1.12-2.8882 0-1.2442.381-2.1736 1.142-2.8883Z"/>
    <path fill="#E76F83" d="M97.1191 119.991s1.6489-1.873-.0777-3.354c-1.7265-1.482-3.4309-.937-7.0725-2.759-4.2406-2.122-6.9469-5.336-11.6681-5.303-4.7212.034-6.1297 6.314-6.3331 7.388-.5324 2.773-.0665 9.264 6.6881 12.445 8.5181 4.01 14.8697-.937 17.7867-5.81l.6766-2.607Z"/>
    <path fill="#550C1A" d="M72.9511 118.384c.3068 1.418.9094 2.866 1.867 4.255 2.1184 3.062 5.6381 4.821 9.1281 5.35 2.747.422 5.4717.085 7.4756-.981 5.6011-2.985 7.5051-8.502 5.9967-9.998-.3217-.322-.843-.303-1.6046-.252-1.4899.093-3.9041.311-7.5605-1.596-4.9911-2.606-6.2481-5.983-9.5275-6.413-.3475-.048-.7172-.059-1.1165-.033-3.2423.203-5.7157 4.751-4.6546 9.672l-.0037-.004Z"/>
    <path fill="#fff" d="M78.7224 108.742c.318 1.085.8725 2.344 1.7857 3.747 2.1295 3.281 7.0097 6.425 11.4573 6.529 2.6915.063 3.564-1.422 3.845-2.267-1.4899.093-3.9041.312-7.5606-1.595-4.991-2.607-6.2481-5.984-9.5274-6.414Z"/>
    <path fill="#B14355" d="M72.9512 118.384c.3068 1.418.9095 2.866 1.867 4.255 2.1184 3.062 5.6381 4.821 9.1281 5.35-.1626-1.207-.61-2.825-1.7524-4.58-2.1443-3.307-5.3534-5.077-7.653-5.177-.5952-.026-1.1239.037-1.5897.152Z"/>
  </g>
  <defs>
    <radialGradient id="b" cx="0" cy="0" r="1" gradientTransform="rotate(56.2712 -90.90044624 146.13871463) scale(14.3428 11.5599)" gradientUnits="userSpaceOnUse">
      <stop offset=".45" stop-color="#FB8994"/>
      <stop offset=".51" stop-color="#FA8994" stop-opacity=".98"/>
      <stop offset=".57" stop-color="#FA8B97" stop-opacity=".92"/>
      <stop offset=".65" stop-color="#F98F9B" stop-opacity=".81"/>
      <stop offset=".73" stop-color="#F893A0" stop-opacity=".67"/>
      <stop offset=".82" stop-color="#F699A7" stop-opacity=".49"/>
      <stop offset=".91" stop-color="#F5A1AF" stop-opacity=".27"/>
      <stop offset="1" stop-color="#F3AABA" stop-opacity="0"/>
    </radialGradient>
    <radialGradient id="c" cx="0" cy="0" r="1" gradientTransform="matrix(-5.43467855 12.86693898 -8.6114971 -3.63728457 115.475 114.531)" gradientUnits="userSpaceOnUse">
      <stop offset=".45" stop-color="#FB8994"/>
      <stop offset=".51" stop-color="#FA8994" stop-opacity=".98"/>
      <stop offset=".57" stop-color="#FA8B97" stop-opacity=".92"/>
      <stop offset=".65" stop-color="#F98F9B" stop-opacity=".81"/>
      <stop offset=".73" stop-color="#F893A0" stop-opacity=".67"/>
      <stop offset=".82" stop-color="#F699A7" stop-opacity=".49"/>
      <stop offset=".91" stop-color="#F5A1AF" stop-opacity=".27"/>
      <stop offset="1" stop-color="#F3AABA" stop-opacity="0"/>
    </radialGradient>
    <clipPath id="a">
      <path fill="#fff" d="M0 0h226v229H0z"/>
    </clipPath>
  </defs>
</svg>
