<svg width="322" height="236" viewBox="0 0 322 236" fill="none" xmlns="http://www.w3.org/2000/svg">
<path d="M315.762 125.081H307.575V138.045H315.762V125.081Z" fill="#97CAFF"/>
<path fill-rule="evenodd" clip-rule="evenodd" d="M317.778 128.649V111.674L315.498 106.646L310.298 115.969L317.778 128.649Z" fill="#97CAFF"/>
<path fill-rule="evenodd" clip-rule="evenodd" d="M236.814 189.137L237.891 188.496V189.137H236.814Z" fill="#D5E5FF"/>
<path fill-rule="evenodd" clip-rule="evenodd" d="M235.241 189.136L235.149 189.083V188.806L237.891 187.167V188.495L236.814 189.136H235.241Z" fill="#D6E6FF"/>
<path fill-rule="evenodd" clip-rule="evenodd" d="M235.149 187.485L237.673 185.965H237.891V187.167L235.149 188.806V187.485Z" fill="#D7E7FF"/>
<path fill-rule="evenodd" clip-rule="evenodd" d="M235.149 186.15L235.459 185.965H237.673L235.149 187.485V186.15Z" fill="#D8E7FF"/>
<path fill-rule="evenodd" clip-rule="evenodd" d="M235.459 185.965L235.149 186.15V185.965H235.459Z" fill="#D9E8FF"/>
<path fill-rule="evenodd" clip-rule="evenodd" d="M230.689 198.123L296.125 158.873H298.345L230.689 199.451V198.123Z" fill="#D1E3FF"/>
<path fill-rule="evenodd" clip-rule="evenodd" d="M230.689 196.795L293.911 158.873H296.125L230.689 198.123V196.795Z" fill="#D2E3FF"/>
<path fill-rule="evenodd" clip-rule="evenodd" d="M230.689 195.466L291.697 158.873H293.911L230.689 196.795V195.466Z" fill="#D3E4FF"/>
<path fill-rule="evenodd" clip-rule="evenodd" d="M230.689 194.138L289.484 158.873H291.697L230.689 195.466V194.138Z" fill="#D4E5FF"/>
<path fill-rule="evenodd" clip-rule="evenodd" d="M230.689 192.81L287.27 158.873H289.484L230.689 194.138V192.81Z" fill="#D5E5FF"/>
<path fill-rule="evenodd" clip-rule="evenodd" d="M230.689 191.482L285.057 158.873H287.27L230.689 192.81V191.482Z" fill="#D6E6FF"/>
<path fill-rule="evenodd" clip-rule="evenodd" d="M230.689 190.154L282.843 158.873H285.057L230.689 191.482V190.154Z" fill="#D7E7FF"/>
<path fill-rule="evenodd" clip-rule="evenodd" d="M230.689 188.832L280.63 158.873H282.843L230.689 190.154V188.832Z" fill="#D8E7FF"/>
<path fill-rule="evenodd" clip-rule="evenodd" d="M230.689 187.498L278.416 158.873H280.63L230.689 188.832V187.498Z" fill="#D9E8FF"/>
<path fill-rule="evenodd" clip-rule="evenodd" d="M230.689 186.176L276.202 158.873H278.416L230.689 187.498V186.176Z" fill="#DAE8FF"/>
<path fill-rule="evenodd" clip-rule="evenodd" d="M230.689 184.841L273.989 158.873H276.202L230.689 186.176V184.841Z" fill="#DBE9FF"/>
<path fill-rule="evenodd" clip-rule="evenodd" d="M230.689 183.52L271.775 158.873H273.989L230.689 184.841V183.52Z" fill="#DCEAFF"/>
<path fill-rule="evenodd" clip-rule="evenodd" d="M230.689 182.185L269.555 158.873H271.775L230.689 183.52V182.185Z" fill="#DDEAFF"/>
<path fill-rule="evenodd" clip-rule="evenodd" d="M230.689 180.863L267.341 158.873H269.555L230.689 182.185V180.863Z" fill="#DEEBFF"/>
<path fill-rule="evenodd" clip-rule="evenodd" d="M230.689 179.535L265.128 158.873H267.341L230.689 180.863V179.535Z" fill="#DFECFF"/>
<path fill-rule="evenodd" clip-rule="evenodd" d="M230.689 178.207L262.914 158.873H265.128L230.689 179.535V178.207Z" fill="#E0ECFF"/>
<path fill-rule="evenodd" clip-rule="evenodd" d="M230.689 176.872L260.701 158.873H262.914L230.689 178.207V176.872Z" fill="#E1EDFF"/>
<path fill-rule="evenodd" clip-rule="evenodd" d="M230.689 175.551L258.487 158.873H260.701L230.689 176.872V175.551Z" fill="#E2EDFF"/>
<path fill-rule="evenodd" clip-rule="evenodd" d="M230.689 174.223L256.274 158.873H258.487L230.689 175.551V174.223Z" fill="#E3EEFF"/>
<path fill-rule="evenodd" clip-rule="evenodd" d="M230.689 172.895L254.06 158.873H256.274L230.689 174.223V172.895Z" fill="#E4EFFF"/>
<path fill-rule="evenodd" clip-rule="evenodd" d="M230.689 171.566L251.846 158.873H254.06L230.689 172.895V171.566Z" fill="#E6EFFF"/>
<path fill-rule="evenodd" clip-rule="evenodd" d="M230.689 170.238L249.633 158.873H251.846L230.689 171.566V170.238Z" fill="#E7F0FF"/>
<path fill-rule="evenodd" clip-rule="evenodd" d="M230.689 168.91L247.413 158.873H249.633L230.689 170.238V168.91Z" fill="#E8F1FF"/>
<path fill-rule="evenodd" clip-rule="evenodd" d="M230.689 167.582L245.199 158.873H247.413L230.689 168.91V167.582Z" fill="#E9F1FF"/>
<path fill-rule="evenodd" clip-rule="evenodd" d="M230.689 166.254L242.992 158.873H245.199L230.689 167.582V166.254Z" fill="#EAF2FF"/>
<path fill-rule="evenodd" clip-rule="evenodd" d="M230.689 164.926L240.772 158.873H242.992L230.689 166.254V164.926Z" fill="#EBF2FF"/>
<path fill-rule="evenodd" clip-rule="evenodd" d="M230.689 163.598L238.558 158.873H240.772L230.689 164.926V163.598Z" fill="#ECF3FF"/>
<path fill-rule="evenodd" clip-rule="evenodd" d="M230.689 162.269L236.345 158.873H238.558L230.689 163.598V162.269Z" fill="#EDF4FF"/>
<path fill-rule="evenodd" clip-rule="evenodd" d="M230.689 160.941L234.131 158.873H236.345L230.689 162.269V160.941Z" fill="#EEF4FF"/>
<path fill-rule="evenodd" clip-rule="evenodd" d="M230.689 159.613L231.918 158.873H234.131L230.689 160.941V159.613Z" fill="#EFF5FF"/>
<path fill-rule="evenodd" clip-rule="evenodd" d="M231.918 158.873L230.689 159.613V158.873H231.918Z" fill="#F0F6FF"/>
<path fill-rule="evenodd" clip-rule="evenodd" d="M203.729 181.095L204.634 180.547V181.095H203.729Z" fill="#EBF2FF"/>
<path fill-rule="evenodd" clip-rule="evenodd" d="M201.516 181.095L204.634 179.225V180.546L203.729 181.095H201.516Z" fill="#ECF3FF"/>
<path fill-rule="evenodd" clip-rule="evenodd" d="M199.302 181.095L204.635 177.896V179.225L201.516 181.095H199.302Z" fill="#EDF4FF"/>
<path fill-rule="evenodd" clip-rule="evenodd" d="M204.634 177.308L198.093 181.094L186.133 174.189C178.644 169.877 175.715 167.256 177.345 166.326L181.488 163.928L204.634 177.308ZM311.216 166.161L313.648 164.773C314.456 164.299 315.172 163.683 315.762 162.956C316.11 162.533 316.42 162.08 316.688 161.602C317.195 160.766 317.557 159.85 317.758 158.893C321.128 161.232 322.245 162.718 321.115 163.373L246.646 206.323C245.034 207.248 240.485 205.552 233.001 201.235L230.688 199.913L237.891 195.75V198.909C237.843 199.35 237.903 199.797 238.064 200.211C238.225 200.625 238.483 200.994 238.816 201.288V201.321L239.014 201.42L239.08 201.486L243.276 203.898L243.54 204.063C244.144 204.308 244.82 204.308 245.424 204.063C245.889 203.957 246.335 203.778 246.745 203.534L311.216 166.161ZM235.149 187.583L237.891 185.997V189.169L235.149 187.583Z" fill="#C5E3FF"/>
<path fill-rule="evenodd" clip-rule="evenodd" d="M175.283 156.778L178.587 154.895V153.442L180.767 153.64L180.734 153.574L181.56 153.091V159.699L184.996 162.045L188.961 160.195L191.34 161.483L196.031 164.06V167.992L199.236 170.04L205.183 166.915V173.707L208.024 175.339L204.601 177.322L181.474 163.941L154.165 148.169C153.811 147.965 153.517 147.671 153.312 147.317C153.108 146.963 153 146.562 153 146.153C153 145.745 153.108 145.343 153.312 144.989C153.517 144.636 153.811 144.342 154.165 144.138L158.182 141.825V146.979L175.283 156.778ZM237.891 174.5V185.984L235.149 187.57L225.237 181.855L225.554 181.676L225.587 180.222L227.735 180.388L237.891 174.5ZM189.932 208.199L194.016 205.854V209.111C194.055 211.71 195.685 213.935 198.905 215.785C202.126 217.635 206.046 218.571 210.667 218.593C215.266 218.593 219.176 217.657 222.396 215.785C225.541 213.957 227.16 211.765 227.252 209.21V205.675L236.556 210.961C238.318 211.97 238.329 212.972 236.589 213.968L213.462 227.249C212.67 227.747 211.754 228.011 210.819 228.011C209.884 228.011 208.968 227.747 208.176 227.249L188.399 215.897C189.386 215.828 190.332 215.48 191.128 214.893L189.932 208.199ZM185.624 210.677L185.029 213.981C183.329 212.977 183.329 211.986 185.029 211.008L185.624 210.677ZM286.061 208.252L289.001 204.717L290.026 205.312C290.642 205.66 290.422 206.387 289.365 207.492C287.971 208.886 286.379 210.067 284.64 210.994L248.727 231.743C246.816 232.862 244.789 233.771 242.681 234.452C240.787 235.064 239.532 235.196 238.915 234.848L237.131 233.824C236.466 233.45 236.768 232.639 238.036 231.392L239.212 233.375L241.195 234.035L244.532 232.119L249.091 229.509L256.525 225.247L286.061 208.252Z" fill="#C5E3FF"/>
<path fill-rule="evenodd" clip-rule="evenodd" d="M169.534 44.8775L165.834 42.7631L223.354 9.72461L224.973 10.6497L226.691 11.6408C225.81 12.0549 224.896 12.5285 223.949 13.0615C222.535 13.806 219.484 15.568 214.797 18.3476C210.965 20.6163 207.98 22.2682 205.844 23.3034C200.245 25.9465 193.593 29.4706 185.888 33.8757C179.188 37.7302 174.376 40.8248 171.451 43.1595L170.36 44.0185C170.136 44.2366 169.931 44.4348 169.733 44.6132C169.646 44.6842 169.578 44.7749 169.534 44.8775ZM188.994 160.215L186.681 158.893V55.549L191.373 58.192V96.9131L188.333 111.681L191.108 124.005L191.373 109.811V161.47L188.994 160.215ZM216.515 71.6717L212.815 69.5572L237.924 55.1525V57.9079C236.312 58.8065 234.62 59.7448 232.935 60.736C226.235 64.5861 221.411 67.6807 218.464 70.0198C218.068 70.3039 217.704 70.5947 217.374 70.8788C217.149 71.0968 216.945 71.2951 216.746 71.4735L216.515 71.6717Z" fill="#FFFBF0"/>
<path fill-rule="evenodd" clip-rule="evenodd" d="M226.691 11.6406L232.539 15.0106L175.019 48.049L169.535 44.8773C169.587 44.7986 169.654 44.7311 169.733 44.6791C169.931 44.5007 170.136 44.3024 170.361 44.0844L171.451 43.2254C174.38 40.8951 179.193 37.8005 185.889 33.9416C193.593 29.5365 200.245 26.0124 205.844 23.3693C207.976 22.3341 210.96 20.6821 214.797 18.4135C219.489 15.6207 222.539 13.8586 223.949 13.1274C224.892 12.5547 225.806 12.0591 226.691 11.6406ZM257.846 25.0212L196.064 60.901L191.373 58.2248L193.554 55.7139C193.601 55.6416 193.656 55.575 193.719 55.5157C193.937 55.3373 194.155 55.1391 194.38 54.921C194.71 54.6391 195.073 54.3417 195.47 54.029C198.465 51.6017 203.388 48.419 210.238 44.4809C218.101 39.9216 224.885 36.2983 230.59 33.6112C232.656 32.5936 235.479 31.0232 239.061 28.8999L239.721 28.4902C244.501 25.6489 247.618 23.8208 249.071 23.0059C250.036 22.4772 250.961 22.0037 251.847 21.5852L257.846 25.0212ZM237.891 65.7246L222 74.863L216.515 71.6913L216.714 71.4931C216.912 71.3147 217.117 71.1164 217.341 70.8984C217.672 70.6143 218.035 70.3235 218.432 70.0394C221.379 67.7091 226.202 64.6145 232.902 60.7556C234.614 59.7645 236.279 58.8262 237.891 57.9275V65.7246Z" fill="#E1D7BA"/>
<path fill-rule="evenodd" clip-rule="evenodd" d="M165.834 42.7629L164.215 41.8048L224.94 6.94922L224.973 10.6495L223.354 9.72445L165.834 42.7629ZM158.182 141.812L157.839 41.8048L175.151 51.7824L175.283 156.779L158.202 146.999L158.182 141.812ZM180.648 48.5777L180.747 153.574L180.781 153.64L178.6 153.442L178.534 49.8001L177.708 48.3794L180.648 48.5777ZM159.768 55.3505C159.768 56.1633 160.429 56.9562 161.783 57.7293L170.34 62.6851C171.662 63.4582 172.356 63.4317 172.356 62.619V57.3328C172.356 56.4937 171.695 55.6941 170.34 54.921L161.783 49.9653C160.462 49.1922 159.768 49.2252 159.768 50.0644V55.3505Z" fill="#BC8E00"/>
<path fill-rule="evenodd" clip-rule="evenodd" d="M169.534 44.8774L175.019 48.0491L232.539 15.0106L235.743 13.1605L238.849 14.9776L180.668 48.5777L177.728 48.3795L178.554 49.8001L175.151 51.7824L157.839 41.8048L161.308 39.8225L163.389 40.219L163.719 40.252L163.389 38.6001V38.5671L221.603 5L224.94 6.98231L164.215 41.8379L165.834 42.796L169.534 44.8774ZM159.768 55.3506V50.0644C159.768 49.2253 160.429 49.1922 161.783 49.9653L170.34 54.9211C171.662 55.6942 172.356 56.4937 172.356 57.3329V62.6191C172.356 63.4318 171.695 63.4582 170.34 62.6851L161.783 57.7294C160.429 56.9563 159.768 56.1633 159.768 55.3506Z" fill="#FFE109"/>
<path fill-rule="evenodd" clip-rule="evenodd" d="M178.554 49.8006L178.62 153.442V154.896L175.316 156.779L175.184 51.7829L178.554 49.8006ZM180.768 153.607L180.668 48.6112L238.849 15.0111L239.047 14.8789V19.3193L187.276 49.338H187.243L181.593 52.6419V153.092L180.768 153.607Z" fill="#EBB200"/>
<path fill-rule="evenodd" clip-rule="evenodd" d="M163.39 40.2191V38.6332L163.72 40.2852L163.39 40.2191ZM185.03 54.5578L190.712 51.32V51.287L248.464 17.7529V19.6361L192.364 52.212L192.331 52.2451L186.682 55.5489V158.893L188.994 160.215L185.03 162.065V54.5578ZM199.269 170.027V62.7513L258.937 28.094V29.6798L241.955 39.4922C240.752 40.2139 239.761 41.2394 239.081 42.4657C238.724 43.0637 238.426 43.6943 238.189 44.3489C238.1 44.6408 238.034 44.939 237.99 45.2409C237.898 45.6303 237.865 46.0311 237.891 46.4303V49.4831L210.37 65.3944H210.403L210.701 67.0463L208.289 66.6168L204.82 68.5991L205.183 166.902L199.269 170.027ZM264.355 26.5544L261.084 28.4376V26.8715H261.051L264.355 24.9884V26.5544Z" fill="#5C71E7"/>
<path fill-rule="evenodd" clip-rule="evenodd" d="M248.463 17.7529L259.465 24.0633L257.846 25.0214L251.866 21.5854L248.463 19.6361V17.7529ZM199.269 170.027L196.064 167.979V60.9342L199.269 62.7843V170.027ZM185.03 54.5578V162.032L181.594 159.686V52.6416L185.03 54.5578Z" fill="#3347BB"/>
<path fill-rule="evenodd" clip-rule="evenodd" d="M196.064 60.9013L257.846 25.0215L259.465 24.0634L248.463 17.7531L190.712 51.2871V51.3202L185.03 54.5579L181.594 52.6087L187.243 49.3048H187.276L239.047 19.2861L246.712 14.8457L264.355 24.9885L261.051 26.8717H261.084V28.4377L258.937 29.68V28.0941L199.269 62.7515L196.064 60.9013Z" fill="#7A8EFF"/>
<path fill-rule="evenodd" clip-rule="evenodd" d="M191.373 161.47V109.811L191.637 95.6244L191.373 96.9129V58.2248L186.681 55.5817L192.331 52.2779L192.364 52.2449L248.463 19.6689L251.866 21.6182C250.985 22.0367 250.06 22.5102 249.091 23.0389C247.637 23.8538 244.521 25.6819 239.741 28.5232L239.08 28.9329C235.503 31.0606 232.68 32.631 230.609 33.6442C224.883 36.3358 218.099 39.959 210.258 44.5139C203.403 48.4785 198.481 51.6612 195.489 54.062C195.093 54.3703 194.73 54.6677 194.399 54.954C194.175 55.1721 193.956 55.3703 193.738 55.5487C193.676 55.6081 193.62 55.6746 193.573 55.7469L191.393 58.2579L196.084 60.934V164.047L191.373 161.47Z" fill="#F3EBD6"/>
<path fill-rule="evenodd" clip-rule="evenodd" d="M212.815 69.5567L216.515 71.6712L221.999 74.8429L237.891 65.7243V69.4246L227.649 75.3715L224.741 75.2063L225.567 76.627L222.131 78.6423L204.819 68.6317L208.288 66.6494L210.7 67.0789L210.403 65.4269H210.37L237.891 49.5156V53.3349L211.196 68.6647L212.815 69.5567ZM237.924 110.921L233.761 113.333C233.421 113.533 233.068 113.709 232.704 113.861C231.316 114.403 230.622 113.985 230.622 112.606V100.249C230.622 98.8707 231.316 97.6483 232.704 96.5822C233.041 96.3283 233.394 96.0966 233.761 95.8884L237.924 93.4766V110.921Z" fill="#EF487C"/>
<path fill-rule="evenodd" clip-rule="evenodd" d="M205.183 166.901L204.819 68.5986L222.131 78.6092L222.264 180.103L213.872 175.247C213.011 174.717 212.019 174.44 211.009 174.446C209.999 174.452 209.011 174.741 208.156 175.28L208.057 175.326L205.216 173.694L205.183 166.901ZM237.891 55.1519L212.781 69.5567L211.163 68.6316L237.858 53.3018L237.891 55.1519ZM227.649 75.3384L227.748 180.401L225.6 180.235L225.567 76.6269L224.741 75.2062L227.649 75.3384ZM237.891 69.4377V93.4765L233.728 95.8883C233.361 96.0965 233.008 96.3283 232.671 96.5821V72.4641L237.891 69.4377ZM237.891 110.921V174.467L232.671 177.493V113.861C233.035 113.709 233.388 113.533 233.728 113.333L237.891 110.921Z" fill="#B01D46"/>
<path fill-rule="evenodd" clip-rule="evenodd" d="M222.264 180.103L222.132 78.6093L225.568 76.594L225.601 180.203L225.568 181.656L225.25 181.835L222.264 180.103ZM227.748 180.368L227.649 75.3385L237.891 69.3916V69.4247L232.671 72.451V96.569C231.283 97.6351 230.589 98.8575 230.589 100.236V112.639C230.589 114.022 231.283 114.441 232.671 113.894V177.526L237.891 174.5V174.533L227.748 180.368Z" fill="#D12B5F"/>
<path fill-rule="evenodd" clip-rule="evenodd" d="M317.745 6.90266L309.783 2.30371H313.093L317.745 4.98643V6.90266Z" fill="#EBE9EE"/>
<path fill-rule="evenodd" clip-rule="evenodd" d="M317.745 8.00615L317.382 8.60745L306.466 2.30371H309.783L317.745 6.90266V8.00615Z" fill="#ECEAEF"/>
<path fill-rule="evenodd" clip-rule="evenodd" d="M316.555 2.72067L316.754 2.85283C317.414 3.31537 317.745 4.12812 317.745 5.29768L317.712 5.49591C317.754 5.03727 317.664 4.5762 317.453 4.16664C317.243 3.75708 316.92 3.41598 316.522 3.18322C315.752 2.74271 314.793 2.84182 313.648 3.48056L246.646 42.3999C245.424 43.1364 244.42 44.1856 243.739 45.4394C243.549 45.7534 243.377 46.0777 243.223 46.4107C242.798 47.3285 242.573 48.3264 242.563 49.3379V61.8595H242.186V48.9084C242.189 48.1943 242.305 47.4852 242.529 46.8072C242.743 46.1679 243.027 45.5541 243.375 44.9769C244.052 43.728 245.057 42.6883 246.283 41.9704L309.915 5.2316L313.681 3.05106C314.778 2.41011 315.71 2.29117 316.555 2.72067ZM242.662 189.401V201.295C242.662 202.531 243.058 203.363 243.851 203.806C244.322 204.073 244.875 204.156 245.404 204.037C244.8 204.283 244.124 204.283 243.521 204.037L243.256 203.872C242.547 203.432 242.184 202.606 242.166 201.394V189.302H242.563V189.434L242.662 189.401ZM315.763 162.924C315.172 163.651 314.456 164.267 313.648 164.741L311.216 166.129L313.813 164.576C314.546 164.132 315.204 163.574 315.763 162.924Z" fill="#EAE8ED"/>
<path fill-rule="evenodd" clip-rule="evenodd" d="M309.915 5.23131L309.287 4.86789L312.029 0.143392V0.110352L312.261 0.242503C312.282 0.250638 312.305 0.250638 312.327 0.242503L316.556 2.68736C315.736 2.27107 314.778 2.3768 313.681 3.01774L309.915 5.23131Z" fill="#EAE8ED"/>
<path fill-rule="evenodd" clip-rule="evenodd" d="M237.891 174.467V46.4302C237.865 46.031 237.898 45.6302 237.99 45.2408C238.034 44.9389 238.1 44.6407 238.188 44.3488C238.419 43.6949 238.711 43.0643 239.061 42.4656C239.741 41.2393 240.732 40.2138 241.935 39.4921L258.917 29.6797L261.064 28.4375L264.335 26.5543L309.333 0.572812C309.714 0.295744 310.155 0.112453 310.62 0.037823C311.085 -0.0368069 311.561 -0.000665329 312.01 0.143317L309.267 4.86781L309.895 5.23124L246.263 41.97C245.038 42.6879 244.032 43.7277 243.356 44.9765C243.007 45.5538 242.724 46.1676 242.51 46.8068C242.285 47.4848 242.17 48.1939 242.166 48.9081V61.8591H242.133L239.721 60.4715V188.066L242.133 189.454V189.322H242.166V196.953L241.505 196.59L238.796 201.281C238.463 200.988 238.205 200.619 238.044 200.205C237.883 199.791 237.824 199.344 237.871 198.903V195.744L238.995 195.083C239.92 194.555 240.389 194.026 240.415 193.498V191.383C240.415 190.855 239.92 190.313 238.995 189.764L237.871 189.103V174.434L237.891 174.467ZM304.53 4.27312C304.33 4.15588 304.1 4.09855 303.869 4.10793C303.64 4.11817 303.415 4.17434 303.208 4.27312C303.133 4.30958 303.068 4.36558 303.022 4.4353C302.975 4.50502 302.948 4.58592 302.944 4.66959C302.944 4.78192 303.03 4.88764 303.208 4.99997C303.406 5.1221 303.637 5.17981 303.869 5.16517C304.102 5.19352 304.337 5.13468 304.53 4.99997C304.596 4.96821 304.654 4.92203 304.699 4.86485C304.745 4.80766 304.777 4.74094 304.794 4.66959C304.778 4.58936 304.747 4.51304 304.701 4.445C304.656 4.37697 304.598 4.31856 304.53 4.27312ZM305.389 6.0572C305.389 6.18935 305.475 6.30168 305.653 6.38758C305.856 6.50175 306.082 6.56946 306.314 6.58581C306.528 6.58678 306.737 6.51712 306.908 6.38758C307.107 6.30168 307.206 6.18935 307.206 6.0572C307.199 5.97406 307.171 5.89399 307.125 5.82459C307.079 5.7552 307.016 5.6988 306.941 5.66074C306.753 5.54832 306.532 5.50183 306.314 5.52858C306.097 5.52348 305.882 5.56873 305.686 5.66074C305.539 5.74932 305.433 5.89147 305.389 6.0572ZM304.926 6.25543C305.001 6.2272 305.066 6.17776 305.113 6.1132C305.159 6.04863 305.187 5.97175 305.19 5.89201C305.184 5.80887 305.156 5.72879 305.11 5.6594C305.064 5.59001 305 5.53361 304.926 5.49555C304.718 5.40427 304.493 5.35918 304.265 5.36339C304.034 5.35325 303.804 5.41064 303.605 5.52858C303.529 5.5553 303.463 5.60434 303.416 5.66923C303.369 5.73412 303.342 5.8118 303.34 5.89201C303.34 6.02416 303.426 6.1431 303.605 6.25543C303.812 6.34947 304.038 6.39468 304.265 6.38758C304.493 6.39179 304.718 6.34671 304.926 6.25543ZM305.686 6.94924C305.686 6.79726 305.587 6.67172 305.389 6.58581C305.193 6.48696 304.979 6.43065 304.761 6.42062C304.529 6.40598 304.298 6.46369 304.1 6.58581C304.024 6.61253 303.959 6.66158 303.912 6.72647C303.864 6.79135 303.838 6.86903 303.836 6.94924C303.836 7.08139 303.922 7.20033 304.1 7.31266C304.298 7.43479 304.529 7.4925 304.761 7.47786C304.982 7.48386 305.199 7.42653 305.389 7.31266C305.587 7.20033 305.686 7.08139 305.686 6.94924ZM301.721 5.1982C301.646 5.22491 301.58 5.27396 301.533 5.33885C301.486 5.40374 301.459 5.48141 301.457 5.56162C301.462 5.63672 301.486 5.70936 301.526 5.77286C301.567 5.83636 301.622 5.88869 301.688 5.92505C301.89 6.0369 302.118 6.09385 302.349 6.09024C302.567 6.07387 302.779 6.01789 302.977 5.92505C303.149 5.81272 303.241 5.69377 303.241 5.56162C303.24 5.48554 303.218 5.41125 303.177 5.34706C303.136 5.28288 303.078 5.23132 303.01 5.1982C302.807 5.08503 302.581 5.0174 302.349 4.99997C302.125 5.00603 301.908 5.0747 301.721 5.1982ZM302.118 7.14747C302.317 7.26542 302.547 7.32281 302.779 7.31266C302.999 7.31358 303.215 7.25661 303.406 7.14747C303.475 7.11435 303.533 7.06279 303.574 6.9986C303.614 6.93442 303.637 6.86013 303.638 6.78405C303.638 6.63207 303.572 6.49991 303.373 6.38758C303.167 6.29191 302.94 6.24662 302.713 6.25543C302.506 6.24771 302.301 6.29322 302.118 6.38758C301.92 6.51974 301.82 6.65189 301.82 6.78405C301.834 6.9162 301.939 7.03514 302.118 7.14747ZM301.292 7.08139C301.059 7.06104 300.827 7.1192 300.631 7.24658C300.453 7.35891 300.367 7.47786 300.367 7.61001C300.367 7.74216 300.367 7.88753 300.598 7.97343C300.798 8.09138 301.027 8.14877 301.259 8.13863C301.469 8.14735 301.678 8.08955 301.854 7.97343C302.052 7.88753 302.151 7.76199 302.151 7.61001C302.147 7.53027 302.12 7.45338 302.073 7.38882C302.026 7.32425 301.961 7.27482 301.887 7.24658C301.707 7.13866 301.501 7.08156 301.292 7.08139ZM301.457 6.09024C301.249 5.99341 301.025 5.93733 300.796 5.92505C300.565 5.92143 300.338 5.97839 300.136 6.09024C299.957 6.20257 299.878 6.32151 299.904 6.45366C299.906 6.53387 299.933 6.61155 299.98 6.67644C300.027 6.74133 300.093 6.79037 300.169 6.81709C300.357 6.93273 300.575 6.99019 300.796 6.98228C301.024 6.99109 301.25 6.94579 301.457 6.85012C301.531 6.81206 301.595 6.75566 301.641 6.68627C301.687 6.61687 301.715 6.5368 301.721 6.45366C301.721 6.32151 301.629 6.20257 301.457 6.09024ZM304.166 7.84127C304.146 7.76685 304.108 7.69824 304.057 7.64088C304.005 7.58352 303.941 7.539 303.869 7.51089C303.691 7.39969 303.484 7.34233 303.274 7.3457C303.043 7.34208 302.815 7.39904 302.613 7.51089C302.538 7.5376 302.472 7.58665 302.425 7.65154C302.378 7.71643 302.351 7.79411 302.349 7.87431C302.349 8.00647 302.435 8.12541 302.613 8.23774C302.81 8.32975 303.024 8.37499 303.241 8.36989C303.469 8.3787 303.695 8.33341 303.902 8.23774C304.078 8.12761 304.166 7.99545 304.166 7.84127ZM301.787 8.13863C301.558 8.14886 301.334 8.20504 301.127 8.30382C301.051 8.34028 300.987 8.39628 300.94 8.466C300.894 8.53572 300.867 8.61661 300.862 8.70027C300.865 8.77181 300.888 8.84111 300.929 8.89975C300.97 8.95839 301.027 9.00386 301.094 9.03066C301.301 9.12749 301.526 9.18357 301.754 9.19585C301.976 9.20797 302.195 9.15018 302.382 9.03066C302.554 8.94476 302.646 8.83243 302.646 8.70027C302.64 8.61714 302.612 8.53706 302.566 8.46767C302.52 8.39828 302.456 8.34188 302.382 8.30382C302.203 8.19589 301.997 8.13879 301.787 8.13863ZM298.451 7.27962C298.451 7.41178 298.55 7.53072 298.748 7.64305C298.944 7.73506 299.159 7.7803 299.376 7.7752C299.592 7.77475 299.805 7.72976 300.003 7.64305C300.078 7.61481 300.143 7.56537 300.19 7.50081C300.237 7.43624 300.264 7.35937 300.268 7.27962C300.261 7.19649 300.233 7.11641 300.187 7.04702C300.141 6.97763 300.078 6.92122 300.003 6.88316C299.805 6.79645 299.592 6.75146 299.376 6.75101C299.159 6.74283 298.943 6.78822 298.748 6.88316C298.55 6.99769 298.451 7.12985 298.451 7.27962Z" fill="#DDDDDD"/>
<path fill-rule="evenodd" clip-rule="evenodd" d="M304.43 4.93438C304.486 4.91486 304.534 4.87934 304.569 4.83229C304.605 4.78524 304.625 4.72879 304.628 4.67007C304.628 4.6024 304.609 4.53618 304.574 4.47815C304.539 4.42012 304.49 4.37235 304.43 4.33969C304.257 4.24888 304.064 4.20341 303.869 4.20753C303.684 4.20494 303.502 4.25049 303.34 4.33969C303.274 4.36649 303.216 4.41196 303.175 4.4706C303.134 4.52924 303.111 4.59853 303.109 4.67007C303.109 4.7824 303.181 4.88152 303.34 4.96742C303.502 5.05661 303.684 5.10215 303.869 5.09957C304.065 5.08372 304.256 5.02748 304.43 4.93438ZM304.529 4.27361C304.597 4.31904 304.656 4.37745 304.701 4.44548C304.746 4.51352 304.778 4.58984 304.794 4.67007C304.777 4.74142 304.745 4.80815 304.699 4.86533C304.653 4.92251 304.595 4.96869 304.529 5.00046C304.337 5.13517 304.102 5.194 303.869 5.16565C303.637 5.1803 303.406 5.12258 303.208 5.00046C303.029 4.88813 302.944 4.7824 302.944 4.67007C302.948 4.58641 302.975 4.50551 303.022 4.43578C303.068 4.36606 303.132 4.31006 303.208 4.27361C303.415 4.17483 303.639 4.11865 303.869 4.10841C304.1 4.09903 304.329 4.15637 304.529 4.27361ZM305.521 6.05768C305.521 6.17001 305.593 6.26913 305.752 6.35503C305.924 6.44723 306.118 6.49279 306.313 6.48719C306.49 6.47284 306.66 6.41617 306.809 6.322C306.927 6.27007 307.021 6.17575 307.073 6.05768C307.071 5.99019 307.047 5.92523 307.005 5.87191C306.964 5.81859 306.907 5.77958 306.842 5.76034C306.68 5.67198 306.498 5.6265 306.313 5.62819C306.121 5.62236 305.93 5.65609 305.752 5.7273C305.685 5.7541 305.628 5.79958 305.587 5.85822C305.546 5.91686 305.523 5.98614 305.521 6.05768ZM305.388 6.05768C305.432 5.89196 305.539 5.7498 305.686 5.66123C305.882 5.56921 306.097 5.52397 306.313 5.52906C306.532 5.50231 306.752 5.54881 306.941 5.66123C307.015 5.69928 307.079 5.75568 307.125 5.82508C307.171 5.89447 307.199 5.97454 307.205 6.05768C307.205 6.18984 307.106 6.30217 306.908 6.38807C306.737 6.51761 306.528 6.58727 306.313 6.5863C306.081 6.56994 305.856 6.50223 305.653 6.38807C305.474 6.30217 305.388 6.18984 305.388 6.05768ZM304.265 6.322C304.45 6.32965 304.634 6.28376 304.794 6.18983C304.856 6.16156 304.912 6.12048 304.957 6.06926C305.003 6.01803 305.037 5.95781 305.058 5.89249C305.041 5.82114 305.009 5.75441 304.963 5.69723C304.918 5.64005 304.86 5.59387 304.794 5.5621C304.643 5.47767 304.47 5.44299 304.298 5.46299C304.103 5.45739 303.909 5.50294 303.736 5.59514C303.681 5.61466 303.633 5.65018 303.597 5.69723C303.562 5.74428 303.541 5.80073 303.538 5.85945C303.539 5.92712 303.558 5.99334 303.593 6.05137C303.628 6.1094 303.677 6.15717 303.736 6.18983C303.898 6.27903 304.08 6.32458 304.265 6.322ZM304.926 6.25591C304.718 6.34719 304.492 6.39228 304.265 6.38807C304.038 6.39517 303.812 6.34996 303.604 6.25591C303.426 6.14358 303.34 6.02464 303.34 5.89249C303.342 5.81228 303.368 5.7346 303.416 5.66972C303.463 5.60483 303.529 5.55578 303.604 5.52906C303.804 5.41112 304.033 5.35373 304.265 5.36387C304.492 5.35966 304.718 5.40476 304.926 5.49603C305 5.53409 305.063 5.59049 305.11 5.65988C305.156 5.72928 305.184 5.80935 305.19 5.89249C305.186 5.97223 305.159 6.04911 305.112 6.11368C305.065 6.17824 305 6.22768 304.926 6.25591ZM304.761 6.52022C304.576 6.51763 304.394 6.56319 304.232 6.65238C304.167 6.67072 304.109 6.70948 304.067 6.763C304.026 6.81651 304.002 6.88195 304.001 6.94972C304.001 7.06205 304.073 7.16117 304.232 7.24707C304.394 7.33626 304.576 7.38181 304.761 7.37922C304.945 7.38091 305.127 7.33542 305.289 7.24707C305.441 7.16117 305.521 7.06205 305.521 6.94972C305.521 6.83739 305.441 6.75149 305.289 6.68541C305.129 6.58858 304.948 6.53191 304.761 6.52022ZM301.721 5.19868C301.908 5.07518 302.125 5.00651 302.349 5.00046C302.581 5.01788 302.806 5.08551 303.01 5.19868C303.078 5.23181 303.136 5.28336 303.177 5.34755C303.218 5.41174 303.24 5.48603 303.241 5.5621C303.241 5.69426 303.148 5.8132 302.977 5.92553C302.779 6.01837 302.566 6.07436 302.349 6.09072C302.118 6.09434 301.89 6.03738 301.688 5.92553C301.622 5.88917 301.566 5.83684 301.526 5.77334C301.486 5.70984 301.462 5.6372 301.457 5.5621C301.459 5.4819 301.485 5.40422 301.532 5.33933C301.58 5.27444 301.645 5.2254 301.721 5.19868ZM305.686 6.94972C305.686 7.08188 305.587 7.20082 305.388 7.31315C305.199 7.42702 304.981 7.48434 304.761 7.47834C304.529 7.49299 304.298 7.43527 304.1 7.31315C303.921 7.20082 303.836 7.08188 303.836 6.94972C303.838 6.86952 303.864 6.79184 303.911 6.72695C303.958 6.66206 304.024 6.61302 304.1 6.5863C304.298 6.46418 304.529 6.40646 304.761 6.42111C304.979 6.43113 305.193 6.48744 305.388 6.5863C305.587 6.6722 305.686 6.79775 305.686 6.94972ZM302.349 5.09957C302.164 5.09698 301.982 5.14253 301.82 5.23172C301.754 5.25852 301.697 5.304 301.656 5.36264C301.615 5.42128 301.591 5.49057 301.589 5.5621C301.589 5.67444 301.662 5.77355 301.82 5.85945C301.982 5.94864 302.164 5.9942 302.349 5.99161C302.524 6.00269 302.698 5.95628 302.844 5.85945C302.907 5.83118 302.963 5.7901 303.008 5.73887C303.054 5.68765 303.088 5.62742 303.109 5.5621C303.092 5.49971 303.063 5.44131 303.023 5.39027C302.983 5.33923 302.934 5.29657 302.877 5.26476C302.714 5.17457 302.534 5.11837 302.349 5.09957ZM301.325 6.75149C301.39 6.72846 301.449 6.68908 301.495 6.63705C301.542 6.58503 301.574 6.52208 301.589 6.45415C301.585 6.38302 301.561 6.31443 301.52 6.25608C301.479 6.19772 301.423 6.1519 301.358 6.12376C301.191 6.05102 301.01 6.01712 300.829 6.02464C300.644 6.01583 300.46 6.0618 300.3 6.1568C300.142 6.2427 300.069 6.34182 300.069 6.45415C300.069 6.56648 300.142 6.66559 300.3 6.75149C300.462 6.84069 300.644 6.88623 300.829 6.88364C301.003 6.88205 301.173 6.83659 301.325 6.75149ZM302.118 7.14796C301.939 7.03563 301.853 6.91669 301.853 6.78453C301.853 6.65238 301.952 6.52022 302.151 6.38807C302.334 6.2937 302.539 6.24819 302.745 6.25591C302.973 6.2471 303.199 6.29239 303.406 6.38807C303.604 6.5004 303.69 6.63255 303.67 6.78453C303.669 6.86061 303.647 6.9349 303.606 6.99909C303.565 7.06328 303.508 7.11483 303.439 7.14796C303.248 7.2571 303.031 7.31406 302.811 7.31315C302.569 7.32993 302.327 7.2723 302.118 7.14796ZM302.25 6.48719C302.179 6.51168 302.117 6.5557 302.07 6.61417C302.023 6.67264 301.994 6.74316 301.985 6.81757C301.985 6.9299 302.058 7.0158 302.217 7.08188C302.378 7.17107 302.561 7.21661 302.745 7.21403C302.941 7.21814 303.134 7.17268 303.307 7.08188C303.362 7.06236 303.411 7.02684 303.446 6.97979C303.481 6.93274 303.502 6.87629 303.505 6.81757C303.501 6.74645 303.477 6.67786 303.437 6.6195C303.396 6.56114 303.339 6.51532 303.274 6.48719C303.112 6.39883 302.93 6.35334 302.745 6.35503C302.571 6.34961 302.398 6.39557 302.25 6.48719ZM301.787 7.31315C301.633 7.20255 301.448 7.14461 301.259 7.14796C301.069 7.14364 300.883 7.20168 300.73 7.31315C300.673 7.34404 300.623 7.38641 300.583 7.43759C300.543 7.48877 300.515 7.54764 300.499 7.61049C300.54 7.75086 300.635 7.86941 300.763 7.94088C300.929 8.01755 301.109 8.06238 301.292 8.07303C301.462 8.05246 301.629 8.00797 301.787 7.94088C301.897 7.85754 301.978 7.74203 302.018 7.61049C302.016 7.543 301.992 7.47804 301.95 7.42472C301.909 7.3714 301.852 7.33239 301.787 7.31315ZM304.166 7.84176C304.166 7.99153 304.067 8.12369 303.869 8.23822C303.662 8.3339 303.435 8.37918 303.208 8.37037C302.991 8.37547 302.776 8.33023 302.58 8.23822C302.402 8.12589 302.316 8.00695 302.316 7.8748C302.318 7.79459 302.344 7.71691 302.391 7.65202C302.439 7.58713 302.504 7.53809 302.58 7.51137C302.782 7.39952 303.01 7.34256 303.241 7.34618C303.451 7.34281 303.657 7.40018 303.836 7.51137C303.914 7.53503 303.984 7.57756 304.042 7.63518C304.1 7.69281 304.142 7.76377 304.166 7.84176ZM301.457 6.09072C301.629 6.20305 301.721 6.32199 301.721 6.45415C301.715 6.53729 301.687 6.61736 301.64 6.68675C301.594 6.75614 301.531 6.81254 301.457 6.8506C301.25 6.94628 301.024 6.99157 300.796 6.98276C300.575 6.99067 300.357 6.93321 300.168 6.81757C300.093 6.79085 300.027 6.74181 299.98 6.67692C299.932 6.61203 299.906 6.53435 299.904 6.45415C299.904 6.32199 299.957 6.20305 300.135 6.09072C300.337 5.97887 300.565 5.92191 300.796 5.92553C301.025 5.93781 301.249 5.99389 301.457 6.09072ZM301.292 7.08188C301.512 7.07588 301.73 7.1332 301.919 7.24707C301.994 7.2753 302.059 7.32474 302.106 7.3893C302.153 7.45387 302.18 7.53075 302.184 7.61049C302.184 7.76247 302.085 7.88802 301.886 7.97392C301.71 8.09004 301.502 8.14783 301.292 8.13911C301.06 8.14925 300.83 8.09186 300.631 7.97392C300.433 7.88802 300.353 7.76247 300.4 7.61049C300.446 7.45852 300.485 7.3594 300.664 7.24707C300.85 7.1267 301.07 7.06884 301.292 7.08188ZM303.769 8.17214C303.835 8.14401 303.891 8.09819 303.932 8.03983C303.973 7.98147 303.997 7.91288 304.001 7.84176C303.996 7.77932 303.975 7.71913 303.941 7.66704C303.906 7.61494 303.858 7.5727 303.803 7.54441C303.629 7.45361 303.436 7.40814 303.241 7.41226C303.055 7.42937 302.875 7.48567 302.712 7.57745C302.554 7.64353 302.481 7.72942 302.481 7.84176C302.499 7.90828 302.533 7.96971 302.578 8.02128C302.624 8.07284 302.681 8.11317 302.745 8.13911C302.894 8.23073 303.066 8.27667 303.241 8.27126C303.423 8.29383 303.608 8.25919 303.769 8.17214ZM302.316 8.37037C302.141 8.28399 301.949 8.23879 301.754 8.23822C301.58 8.23281 301.407 8.27876 301.259 8.37037C301.1 8.45627 301.027 8.55539 301.027 8.66772C301.032 8.73016 301.053 8.79035 301.087 8.84245C301.122 8.89454 301.17 8.93678 301.226 8.96507C301.398 9.05727 301.592 9.10283 301.787 9.09722C301.972 9.09891 302.154 9.05343 302.316 8.96507C302.448 8.87917 302.514 8.78666 302.514 8.70076C302.522 8.63156 302.507 8.56173 302.471 8.50202C302.435 8.44231 302.381 8.39605 302.316 8.37037ZM301.787 8.13911C302.008 8.13311 302.226 8.19043 302.415 8.3043C302.489 8.34236 302.552 8.39876 302.599 8.46815C302.645 8.53755 302.673 8.61762 302.679 8.70076C302.679 8.83291 302.587 8.94524 302.415 9.03114C302.228 9.15067 302.009 9.20846 301.787 9.19633C301.558 9.18405 301.334 9.12797 301.126 9.03114C301.06 9.00434 301.003 8.95887 300.962 8.90023C300.921 8.84159 300.898 8.7723 300.895 8.70076C300.9 8.61709 300.927 8.5362 300.973 8.46648C301.02 8.39676 301.084 8.34076 301.159 8.3043C301.356 8.2097 301.569 8.15363 301.787 8.13911ZM298.814 6.94972C298.758 6.97801 298.71 7.02025 298.676 7.07235C298.641 7.12444 298.62 7.18463 298.615 7.24707C298.618 7.31861 298.641 7.38789 298.682 7.44653C298.723 7.50517 298.78 7.55065 298.847 7.57745C298.995 7.66907 299.168 7.71502 299.342 7.7096C299.538 7.71372 299.731 7.66826 299.904 7.57745C299.994 7.51037 300.063 7.41856 300.102 7.31315C300.102 7.18099 300.01 7.06866 299.838 6.98276C299.689 6.89115 299.517 6.84519 299.342 6.8506C299.161 6.84706 298.981 6.8808 298.814 6.94972ZM298.45 7.28011C298.45 7.12593 298.549 6.99377 298.748 6.88364C298.943 6.7887 299.158 6.74332 299.375 6.75149C299.591 6.75194 299.805 6.79693 300.003 6.88364C300.077 6.9217 300.141 6.97811 300.187 7.0475C300.233 7.1169 300.261 7.19697 300.267 7.28011C300.264 7.35985 300.236 7.43672 300.19 7.50129C300.143 7.56585 300.078 7.6153 300.003 7.64353C299.805 7.73025 299.591 7.77523 299.375 7.77568C299.159 7.78078 298.944 7.73555 298.748 7.64353C298.53 7.5312 298.45 7.41226 298.45 7.28011ZM288.341 27.6318C288.23 27.5771 288.107 27.5542 287.984 27.5659C287.862 27.5776 287.745 27.6233 287.647 27.6979L277.768 33.4466C277.462 33.644 277.211 33.9171 277.041 34.2395C276.834 34.5417 276.72 34.8975 276.711 35.2637C276.704 35.393 276.731 35.5219 276.789 35.6378C276.847 35.7536 276.934 35.8524 277.041 35.9244C277.158 35.9778 277.286 35.9998 277.414 35.9882C277.541 35.9766 277.663 35.9319 277.768 35.8584L287.647 30.1097C287.956 29.9305 288.208 29.667 288.374 29.3498C288.563 29.0292 288.665 28.6648 288.671 28.2926C288.681 28.1628 288.656 28.0326 288.598 27.9161C288.54 27.7996 288.451 27.7013 288.341 27.6318ZM287.647 27.5657C287.759 27.4811 287.893 27.43 288.034 27.4183C288.174 27.4066 288.315 27.4348 288.44 27.4996C288.563 27.5762 288.664 27.6834 288.734 27.8108C288.803 27.9382 288.838 28.0814 288.836 28.2265C288.826 28.6488 288.7 29.0602 288.473 29.4159C288.285 29.7753 287.998 30.0734 287.647 30.2749L277.768 36.0236C277.649 36.1083 277.51 36.1592 277.364 36.1708C277.219 36.1825 277.073 36.1544 276.942 36.0896C276.815 36.0111 276.714 35.8977 276.649 35.763C276.585 35.6283 276.56 35.4779 276.579 35.3298C276.589 34.9178 276.715 34.5171 276.942 34.1734C277.139 33.8209 277.424 33.5251 277.768 33.3144L287.647 27.5657ZM260.72 41.6731C260.834 41.5861 260.968 41.531 261.11 41.5136C261.252 41.4962 261.396 41.517 261.527 41.574L261.579 41.6071C261.717 41.6908 261.826 41.8149 261.891 41.9627C261.956 42.1105 261.974 42.2747 261.943 42.433C261.929 42.8753 261.804 43.307 261.579 43.6885C261.369 44.0705 261.061 44.3898 260.687 44.6136C260.565 44.7166 260.415 44.7811 260.256 44.7987C260.098 44.8164 259.937 44.7864 259.795 44.7127C259.666 44.6282 259.564 44.5089 259.499 44.3686C259.435 44.2283 259.412 44.0727 259.432 43.9198C259.443 43.4561 259.568 43.0024 259.795 42.5982C259.804 42.5792 259.815 42.5614 259.828 42.5454C260.049 42.1854 260.356 41.8858 260.72 41.6731ZM261.447 41.8383C261.366 41.7942 261.275 41.7714 261.183 41.7723C261.017 41.7862 260.858 41.8431 260.72 41.9374C260.547 42.0323 260.391 42.1551 260.258 42.3009C260.144 42.4215 260.044 42.5545 259.96 42.6973C259.768 43.0284 259.665 43.4044 259.663 43.7876C259.636 43.9198 259.65 44.0571 259.703 44.1811C259.756 44.3052 259.846 44.41 259.96 44.4814C260.159 44.6136 260.397 44.5805 260.687 44.3823C261.007 44.1903 261.269 43.9166 261.447 43.5894C261.634 43.2796 261.736 42.9266 261.745 42.5652C261.77 42.4283 261.755 42.287 261.703 42.1581C261.65 42.0293 261.561 41.9183 261.447 41.8383ZM257.218 44.0519C257.051 43.9657 256.863 43.9291 256.675 43.9467C256.488 43.9643 256.309 44.0352 256.161 44.151C255.698 44.414 255.32 44.8037 255.071 45.2743C254.808 45.7093 254.667 46.2067 254.661 46.7148C254.648 46.9023 254.681 47.0901 254.755 47.2626C254.83 47.435 254.945 47.5871 255.091 47.706C255.264 47.792 255.457 47.8283 255.65 47.8108C255.842 47.7933 256.026 47.7227 256.181 47.6068C256.612 47.3259 256.965 46.9392 257.205 46.4835C257.489 46.0358 257.659 45.5254 257.701 44.9968C257.711 44.8108 257.671 44.6254 257.587 44.4595C257.502 44.2935 257.375 44.153 257.218 44.0519ZM257.417 43.6885C257.483 43.7274 257.543 43.7765 257.595 43.8339C257.721 43.9686 257.817 44.1282 257.877 44.3023C257.937 44.4764 257.96 44.6612 257.945 44.8448C257.928 45.4755 257.746 46.0907 257.417 46.6289C257.115 47.1677 256.684 47.6222 256.161 47.9505C255.978 48.0855 255.761 48.169 255.535 48.1923C255.308 48.2155 255.08 48.1776 254.873 48.0826C254.683 47.9532 254.532 47.7733 254.439 47.5632C254.346 47.353 254.313 47.121 254.344 46.8932C254.368 46.4042 254.491 45.9252 254.707 45.4858C254.754 45.3867 254.813 45.2809 254.873 45.1752C255.168 44.6325 255.601 44.1769 256.128 43.8537C256.303 43.7026 256.518 43.6064 256.747 43.577C256.977 43.5477 257.209 43.5864 257.417 43.6885ZM289.86 166.757C289.394 166.75 288.936 166.877 288.539 167.12L276.724 173.959C276.078 174.316 275.541 174.844 275.174 175.485C274.807 176.126 274.623 176.855 274.643 177.593V181.525C274.595 182.006 274.724 182.487 275.006 182.879C274.517 182.767 274.266 182.265 274.246 181.36L274.213 177.725V177.56L274.246 177.362V177.296C274.294 176.585 274.508 175.896 274.869 175.282C275.23 174.669 275.73 174.148 276.328 173.761C276.399 173.688 276.476 173.622 276.559 173.563L276.691 173.497H276.724L288.222 166.856C289.034 166.44 289.57 166.407 289.86 166.757ZM288.274 176.074L288.572 175.908C289.224 175.555 289.766 175.029 290.139 174.388C290.512 173.747 290.702 173.016 290.686 172.274V171.911V168.343H290.6L290.633 167.88C290.671 167.293 290.508 166.71 290.171 166.228C290.766 166.36 291.063 166.988 291.063 168.111V172.043C291.099 172.928 290.883 173.806 290.438 174.573C289.993 175.339 289.339 175.963 288.552 176.371L276.724 183.21C275.753 183.758 275.072 183.824 274.676 183.408C275.249 183.455 275.82 183.303 276.295 182.979L288.274 176.074Z" fill="#FDFDFD"/>
<path fill-rule="evenodd" clip-rule="evenodd" d="M287.23 36.0562L242.582 61.8262V49.3047C242.592 48.2931 242.818 47.2953 243.243 46.3775C243.397 46.0444 243.569 45.7202 243.758 45.4061C244.44 44.1524 245.444 43.1031 246.666 42.3666L313.668 3.44729C314.813 2.78652 315.771 2.68741 316.542 3.14994C316.939 3.38271 317.262 3.72382 317.473 4.13337C317.684 4.54293 317.773 5.00399 317.731 5.46264C317.749 5.52745 317.76 5.59386 317.765 5.66087V18.3939L287.23 36.0562ZM317.824 113.3C317.824 113.267 317.824 113.241 317.778 113.214V62.8967V62.1368L317.824 113.3ZM287.647 27.5654L277.768 33.3141C277.424 33.5248 277.139 33.8206 276.942 34.1731C276.715 34.5167 276.589 34.9175 276.579 35.3294C276.56 35.4776 276.585 35.6279 276.649 35.7626C276.713 35.8974 276.815 36.0107 276.942 36.0893C277.073 36.1541 277.219 36.1821 277.364 36.1705C277.51 36.1588 277.649 36.1079 277.768 36.0232L287.647 30.2745C287.998 30.073 288.285 29.7749 288.473 29.4155C288.7 29.0598 288.826 28.6484 288.836 28.2261C288.838 28.081 288.803 27.9378 288.734 27.8104C288.664 27.683 288.563 27.5758 288.44 27.4993C288.315 27.4344 288.174 27.4062 288.034 27.4179C287.893 27.4296 287.759 27.4807 287.647 27.5654ZM282.096 166.624L315.135 147.541L316.212 146.933L317.765 146.041V127.441L317.831 127.553L317.864 157.671C317.863 158.075 317.823 158.477 317.745 158.873C317.542 159.826 317.18 160.737 316.674 161.569C316.406 162.047 316.097 162.5 315.749 162.924C315.181 163.577 314.512 164.135 313.767 164.576L311.216 166.162L246.745 203.561C246.335 203.805 245.889 203.984 245.424 204.09C244.895 204.208 244.342 204.126 243.871 203.859C243.078 203.416 242.681 202.583 242.681 201.348V189.454L249.573 185.489L260.423 179.225L282.096 166.624ZM260.72 41.6728C260.356 41.8854 260.049 42.1851 259.828 42.545C259.815 42.5611 259.804 42.5788 259.795 42.5979C259.568 43.002 259.443 43.4558 259.432 43.9194C259.412 44.0724 259.435 44.228 259.499 44.3682C259.564 44.5085 259.666 44.6278 259.795 44.7123C259.937 44.7861 260.098 44.816 260.256 44.7984C260.415 44.7807 260.565 44.7163 260.687 44.6132C261.061 44.3894 261.369 44.0701 261.579 43.6881C261.804 43.3067 261.929 42.875 261.943 42.4327C261.974 42.2743 261.956 42.1101 261.891 41.9624C261.826 41.8146 261.717 41.6904 261.579 41.6067L261.526 41.5737C261.395 41.5167 261.252 41.4958 261.11 41.5132C260.968 41.5307 260.834 41.5858 260.72 41.6728ZM257.416 43.6551C257.212 43.5486 256.981 43.5043 256.752 43.5278C256.523 43.5513 256.306 43.6415 256.128 43.7872C255.601 44.1104 255.168 44.5661 254.873 45.1088C254.813 45.2145 254.754 45.3202 254.707 45.4193C254.491 45.8588 254.368 46.3377 254.344 46.8268C254.313 47.0546 254.346 47.2866 254.439 47.4967C254.532 47.7068 254.682 47.8867 254.873 48.0162C255.08 48.1112 255.308 48.1491 255.535 48.1259C255.761 48.1026 255.978 48.0191 256.161 47.884C256.684 47.5557 257.115 47.1013 257.416 46.5625C257.746 46.0242 257.928 45.4091 257.945 44.7784C257.96 44.5948 257.937 44.41 257.877 44.2359C257.817 44.0618 257.721 43.9022 257.595 43.7674C257.539 43.7333 257.479 43.7066 257.416 43.6881V43.6551ZM275.026 182.846C274.744 182.454 274.615 181.972 274.663 181.492V177.56C274.643 176.822 274.827 176.092 275.194 175.451C275.561 174.81 276.097 174.283 276.744 173.926L288.572 167.087C288.969 166.843 289.427 166.717 289.893 166.723C290.166 167.12 290.294 167.598 290.257 168.078V171.976C290.276 172.723 290.089 173.461 289.716 174.108C289.343 174.755 288.798 175.286 288.142 175.644L276.314 182.45C275.938 182.719 275.489 182.868 275.026 182.879V182.846ZM290.191 166.195C289.794 165.778 289.107 165.845 288.142 166.393L276.314 173.232C275.525 173.637 274.868 174.26 274.423 175.027C273.978 175.794 273.763 176.674 273.804 177.56V181.458C273.804 182.602 274.101 183.243 274.696 183.375C275.092 183.791 275.773 183.725 276.744 183.176L288.572 176.338C289.359 175.93 290.013 175.306 290.458 174.539C290.902 173.773 291.119 172.895 291.083 172.009V168.144C291.083 166.999 290.785 166.36 290.191 166.228V166.195ZM290.653 171.877V172.241C290.669 172.982 290.479 173.714 290.106 174.355C289.733 174.996 289.191 175.522 288.539 175.875L288.241 176.04C288.981 175.637 289.597 175.039 290.022 174.311C290.448 173.583 290.666 172.753 290.653 171.91V171.877Z" fill="#F3F3F3"/>
<path fill-rule="evenodd" clip-rule="evenodd" d="M315.148 147.541L316.225 146.9V146.933L315.148 147.541Z" fill="#303E48"/>
<path fill-rule="evenodd" clip-rule="evenodd" d="M261.447 41.8376C261.561 41.9175 261.65 42.0285 261.703 42.1574C261.755 42.2862 261.77 42.4275 261.745 42.5644C261.736 42.9259 261.634 43.2788 261.447 43.5886C261.269 43.9158 261.007 44.1895 260.688 44.3816C260.397 44.5798 260.159 44.6128 259.961 44.4807C259.846 44.4092 259.756 44.3044 259.703 44.1804C259.65 44.0564 259.636 43.919 259.663 43.7868C259.665 43.4036 259.768 43.0277 259.961 42.6966C260.045 42.5537 260.144 42.4208 260.258 42.3001C260.391 42.1543 260.547 42.0315 260.721 41.9367C260.858 41.8424 261.017 41.7854 261.183 41.7715C261.275 41.7707 261.366 41.7934 261.447 41.8376Z" fill="#626163"/>
<path fill-rule="evenodd" clip-rule="evenodd" d="M242.186 196.953V201.413C242.186 202.62 242.55 203.446 243.276 203.891L239.081 201.48L239.015 201.413L238.816 201.314V201.281L241.525 196.59L242.186 196.953Z" fill="#C2C3D0"/>
<path fill-rule="evenodd" clip-rule="evenodd" d="M290.191 166.227C290.528 166.71 290.691 167.292 290.653 167.879L290.62 168.342H290.653V171.91C290.675 172.755 290.465 173.59 290.045 174.324C289.626 175.058 289.014 175.663 288.275 176.073L276.315 182.978C275.84 183.303 275.269 183.454 274.696 183.407C274.101 183.275 273.804 182.634 273.804 181.491V177.593C273.763 176.706 273.978 175.827 274.423 175.06C274.869 174.292 275.525 173.669 276.315 173.265L288.142 166.426C289.107 165.877 289.794 165.811 290.191 166.227ZM275.026 182.879C275.485 182.878 275.934 182.74 276.315 182.482L288.142 175.676C288.798 175.319 289.343 174.788 289.716 174.14C290.089 173.493 290.276 172.756 290.257 172.009V168.111C290.294 167.631 290.166 167.153 289.893 166.756C289.603 166.406 289.067 166.439 288.275 166.855L276.724 173.496L276.592 173.562C276.51 173.621 276.432 173.688 276.361 173.76C275.763 174.147 275.263 174.668 274.902 175.282C274.541 175.895 274.328 176.585 274.279 177.295V177.361L274.246 177.56V177.725L274.279 181.359C274.286 182.264 274.537 182.766 275.026 182.879Z" fill="#B4B5C2"/>
<path fill-rule="evenodd" clip-rule="evenodd" d="M299.455 66.7948L296.964 64.6341C296.77 64.4879 296.593 64.3218 296.435 64.1385C295.214 63.0677 293.751 62.3083 292.173 61.9249C289.768 61.4844 286.915 61.8148 283.616 62.9161C278.198 64.8147 273.176 68.4269 268.55 73.7527C263.877 79.149 261.024 84.6554 259.994 90.2719C259.135 94.981 259.663 98.6483 261.579 101.274C261.974 101.868 262.452 102.403 263 102.86C263.262 103.101 263.55 103.311 263.859 103.487L266.304 105.648C262.978 105.754 260.247 104.824 258.11 102.86C255.908 100.785 254.762 98.0139 254.674 94.5471C254.649 92.6735 254.86 90.8043 255.302 88.9834C256.729 82.7898 260.077 76.8539 265.346 71.1757C266.886 69.505 268.535 67.9378 270.282 66.4842C273.844 63.4897 277.959 61.2223 282.394 59.8105C288.446 57.9427 293.116 58.5264 296.402 61.5615C297.92 62.9613 298.984 64.7843 299.455 66.7948Z" fill="#3685DA"/>
<path fill-rule="evenodd" clip-rule="evenodd" d="M267.989 107.122L266.304 105.648L263.859 103.487C263.55 103.311 263.262 103.101 263 102.86C262.452 102.403 261.974 101.868 261.58 101.274C259.663 98.6307 259.135 94.9635 259.994 90.272C261.025 84.6555 263.877 79.1491 268.551 73.7528C273.225 68.3565 278.246 64.7443 283.616 62.9162C286.92 61.7929 289.772 61.4625 292.173 61.925C293.752 62.3084 295.214 63.0678 296.435 64.1386C296.593 64.3219 296.771 64.488 296.964 64.6342L299.455 66.7949L301.226 68.3345C300.712 68.011 300.17 67.7346 299.607 67.5085C296.805 66.4028 293.38 66.557 289.332 67.971C288.361 68.3014 287.435 68.6318 286.557 69.0283C282.235 71.0767 278.149 74.3365 274.299 78.8077C270.154 83.5828 267.456 88.5166 266.205 93.6089C266.047 94.1397 265.926 94.6805 265.842 95.2278C265.035 99.558 265.388 103.02 266.899 105.615C267.208 106.155 267.573 106.66 267.989 107.122Z" fill="#E1327D"/>
<path fill-rule="evenodd" clip-rule="evenodd" d="M301.226 68.368C301.576 68.6323 301.939 68.8834 302.316 69.1279C302.679 69.426 303.001 69.7704 303.274 70.1521C303.769 70.7013 304.191 71.312 304.529 71.9692C305.759 74.4625 306.012 77.6893 305.289 81.6495C304.206 87.3321 301.342 92.8605 296.699 98.2348C292.114 103.521 287.092 107.122 281.634 109.038C277.819 110.36 274.57 110.569 271.887 109.666C271.071 109.393 270.294 109.015 269.575 108.543C269.416 108.43 269.277 108.325 269.145 108.212L268.65 107.783C268.413 107.58 268.192 107.359 267.989 107.122C267.573 106.66 267.208 106.155 266.899 105.616C265.383 103.021 265.031 99.5585 265.841 95.2283C265.926 94.681 266.047 94.1402 266.205 93.6094C267.46 88.5215 270.158 83.5877 274.299 78.8082C278.149 74.3326 282.235 71.0728 286.557 69.0288C287.435 68.6522 288.36 68.3019 289.332 67.9716C293.38 66.5575 296.805 66.4033 299.607 67.509C300.171 67.7457 300.713 68.0332 301.226 68.368ZM299.144 79.2046L278.627 77.817V104.512L299.144 79.2046ZM245.007 229.53L244.578 232.107L241.241 234.023L241.671 231.38L245.007 229.53ZM243.554 226.953L240.25 228.836L237.772 227.977L241.076 226.061L243.554 226.953Z" fill="#FF65A7"/>
<path fill-rule="evenodd" clip-rule="evenodd" d="M317.778 62.8968L249.553 185.423L242.662 189.388L242.582 189.441V116.254L242.615 116.208L254.674 94.5477C254.754 98.0189 255.899 100.79 258.11 102.86C260.247 104.829 262.978 105.759 266.304 105.649L267.989 107.122C268.192 107.359 268.412 107.58 268.65 107.783L269.145 108.212C269.277 108.325 269.416 108.43 269.575 108.543C270.294 109.015 271.071 109.393 271.887 109.666C274.57 110.574 277.819 110.364 281.634 109.038C287.092 107.122 292.113 103.521 296.699 98.2348C301.342 92.8649 304.206 87.3365 305.289 81.6495C306.016 77.6849 305.763 74.4581 304.529 71.9692C304.191 71.312 303.769 70.7013 303.274 70.1521C303.001 69.7703 302.678 69.426 302.316 69.1279C301.939 68.8834 301.576 68.6323 301.225 68.368L299.455 66.8284C298.983 64.8179 297.92 62.9949 296.402 61.5951C293.116 58.5556 288.446 57.9719 282.394 59.8441C277.959 61.256 273.844 63.5233 270.282 66.5179L287.23 36.1225L317.758 18.4932V62.2163L317.778 62.8968ZM306.822 95.7701L317.778 76.132V102.563L314.969 107.618C314.877 107.34 314.804 107.056 314.738 106.779C313.867 104.209 312.51 101.831 310.741 99.7744C309.531 98.348 308.222 97.0099 306.822 95.7701ZM311.005 114.701L282.096 166.605L260.403 179.159L305.798 97.6863C305.851 97.7326 305.897 97.7855 305.95 97.8383C306.915 98.8757 307.49 99.5101 307.668 99.7545C307.899 99.9978 308.071 100.292 308.168 100.613C308.266 100.934 308.287 101.274 308.23 101.605C307.11 101.987 306.184 102.794 305.653 103.851C304.816 105.217 304.067 106.076 303.406 106.428C303.813 107.644 304.491 108.751 305.388 109.666C306.292 110.561 307.241 111.41 308.23 112.21C309.217 112.968 310.145 113.801 311.005 114.701Z" fill="#6AB3FF"/>
<path fill-rule="evenodd" clip-rule="evenodd" d="M242.582 116.253V61.8589L287.23 36.0889L270.282 66.4842C268.535 67.9378 266.886 69.505 265.346 71.1757C260.06 76.8583 256.712 82.7942 255.302 88.9834C254.86 90.8043 254.649 92.6735 254.674 94.5471L242.615 116.207L242.582 116.253ZM260.423 179.159L249.573 185.423L317.798 62.8963V76.1117L307.78 94.0714L306.829 95.7695C306.241 95.2475 305.62 94.7123 304.965 94.1705C304.708 94.3722 304.526 94.6543 304.448 94.9718C304.37 95.2893 304.401 95.6237 304.536 95.9215C304.853 96.5703 305.27 97.1656 305.772 97.6858L305.415 98.3465L260.403 179.145L260.423 179.159ZM317.798 113.214L317.665 113.035C316.487 111.378 315.584 109.542 314.989 107.597L317.798 102.542V113.214ZM315.155 147.541L282.116 166.624L311.025 114.72C311.032 114.74 311.043 114.758 311.058 114.773C311.94 115.726 312.615 116.851 313.04 118.077C314.325 121.18 315.838 124.184 317.566 127.064C317.639 127.196 317.718 127.328 317.798 127.46V146.028L316.245 146.92L315.155 147.541ZM313.952 128.378L309.888 126.033C309.049 125.55 308.633 125.801 308.633 126.793V131.451C308.612 131.901 308.718 132.348 308.941 132.739C309.163 133.131 309.491 133.452 309.888 133.665L313.952 136.01C314.784 136.493 315.207 136.242 315.207 135.25V130.612C315.226 130.162 315.118 129.715 314.895 129.324C314.671 128.932 314.342 128.611 313.945 128.398L313.952 128.378Z" fill="#97CAFF"/>
<path fill-rule="evenodd" clip-rule="evenodd" d="M299.144 79.1718L278.628 104.512V77.7842L299.144 79.1718Z" fill="#E8FAFF"/>
<path fill-rule="evenodd" clip-rule="evenodd" d="M242.582 189.322H242.186H242.153V61.8594H242.186H242.562H242.582V116.254V189.322Z" fill="#CBE4FF"/>
<path fill-rule="evenodd" clip-rule="evenodd" d="M242.153 61.8593V189.322V189.454L239.741 188.066V60.4717L242.153 61.8593Z" fill="#66B1FF"/>
<path fill-rule="evenodd" clip-rule="evenodd" d="M189.456 196.755L189.721 196.557L211.493 191.766C211.767 191.688 212.002 191.512 212.154 191.271C212.237 191.165 212.292 191.04 212.315 190.907C212.338 190.775 212.328 190.639 212.286 190.511C212.267 190.376 212.219 190.247 212.145 190.133C212.07 190.019 211.972 189.922 211.856 189.85C211.74 189.775 211.61 189.725 211.474 189.702C211.337 189.679 211.198 189.685 211.064 189.718L189.126 194.575C189.029 194.598 188.939 194.643 188.862 194.707C188.391 194.952 187.967 195.276 187.606 195.665L183.113 193.055C182.792 192.894 182.493 192.695 182.221 192.46C181.989 192.264 181.807 192.015 181.692 191.733C181.647 191.538 181.647 191.334 181.692 191.139C181.991 190.545 182.479 190.068 183.08 189.784L198.093 181.095L204.648 177.309L208.07 175.326L208.169 175.28C209.024 174.741 210.012 174.452 211.023 174.446C212.033 174.441 213.024 174.718 213.885 175.247L222.277 180.104L225.264 181.835L235.175 187.551L237.917 189.137L239.041 189.797C239.966 190.346 240.435 190.888 240.461 191.416V191.529C240.401 191.903 240.2 192.241 239.9 192.473C239.634 192.701 239.347 192.9 239.041 193.068L213.898 207.572C213.05 208.111 212.067 208.4 211.062 208.406C210.057 208.412 209.07 208.134 208.216 207.605L189.456 196.755Z" fill="#0059C2"/>
<path fill-rule="evenodd" clip-rule="evenodd" d="M237.891 195.745L230.689 199.908L227.22 201.89L213.872 209.588C213.021 210.122 212.036 210.405 211.031 210.405C210.026 210.405 209.041 210.122 208.189 209.588L193.95 201.361L188.994 198.487V197.463C189.004 197.424 189.006 197.383 189.001 197.344C188.995 197.304 188.982 197.266 188.961 197.231V197.198C189.091 197.001 189.259 196.833 189.457 196.703L208.189 207.539C209.044 208.069 210.03 208.346 211.035 208.341C212.041 208.335 213.024 208.046 213.872 207.506L239.014 193.002C239.32 192.834 239.608 192.635 239.873 192.408C240.174 192.176 240.375 191.838 240.435 191.463V193.445C240.435 193.974 239.939 194.502 239.014 195.031L237.891 195.745ZM187.573 195.665C187.281 195.929 187.074 196.274 186.979 196.657C186.914 196.871 186.88 197.093 186.88 197.317L183.08 195.104C182.467 194.842 181.965 194.374 181.66 193.782C181.614 193.587 181.614 193.383 181.66 193.187V191.734C181.774 192.015 181.956 192.265 182.188 192.461C182.46 192.695 182.759 192.895 183.08 193.055L187.573 195.665Z" fill="#2186FF"/>
<path fill-rule="evenodd" clip-rule="evenodd" d="M194.016 205.887V203.99H193.95V201.843C193.954 201.838 193.958 201.833 193.96 201.828C193.962 201.822 193.964 201.816 193.964 201.81C193.964 201.804 193.962 201.797 193.96 201.792C193.958 201.786 193.954 201.781 193.95 201.777V201.446L208.189 209.673C209.041 210.207 210.025 210.49 211.031 210.49C212.036 210.49 213.02 210.207 213.872 209.673L227.219 201.975V205.774V209.309C227.127 211.869 225.508 214.06 222.363 215.884C219.147 217.756 215.237 218.692 210.634 218.692C206.031 218.692 202.11 217.756 198.872 215.884C195.652 214.034 194.022 211.809 193.983 209.21L194.016 205.887Z" fill="#00408C"/>
<path fill-rule="evenodd" clip-rule="evenodd" d="M188.994 198.539V204.75C189.006 204.886 188.985 205.023 188.933 205.149C188.881 205.276 188.8 205.388 188.697 205.477C188.607 205.581 188.495 205.665 188.369 205.722C188.244 205.779 188.108 205.808 187.97 205.807C187.832 205.804 187.697 205.773 187.572 205.716C187.448 205.659 187.335 205.578 187.243 205.477C187.137 205.388 187.053 205.276 186.996 205.15C186.939 205.025 186.91 204.888 186.912 204.75V197.647C186.911 197.536 186.9 197.425 186.879 197.316C186.88 197.092 186.913 196.87 186.979 196.655C187.074 196.273 187.281 195.928 187.573 195.664C187.934 195.275 188.358 194.951 188.829 194.706C188.906 194.643 188.996 194.598 189.093 194.574L211.03 189.717C211.165 189.684 211.304 189.679 211.441 189.701C211.577 189.724 211.707 189.774 211.823 189.85C211.939 189.922 212.037 190.018 212.111 190.132C212.186 190.246 212.234 190.375 212.253 190.51C212.295 190.638 212.305 190.774 212.282 190.907C212.259 191.039 212.203 191.164 212.121 191.27C211.969 191.511 211.734 191.688 211.46 191.766L189.721 196.556L189.456 196.755C189.259 196.884 189.091 197.053 188.961 197.25V197.283C188.981 197.318 188.995 197.356 189 197.396C189.006 197.435 189.004 197.476 188.994 197.514V198.539Z" fill="#FF0000"/>
<path fill-rule="evenodd" clip-rule="evenodd" d="M189.853 207.79C189.607 208.027 189.318 208.213 189 208.338C188.683 208.463 188.344 208.523 188.003 208.517C187.658 208.524 187.317 208.46 186.998 208.33C186.68 208.199 186.392 208.004 186.152 207.757C186.14 207.756 186.127 207.753 186.116 207.747C186.105 207.742 186.094 207.734 186.086 207.724C185.833 207.473 185.633 207.175 185.497 206.846C185.361 206.517 185.291 206.164 185.293 205.808C185.29 205.451 185.358 205.098 185.494 204.768C185.63 204.439 185.832 204.141 186.086 203.891C186.323 203.645 186.603 203.443 186.912 203.297V204.75C186.91 204.888 186.939 205.025 186.996 205.151C187.053 205.277 187.137 205.388 187.243 205.477C187.335 205.578 187.447 205.66 187.572 205.717C187.697 205.773 187.832 205.804 187.969 205.808C188.107 205.808 188.244 205.779 188.369 205.722C188.495 205.665 188.606 205.582 188.696 205.477C188.8 205.388 188.881 205.276 188.933 205.15C188.985 205.023 189.005 204.886 188.994 204.75V203.264C189.356 203.414 189.683 203.639 189.952 203.924C190.206 204.174 190.408 204.472 190.544 204.802C190.68 205.131 190.749 205.484 190.745 205.841C190.747 206.197 190.678 206.55 190.541 206.879C190.405 207.208 190.205 207.506 189.952 207.757C189.917 207.762 189.884 207.774 189.853 207.79Z" fill="#FF6B6B"/>
<path fill-rule="evenodd" clip-rule="evenodd" d="M186.153 207.79C186.393 208.037 186.681 208.232 186.999 208.363C187.317 208.493 187.659 208.557 188.003 208.55C188.344 208.557 188.683 208.496 189.001 208.371C189.318 208.246 189.608 208.06 189.853 207.823L189.933 208.266L191.142 214.959C190.346 215.546 189.399 215.894 188.413 215.964C187.155 215.996 185.918 215.634 184.878 214.926L185.043 214.001L185.638 210.697L186.153 207.79Z" fill="#990000"/>
<path fill-rule="evenodd" clip-rule="evenodd" d="M191.373 109.811L191.109 124.004L188.333 111.681L191.373 96.9125L191.637 95.624L191.373 109.811Z" fill="#C5B995"/>
<path fill-rule="evenodd" clip-rule="evenodd" d="M286.226 205.841L286.061 208.285L256.557 225.234V222.855L286.226 205.841ZM253.121 219.122L282.856 202.074L284.838 203.264L255.203 220.278L253.121 219.122ZM249.157 229.496L244.598 232.106L245.027 229.529L249.223 227.084L249.157 229.496ZM241.095 226.06L245.655 223.45L247.769 224.507L243.573 226.952L241.095 226.06Z" fill="#666591"/>
<path fill-rule="evenodd" clip-rule="evenodd" d="M256.558 225.234L249.124 229.496L249.19 227.084L249.322 227.018L256.591 222.855L256.558 225.234ZM245.622 223.45L253.122 219.122L255.137 220.278L247.736 224.507L245.622 223.45Z" fill="#E5F5FF"/>
<path fill-rule="evenodd" clip-rule="evenodd" d="M255.137 220.278L284.772 203.264L286.226 205.841L256.591 222.855L255.137 220.278ZM243.54 226.952L247.736 224.507L249.19 227.084L244.994 229.529L243.54 226.952Z" fill="#242343"/>
<path fill-rule="evenodd" clip-rule="evenodd" d="M247.736 224.507L255.137 220.278L256.591 222.855L249.322 227.018L249.19 227.084L247.736 224.507Z" fill="#C3E2FF"/>
<path fill-rule="evenodd" clip-rule="evenodd" d="M240.204 228.836L241.657 231.413L241.228 234.023L239.245 233.395L238.076 231.393L237.23 229.959L237.726 227.977L240.204 228.836Z" fill="#FFA2C9"/>
<path fill-rule="evenodd" clip-rule="evenodd" d="M286.953 201.249L293.329 200.06L289.034 204.718V204.665C289.096 203.948 288.927 203.231 288.553 202.616C288.178 202.002 287.618 201.523 286.953 201.249Z" fill="#5A6771"/>
<path fill-rule="evenodd" clip-rule="evenodd" d="M289.002 204.75L286.061 208.285L286.226 205.84L284.773 203.263L282.79 202.074L286.92 201.248C287.585 201.529 288.142 202.016 288.511 202.636C288.879 203.257 289.04 203.979 288.968 204.697L289.002 204.75Z" fill="#F7DADE"/>
<path fill-rule="evenodd" clip-rule="evenodd" d="M304.814 92.9023L303.221 95.5124L304.919 99.2061L307.41 94.6732L304.814 92.9023Z" fill="#97CAFF"/>
<path fill-rule="evenodd" clip-rule="evenodd" d="M309.73 96.966L307.589 94.3428L305.204 98.6972L301.946 108.133L310.8 115.078L315.862 105.992L309.73 96.966Z" fill="#6AB3FF"/>
<rect y="211" width="163" height="10" rx="5" fill="#C4C4C4"/>
<g clip-path="url(#clip0_3304_6719)">
<path d="M53.6749 62.01C53.6367 62.0472 53.6025 62.0883 53.5728 62.1326C53.5455 62.166 53.5209 62.2016 53.4992 62.2389C53.2746 62.4995 53.0761 62.7815 52.9065 63.0809C52.7554 63.2771 52.6291 63.4913 52.5305 63.7185L45.7211 61.5277L45.7947 59.7783L53.6749 62.01Z" fill="#4B0E2F"/>
<path d="M99.2313 119.718C91.9395 123.36 76.7511 139.476 68.0983 139.815C61.06 140.097 53.4249 125.743 54.9004 123.209C55.1334 121.766 55.3827 118.071 55.8773 116.791C58.0926 111.032 70.4403 109.667 70.5221 106.757C70.5221 106.267 70.5588 105.735 70.5956 105.171C70.6569 104.149 70.7428 103.034 70.8082 101.922C71.0044 98.5171 71.0085 95.2105 69.582 95.1492C68.4294 95.0961 67.6323 96.1343 67.0765 95.2677C66.7045 94.6914 66.6677 93.4489 67.1255 91.9979C67.1833 91.7983 67.2515 91.6018 67.3299 91.4093C67.6102 90.6754 67.9736 89.976 68.413 89.3248C69.1157 88.2651 69.9901 87.3299 71.0003 86.5577C72.6205 85.335 74.4907 84.4851 76.4773 84.0685C76.98 83.9582 77.4705 83.8642 77.9405 83.7783C78.5209 83.6843 79.0727 83.5985 79.6081 83.5372C82.2368 83.1657 84.9124 83.3045 87.4885 83.9459C88.1727 84.1141 88.8352 84.361 89.4626 84.6816C89.4626 84.6816 88.8986 85.1353 88.3386 86.9828C88.0133 88.1127 87.7755 89.266 87.6274 90.4325C87.3748 92.9298 87.2575 95.439 87.2759 97.949C87.2759 99.7883 87.2759 101.591 87.3413 103.013C87.3407 103.936 87.4145 104.857 87.562 105.768C88.3795 108.376 89.8509 108.02 91.7147 109.778C93.7298 111.65 97.8907 115.23 99.2313 119.718Z" fill="#F9A0A9"/>
<g style="mix-blend-mode:multiply" opacity="0.6">
<path d="M87.0764 86.2314C87.0069 86.7546 87.4851 86.9589 88.3352 86.9712C88.0099 88.1011 87.7722 89.2544 87.6241 90.4209C87.3714 92.9182 87.2541 95.4274 87.2726 97.9374C84.653 99.5519 81.7988 100.75 78.8118 101.489C76.1939 102.127 73.4804 102.274 70.8089 101.923C71.0051 98.5178 71.0092 95.2112 69.5827 95.1499C68.4301 95.0968 67.6331 96.1349 67.0772 95.2684C66.7052 94.6921 66.6684 93.4496 67.1262 91.9986C68.7203 91.3487 69.7707 91.0013 69.035 90.9727C68.2993 90.9441 67.8088 91.2997 67.3306 91.41C67.1795 91.467 67.0126 91.4665 66.8619 91.4084C66.7111 91.3504 66.587 91.2389 66.5131 91.0953C65.9286 90.1838 66.1862 87.617 67.8538 85.136C68.5566 84.0751 69.4326 83.1398 70.4451 82.3689C72.0655 81.1482 73.9359 80.301 75.9221 79.8879C76.4248 79.7694 76.9112 79.6754 77.3853 79.5936C77.9617 79.4955 78.5216 79.4097 79.053 79.3525C85.5927 78.58 88.9034 80.5092 88.9034 80.5092C88.9034 80.5092 88.1186 81.1427 87.4769 83.9629C87.3379 84.576 87.199 85.3485 87.0764 86.2314Z" fill="#E5C5BD"/>
</g>
<g style="mix-blend-mode:multiply" opacity="0.6">
<path d="M69.6514 111.982C70.4689 111.532 74.1229 113.755 73.7387 114.209C73.3545 114.663 70.0602 113.138 69.2427 112.983C68.4252 112.828 69.022 112.325 69.6514 111.982Z" fill="#E5A898"/>
</g>
<g style="mix-blend-mode:multiply" opacity="0.6">
<path d="M85.7271 111.855C84.7134 111.401 80.1438 113.62 80.5975 114.074C81.0512 114.528 85.1753 113.011 86.1971 112.848C87.2189 112.684 86.4914 112.198 85.7271 111.855Z" fill="#E5A898"/>
</g>
<path d="M113.901 72.8543C112.622 78.6215 107.864 82.202 105.919 83.2034C105.186 83.5652 104.384 83.7645 103.567 83.7878C102.75 83.8111 101.938 83.6577 101.186 83.3382C100.556 82.9826 99.0561 80.9472 98.5656 81.4622C98.0752 81.9772 92.2507 89.0605 88.6294 91.8603C79.2899 99.0743 70.7352 97.8032 69.1738 97.558C65.532 96.9939 57.7294 91.7377 52.7429 84.1271C52.6407 83.98 52.5508 83.8287 52.4486 83.6775C49.8531 79.6147 48.9989 74.5465 48.9826 71.9633C48.9793 71.6093 49.0012 71.2556 49.048 70.9047C49.2993 69.706 49.6241 68.5239 50.0207 67.3651C50.409 66.0571 50.7074 64.7042 50.5357 63.5557C50.1842 61.2791 49.3668 57.1673 49.3096 54.6086C49.2523 52.05 48.9008 44.2432 53.3233 37.8507C57.7457 31.4581 64.9598 25.691 74.1685 26.0384C83.3772 26.3858 100.327 32.578 103.695 40.6832C107.063 48.7883 102.645 62.1415 102.105 63.8827C101.566 65.6239 102.256 68.5504 103.528 66.8378C104.799 65.1252 105.036 61.696 109.834 62.5461C113.043 63.0979 115.172 67.0871 113.901 72.8543Z" fill="#FEAEB4"/>
<path d="M94.1267 53.0148C93.763 53.3459 90.9059 49.7449 87.8077 48.4574C84.7096 47.1699 81.9833 46.9738 80.2013 47.2599C78.0105 47.6155 77.4423 47.2108 77.4914 46.5364C77.5404 45.862 79.1263 44.2598 83.2708 44.7544C87.4971 45.253 89.7206 47.1332 91.5068 48.5801C93.0681 49.8512 94.6499 52.5366 94.1267 53.0148Z" fill="#B7516F"/>
<g style="mix-blend-mode:multiply">
<path d="M49.6239 38.1895C49.4931 38.5247 48.8064 41.4593 48.8064 41.4593L50.0816 43.5602C50.0816 43.5602 52.7343 37.4293 57.8475 34.3434C57.8475 34.3434 61.4811 37.1145 65.7115 33.8856C65.7115 33.8856 67.2074 36.199 71.1721 36.5096C75.1368 36.8203 76.1218 35.1281 76.1218 35.1281C77.5279 35.8782 79.1026 36.2558 80.6959 36.2251C82.2892 36.1943 83.8482 35.7562 85.2242 34.9524C85.2242 34.9524 92.1113 36.0437 92.3034 42.191C92.4669 47.4309 87.366 51.3016 86.5158 52.5155C85.6657 53.7294 91.6699 51.698 94.2817 49.4378C96.8935 47.1775 98.6878 43.5439 98.6878 43.5439L99.6892 36.0805C99.6892 36.0805 73.04 22.4902 71.2089 22.7518C69.3778 23.0134 49.6239 38.1895 49.6239 38.1895Z" fill="#E5C5BD"/>
</g>
<path opacity="0.6" d="M92.7938 85.0701C97.403 82.5225 99.6434 77.7506 97.798 74.4118C95.9526 71.0729 90.7201 70.4314 86.1108 72.979C81.5016 75.5266 79.2611 80.2985 81.1065 83.6374C82.952 86.9762 88.1845 87.6177 92.7938 85.0701Z" fill="url(#paint0_radial_3304_6719)"/>
<path opacity="0.6" d="M52.7429 84.1224C52.6407 83.9752 52.5508 83.824 52.4486 83.6728C49.8531 79.61 48.9989 74.5417 48.9826 71.9586C48.9793 71.6046 49.0012 71.2508 49.048 70.9C49.2993 69.7012 49.6241 68.5191 50.0207 67.3604C52.8819 68.3617 55.5182 71.2719 56.5604 74.8851C57.8193 79.4097 56.1394 83.4153 52.7429 84.1224Z" fill="url(#paint1_radial_3304_6719)"/>
<path d="M103.85 70.9534C104.578 69.9538 105.399 69.0259 106.303 68.1822C107.378 67.2094 109.053 67.0377 110.202 68.5419C111.269 69.952 110.905 72.5025 111.187 71.9834C112.282 70.0051 111.489 66.8947 109.76 66.1385C107.766 65.2475 106.491 65.7298 105.007 67.2911C104.368 68.0657 103.82 68.9104 103.372 69.8089C102.473 71.6278 102.342 72.6782 103.85 70.9534Z" fill="#CB6275"/>
<path d="M132.22 57.686C131.971 59.3618 130.712 62.6439 130.994 63.7556C130.884 63.5758 130.422 63.1875 130.009 61.2092C129.798 60.3339 129.416 59.5089 128.885 58.7814C128.292 57.7963 126.886 56.6928 126.359 56.3004C126.294 56.2513 126.228 56.1982 126.151 56.1451C126.151 56.1655 126.878 62.648 125.954 65.6848C124.491 70.4874 120.731 74.8404 117.404 78.0734C114.077 81.3065 113.194 84.9074 114.048 90.5029C111.878 87.9483 110.488 86.4156 111.538 83.1989C110.484 88.6187 103.948 92.3463 94.2738 92.661C91.6865 92.7469 88.4575 94.4635 87.17 96.3191L87.3212 92.8204C89.8597 90.814 92.2313 88.6051 94.4127 86.2153C97.8747 82.3937 98.7739 80.0844 99.6894 80.2683C100.605 80.4522 101.059 81.6253 103.388 81.8501C105.816 82.0913 108.681 80.9264 111.735 76.1524C114.788 71.3784 114.502 67.6345 113.325 65.4355C112.867 64.5699 112.179 63.8477 111.336 63.3486C110.494 62.8495 109.53 62.5929 108.551 62.6071C107.641 62.6315 106.76 62.9355 106.029 63.4777C105.799 63.6464 105.588 63.8397 105.399 64.054C105.346 64.1112 105.305 64.1684 105.256 64.2216C105.219 64.2597 105.185 64.3007 105.154 64.3442C105.127 64.3776 105.102 64.4131 105.081 64.4505C104.855 64.71 104.656 64.9922 104.488 65.2924C104.338 65.4901 104.21 65.704 104.108 65.9301C104.055 66.0276 104.022 66.1345 104.01 66.2448C103.294 71.7545 101.557 74.3622 101.063 75.3636C100.568 76.3649 99.9796 76.7042 99.6894 76.4181C99.3992 76.132 100.041 75.2736 100.012 71.6727C99.9878 68.8116 99.3747 68.5337 99.4482 65.7093V65.4641C99.475 64.9597 99.5323 64.4574 99.6199 63.96C99.6199 63.8742 99.6199 63.7965 99.6526 63.7107C99.6674 63.5647 99.692 63.42 99.7262 63.2774C100.507 59.3822 103.585 51.0155 98.6145 43.7074C97.9956 42.8081 97.298 41.9655 96.53 41.1896C96.4697 41.1384 96.4124 41.0838 96.3583 41.0261V41.1242C95.9076 43.6324 94.9235 46.0145 93.4726 48.1094C89.2872 53.799 84.55 53.3126 84.55 53.3126C88.6046 51.2934 89.9371 48.6776 91.3799 42.988C91.8617 40.9241 91.8365 38.7742 91.3064 36.7222C87.0842 33.7998 84.6522 33.8938 84.3784 33.9183H84.3375C84.3375 33.9183 82.3429 35.1895 80.4219 34.9892C76.7801 34.5805 76.167 33.6731 76.167 33.6731C75.4409 34.2956 74.5945 34.7621 73.6803 35.0433C72.7662 35.3246 71.804 35.4147 70.8535 35.308C67.6327 34.9442 66.2921 33.2398 65.8997 32.3447C64.7783 33.2839 63.3609 33.7964 61.8982 33.7916C59.4009 33.8243 58.0848 33.1417 58.0848 33.1417C58.0848 33.1417 54.4675 34.9565 51.9252 40.0901C49.3829 45.2238 49.0396 50.3084 49.3952 55.438C49.2807 55.4134 45.173 51.5346 45.3405 46.965C45.4999 42.3014 45.8433 41.4185 45.8433 41.4185C45.8433 41.4185 43.6116 36.105 44.9155 31.4046C45.3168 29.9241 46.0244 28.5443 46.9925 27.3545C47.9606 26.1646 49.1676 25.1912 50.5355 24.4971C50.9489 24.2824 51.3747 24.0927 51.8108 23.929V23.9085C51.4259 22.1419 51.472 20.3085 51.9451 18.5634C52.4182 16.8183 53.3044 15.2127 54.5288 13.8824C58.7878 9.1697 64.4773 7.27729 73.4817 8.30729C73.4817 8.30729 77.6875 5.06605 85.5228 5.00066C93.3582 4.93526 99.7793 9.77871 101.165 11.103C102.551 12.4273 105.052 15.5418 109.499 14.1726C108.568 15.8298 107.079 17.103 105.297 17.7653C105.297 17.7653 110.504 17.7653 113.472 20.2831C116.439 22.8009 118.377 29.6103 121.07 30.9346C121.07 30.9346 118.798 31.4332 114.906 28.7397C115.249 30.5058 116.142 32.1182 117.457 33.3461C119.705 35.5369 126.281 39.9839 129.653 45.2688C131.936 48.9797 132.845 53.374 132.22 57.686Z" fill="#9740E5"/>
<path d="M104.325 79.6793C105.223 79.6793 105.952 78.9509 105.952 78.0525C105.952 77.1541 105.223 76.4258 104.325 76.4258C103.426 76.4258 102.698 77.1541 102.698 78.0525C102.698 78.9509 103.426 79.6793 104.325 79.6793Z" fill="white"/>
<path d="M74.3443 80.8119C74.6672 81.1144 72.836 83.9837 70.4368 84.9483C68.0376 85.9129 64.8985 85.1649 63.3453 83.9224C62.0905 82.9251 61.1546 81.282 61.4652 81.1716C61.7758 81.0613 62.5974 82.5572 64.4694 83.2153C66.4582 83.851 68.6067 83.7715 70.5431 82.9905C72.7502 82.1117 73.9764 80.4441 74.3443 80.8119Z" fill="#CB6275"/>
<path d="M60.9661 46.5885C60.6841 47.1689 59.7685 47.0217 57.0995 46.9114C54.4305 46.801 53.2371 48.1376 52.1335 49.0245C51.0299 49.9115 50.5353 51.4769 50.2574 51.4279C49.9794 51.3788 50.1389 49.4333 51.5449 47.3406C52.9509 45.2479 54.8679 44.7042 57.5369 44.7574C59.6378 44.8064 61.3831 45.7424 60.9661 46.5885Z" fill="#B7516F"/>
<path d="M89.578 66.7264C89.9959 67.0156 90.4685 67.2167 90.9667 67.3171C91.465 67.4176 91.9785 67.4155 92.4759 67.3109C94.3315 67.0166 95.5086 66.3545 95.5413 65.8967C95.574 65.4389 93.6653 65.4307 93.1544 64.8095C92.6435 64.1882 93.2852 59.5532 88.0984 56.8351C84.4443 54.9223 81.0028 56.6798 79.2412 58.2371C77.4795 59.7944 76.5599 62.8108 76.7888 64.6705C77.0177 66.5302 89.578 66.7264 89.578 66.7264Z" fill="#7F2636"/>
<path d="M90.5622 66.4818C90.5622 68.1167 89.2665 72.2653 85.2977 73.2994C84.3096 73.5368 83.2819 73.5579 82.2849 73.3611C81.288 73.1643 80.3453 72.7543 79.5216 72.1592C78.6978 71.5641 78.0124 70.7979 77.5124 69.9132C77.0124 69.0286 76.7095 68.0462 76.6245 67.0336C76.1831 62.5375 79.5101 59.1573 81.938 58.4012C84.3658 57.645 90.5622 58.2459 90.5622 66.4818Z" fill="white"/>
<mask id="mask0_3304_6719" style="mask-type:luminance" maskUnits="userSpaceOnUse" x="76" y="58" width="15" height="16">
<path d="M90.6855 66.5475C90.6855 68.1824 89.2672 72.2697 85.2985 73.312C84.3104 73.5494 83.2827 73.5705 82.2857 73.3737C81.2887 73.1769 80.3461 72.7669 79.5223 72.1718C78.6986 71.5767 78.0132 70.8105 77.5131 69.9258C77.0131 69.0412 76.7102 68.0588 76.6252 67.0462C76.1838 62.5501 79.5109 59.1699 81.9387 58.4138C84.3666 57.6576 90.6855 58.2993 90.6855 66.5475Z" fill="white"/>
</mask>
<g mask="url(#mask0_3304_6719)">
<path d="M87.8109 72.8858C86.3803 73.7645 82.9061 74.2427 80.9442 71.8557C79.9213 70.5992 79.297 69.0657 79.1513 67.4519C79.0057 65.8382 79.3454 64.2177 80.1268 62.7983C81.6677 60.1865 84.4143 59.3609 86.5274 59.9372C88.6406 60.5135 91.0766 62.8228 90.8477 67.1553C90.6638 70.7726 88.5057 72.4566 87.8109 72.8858Z" fill="black"/>
</g>
<path d="M88.613 64.336C88.0898 64.8429 87.2641 63.8946 87.4767 63.1998C87.632 62.6889 88.1265 62.697 88.4862 63.0444C88.6551 63.2109 88.7602 63.4313 88.7834 63.6673C88.8065 63.9033 88.7462 64.1399 88.613 64.336Z" fill="white"/>
<path d="M53.8382 65.1043C53.6052 65.3781 52.706 66.2323 50.4621 65.28C48.2182 64.3277 47.883 63.6451 48.0097 63.547C48.8826 63.4249 49.7612 63.3471 50.642 63.314C50.642 63.314 50.5765 59.7417 52.1379 57.555C53.6992 55.3683 56.9977 54.9064 59.5277 55.8138C62.9897 57.0604 64.4039 60.8698 63.5455 63.547C62.6872 66.2242 53.8382 65.1043 53.8382 65.1043Z" fill="#7F2636"/>
<path d="M57.3815 71.7378C55.6322 71.4394 53.0654 68.5783 53.3515 64.5074C53.6376 60.4364 54.8515 57.9677 57.1567 57.1707C59.9238 56.1938 63.0997 58.4336 63.5043 62.3329C63.909 66.2322 62.27 72.5716 57.3815 71.7378Z" fill="white"/>
<mask id="mask1_3304_6719" style="mask-type:luminance" maskUnits="userSpaceOnUse" x="53" y="56" width="11" height="16">
<path d="M57.1455 71.7788C55.3675 71.415 52.8375 68.4313 53.2666 64.3236C53.6958 60.2158 55.0161 57.7839 57.3949 57.0318C60.256 56.1408 63.2193 58.3724 63.5258 62.3453C63.8324 66.3182 62.1238 72.7965 57.1455 71.7788Z" fill="white"/>
</mask>
<g mask="url(#mask1_3304_6719)">
<path d="M60.5334 71.26C57.889 71.4112 55.4897 69.1223 55.6287 65.2476C55.7636 60.9845 57.8849 58.4054 60.5907 58.622C63.6561 58.8632 65.0867 60.8823 64.584 65.08C64.1916 68.2926 63.1248 71.1169 60.5334 71.26Z" fill="black"/>
</g>
<path d="M62.0865 62.9913C61.5102 63.3428 60.893 62.3129 61.2118 61.7243C61.4448 61.2869 61.9067 61.3973 62.1846 61.7897C62.3149 61.9685 62.3766 62.1882 62.3586 62.4087C62.3406 62.6292 62.2441 62.836 62.0865 62.9913Z" fill="white"/>
<path d="M50.5071 24.4763C50.7523 29.6141 55.6489 31.5556 55.6489 31.5556C53.7024 29.3949 52.3652 26.7557 51.7742 23.9082C51.3413 24.0731 50.9182 24.2628 50.5071 24.4763Z" fill="#7D1EBF"/>
<path d="M69.7706 11.8096C69.7706 11.8096 66.0921 15.4105 64.9313 19.4365C64.2286 22.07 63.9866 24.8052 64.216 27.5212C64.216 27.5212 61.4162 22.6655 63.5702 17.4255C64.1091 16.0799 64.9476 14.8747 66.022 13.9016C67.0964 12.9285 68.3784 12.2131 69.7706 11.8096Z" fill="#7D1EBF"/>
<path d="M85.1183 27.0714C85.1183 27.0714 90.0885 20.3846 95.9702 20.123C101.766 19.8737 104.721 21.8601 106.597 22.8738C108.318 23.8057 109.458 24.8602 111.289 26.3112C111.289 26.3112 109.156 25.1259 106.327 23.9201C103.417 22.6939 99.9675 21.5372 96.4933 21.9664C93.0191 22.3955 87.0108 25.0155 85.1183 27.0714Z" fill="#7D1EBF"/>
<path d="M92.2055 29.2673C92.2055 29.2673 97.8787 31.6502 96.3582 41.0265C96.4154 41.0878 96.4727 41.1369 96.5217 41.1859C97.2955 41.9577 97.9948 42.8006 98.6103 43.7037C99.6508 41.4893 99.885 38.981 99.2725 36.6122C98.2384 32.668 95.3159 29.1774 92.2055 29.2673Z" fill="#7D1EBF"/>
<path d="M109.021 36.1133C109.021 36.1133 109.131 42.1748 112.859 44.762C116.586 47.3493 122.758 47.803 124.303 49.7649C124.303 49.7649 123.559 47.4187 120.032 46.1312C116.505 44.8437 112.462 43.2497 109.021 36.1133Z" fill="#7D1EBF"/>
<path d="M128.881 58.7814C128.289 57.8004 126.883 56.6969 126.355 56.3045C126.29 56.2513 126.22 56.1982 126.147 56.1492C125.46 55.7352 124.728 55.4019 123.964 55.156C121.258 54.1341 116.84 55.769 112.058 53.799C109.158 52.5618 106.792 50.3337 105.383 47.5127C105.571 47.7252 108.653 51.1668 113.182 52.1191C117.862 53.0919 126.314 51.3507 128.881 58.7814Z" fill="#7D1EBF"/>
<path d="M84.3539 33.9144C84.636 33.8899 87.0597 33.8041 91.3024 36.7224C91.0728 35.6601 90.7088 34.6314 90.2192 33.661C89.5039 32.3776 88.2287 31.413 86.5406 32.0261C85.6251 32.3408 84.8526 33.1992 84.3539 33.9144Z" fill="#7D1EBF"/>
<path d="M66.2553 9.60233C63.9457 10.2686 61.8164 11.4478 60.0263 13.052C57.3818 15.578 56.6706 16.6938 56.6706 16.6938C56.6706 16.6938 57.0507 13.2891 59.7156 11.3803C61.6309 10.0634 63.9369 9.43643 66.2553 9.60233Z" fill="#B65BED"/>
<path d="M91.8174 15.5007C91.8174 15.5007 84.869 12.2309 77.5732 15.3495C70.2774 18.4681 68.6302 22.3551 68.6302 22.3551C68.6302 22.3551 69.0144 19.0158 70.5553 16.543C70.5553 16.543 69.0511 18.2515 68.7487 18.8932C68.7487 18.8932 70.3387 11.863 78.2639 8.18855C86.1892 4.51406 95.6963 9.67633 98.1405 12.1982C98.1405 12.1982 86.1443 5.89558 77.0092 12.6887C77.0092 12.6887 85.1919 9.93382 91.8174 15.5007Z" fill="#B65BED"/>
<path d="M105.24 64.2219C105.202 64.26 105.168 64.301 105.138 64.3445C105.11 64.3779 105.086 64.4135 105.064 64.4508C104.838 64.7104 104.639 64.9925 104.471 65.2928C104.321 65.4905 104.194 65.7043 104.091 65.9304L97.2736 63.7396L97.3512 61.9902L105.24 64.2219Z" fill="#5B1336"/>
<path d="M90.4152 56.9342C91.787 57.1752 93.1204 57.5986 94.3799 58.1931C95.8595 58.9329 96.6279 60.5392 96.8732 63.4003C97.0489 65.4439 95.9576 69.2451 93.8853 71.8079C92.6517 73.2466 91.08 74.3564 89.3115 75.0377C87.543 75.719 85.633 75.9505 83.7529 75.7112C83.0867 75.6377 82.445 75.5396 81.8482 75.421C77.528 74.5627 75.8931 72.1921 74.814 70.4468C73.5878 68.4849 73.1791 64.1074 73.69 61.5119C74.0456 59.783 74.4747 58.8716 76.2077 57.7271C78.0429 56.5009 81.3087 55.9859 85.1671 56.2761C86.9281 56.3905 88.6805 56.6103 90.4152 56.9342ZM90.7626 55.2298C88.9576 54.8928 87.1342 54.6635 85.302 54.5431C81.5948 54.2611 77.6628 54.6616 75.2105 56.2843C72.9297 57.7925 72.3493 59.1944 71.9406 61.1686C71.3357 64.1196 71.8058 68.9345 73.2854 71.346C74.5974 73.4632 76.6042 76.1567 81.4926 77.1254C82.1303 77.2521 82.8128 77.3584 83.5363 77.4402C88.5514 77.9879 92.8512 75.8666 95.2586 72.8869C97.6661 69.9073 98.8269 65.6483 98.6225 63.2572C98.4182 60.8662 97.805 57.9437 95.1646 56.644C93.7596 55.9787 92.2725 55.5032 90.7422 55.2298H90.7626Z" fill="#5B1336"/>
<path d="M54.4594 54.985C57.4431 55.1158 59.8628 55.7534 61.2647 56.7834C62.8465 57.9442 63.1286 58.774 63.3574 60.2617C63.7294 62.6814 62.5645 68.326 61.5631 69.9078C60.0835 72.2375 58.1257 73.4147 55.7428 73.4024C55.5493 73.4024 55.3613 73.4024 55.1787 73.4024C52.052 73.2675 50.5887 72.1762 49.1173 70.2961C47.0246 67.6393 46.5055 62.6038 46.7998 60.5315C47.1145 58.3571 47.5518 56.8529 48.7657 55.9701C49.3339 55.5614 50.1105 55.0096 53.0697 54.9769C53.5356 54.9769 54.0057 54.9769 54.4594 54.9769M54.533 53.2398C54.0384 53.2398 53.5398 53.2112 53.0452 53.2152C49.5873 53.2561 48.5165 53.9755 47.7317 54.5395C45.8515 55.8802 45.3651 58.1118 45.0545 60.2617C44.7439 62.4117 45.1363 68.0481 47.7276 71.3342C49.5056 73.5904 51.4593 74.9597 55.1174 75.115H55.751C59.405 75.115 61.7143 72.961 63.0836 70.7988C64.3752 68.7552 65.536 62.6855 65.1272 59.9756C64.8493 58.165 64.3793 56.8611 62.3397 55.3611C60.4555 53.9796 57.5248 53.346 54.5452 53.2193L54.533 53.2398Z" fill="#5B1336"/>
<path d="M65.4865 66.9561C66.0424 67.0705 65.6622 69.5433 64.7058 70.8267C63.7494 72.1101 63.1281 72.6251 63.2998 73.4998C63.5136 74.4561 64.093 75.2908 64.9143 75.8255C65.6949 76.271 66.7413 76.5408 66.5492 76.9618C66.3571 77.3828 64.6527 77.158 63.1077 75.9195C61.5627 74.6811 61.5095 73.5121 61.7997 72.6497C62.0899 71.7872 63.5941 70.3444 64.2521 69.433C64.7434 68.6496 65.1568 67.82 65.4865 66.9561Z" fill="#CB6275"/>
<path d="M63.713 62.1861C64.8247 59.5417 66.9052 59.1125 68.1641 59.1166C68.8141 59.0831 69.4639 59.1849 70.0725 59.4157C70.6811 59.6465 71.2352 60.0011 71.6996 60.4572C72.1107 60.8384 72.4547 61.2861 72.7173 61.7815C72.4784 62.8561 72.3416 63.951 72.3086 65.0513C72.1281 64.9321 71.9984 64.75 71.9448 64.5404C71.8181 64.0336 71.2827 62.4396 70.5265 61.7692C70.2214 61.4537 69.8503 61.2095 69.4397 61.054C69.0292 60.8986 68.5894 60.8357 68.1518 60.87C67.7431 60.87 66.2103 60.7392 65.3193 62.8646C65.2421 63.048 65.1039 63.199 64.9281 63.2921C64.7523 63.3852 64.5497 63.4147 64.3547 63.3755C63.9623 63.1262 63.5495 62.5826 63.713 62.1861Z" fill="#5B1336"/>
<path d="M61.1017 81.0164C60.926 80.5014 60.3947 80.7058 61.3266 80.0354C62.2585 79.3651 62.6059 79.1035 65.6346 79.0177C68.0549 79.0281 70.4475 78.5018 72.6402 77.4768C74.6838 76.6021 78.3011 76.2792 79.6744 77.0681C81.0478 77.8569 80.8025 78.0776 81.2113 80.1049C81.62 82.1322 80.5737 86.2849 78.0109 88.5656C74.8228 91.4268 71.4181 91.4595 68.2014 91.1079C64.1999 90.6706 60.3456 86.7386 60.5745 82.5614L61.1017 81.0164Z" fill="#E76F83"/>
<path d="M75.8972 88.582C74.8046 89.3086 73.563 89.7807 72.2636 89.9635C66.8807 90.8055 60.2102 87.5765 60.4758 81.3352C60.5208 80.2806 61.3873 79.9332 62.6176 79.8924C63.4281 79.8843 64.2381 79.9348 65.0414 80.0436C67.4038 80.3256 70.8208 80.1049 72.7377 78.9359C74.0814 78.0928 75.5508 77.4692 77.0907 77.0885C78.1984 76.8514 79.2775 76.8514 80.1317 77.2969C80.9859 77.7424 81.3578 79.173 81.0595 80.9387C80.6507 83.3625 79.0281 86.4402 75.8972 88.582Z" fill="#550C1A"/>
<path d="M77.0911 77.0889C76.9644 77.9799 75.8649 79.4268 73.9357 80.6121C71.4465 82.153 67.1671 82.6312 64.4736 81.6626C62.9694 81.1189 62.6261 80.4078 62.6179 79.8928C63.4284 79.8847 64.2385 79.9352 65.0417 80.044C67.4042 80.326 70.8211 80.1053 72.7381 78.9363C74.0818 78.0932 75.5512 77.4696 77.0911 77.0889Z" fill="white"/>
<path d="M75.8973 88.5815C74.8048 89.3081 73.5631 89.7803 72.2638 89.963C72.0838 89.3311 72.0105 88.6735 72.0471 88.0175C72.0921 86.1128 74.0908 83.2844 76.5432 81.907C78.5255 80.7952 80.2463 80.272 81.0392 80.9383C80.6509 83.362 79.0282 86.4398 75.8973 88.5815Z" fill="#B14355"/>
<path d="M127.998 200.516C115.262 204.342 108.857 204.976 102.935 190.147C97.0123 175.318 100.752 164.544 96.8651 151.154C96.8651 151.154 95.8923 148.379 93.2928 157.927C90.6933 167.475 88.0652 173.552 90.4317 182.401C90.4317 182.401 82.5473 187.715 69.8481 186.436C57.1488 185.156 54.488 183.411 54.488 183.411C54.488 183.411 54.9212 181.776 53.2086 174.975C51.496 168.174 50.1268 153.337 50.1268 153.337C49.7504 154.448 49.4473 155.582 49.2195 156.733C48.7576 158.924 49.1213 157.228 49.1418 160.861C49.1418 162.186 49.1827 163.383 49.2154 164.479C49.2644 166.114 49.3175 167.499 49.3012 168.697C49.3012 169.216 49.2726 169.702 49.2317 170.156C49.2317 170.491 49.2685 170.822 49.2685 171.145C49.3339 178.911 44.6458 183.615 39.7533 186.967C34.8608 190.319 22.8196 190.989 16.5864 185.577C10.3533 180.166 8.41182 168.778 11.3302 162.043C14.2485 155.307 19.3086 151.6 22.6193 150.316C24.9654 149.164 29.9396 148.187 33.561 143.646C37.1823 139.105 47.0818 119.012 54.2959 115.092C58.518 112.795 65.8793 108.981 67.5142 109.055C67.5142 109.055 64.694 114.855 64.322 119.849C63.9501 124.844 64.9229 131.633 68.908 132.929C73.404 134.396 80.5772 130.068 90.7628 108.765C90.7628 108.765 93.534 109.991 99.2153 113.502C104.897 117.013 106.85 118.157 110.5 126.581C115.074 137.106 118.221 144.128 125.018 151.342C131.816 158.556 138.425 165.95 140.199 175.502C141.973 185.054 140.734 196.691 127.998 200.516Z" fill="#FF2ED2"/>
<path d="M51.4512 138.974C50.8912 142.322 50.1064 150.721 50.1146 153.349C49.7382 154.46 49.4351 155.595 49.2073 156.746C48.7905 152.132 48.9277 147.484 49.616 142.902C50.7482 135.782 52.0193 135.623 51.4512 138.974Z" fill="#DD00C4"/>
<path d="M49.2845 168.73C48.8496 166.019 47.9436 163.404 46.6074 161.005C43.9343 156.345 41.2939 155.724 41.7026 155.577C42.1114 155.43 44.715 156.341 47.5802 160.825C48.3012 161.965 48.852 163.205 49.2151 164.504C49.2478 166.135 49.3009 167.524 49.2845 168.73Z" fill="#DD00C4"/>
<path d="M167.502 241.844C162.769 243.826 157.468 239.906 154.529 238.419C151.59 236.931 148.185 236.506 145.872 236.269C143.558 236.032 143.211 237.797 143.211 237.797C142.733 239.412 146.665 242.792 148.034 245.972C149.403 249.152 147.715 250.676 147.715 250.676C147.482 249.712 144.507 245.772 142.259 244.022C140.011 242.273 137.145 239.015 134.382 236.44C134.223 236.289 134.064 236.13 133.916 235.966C132.282 234.184 131.35 231.72 130.912 230.301C130.696 229.61 130.598 229.169 130.598 229.169L117.424 198.567C117.114 196.229 118.172 193.663 122.484 192.089C128.525 189.886 130.25 192.833 130.25 192.833C130.25 192.833 135.233 217.022 137.726 224.555C138.094 225.666 138.404 226.414 138.641 226.672C139.135 227.136 139.701 227.517 140.317 227.8C143.669 229.521 150.245 231.335 151.651 232.296C153.38 233.461 151.651 232.296 153.773 233.89C155.894 235.484 167.502 241.844 167.502 241.844Z" fill="#FEAEB4"/>
<path d="M52.1011 113.245C52.1011 113.245 50.9239 114.949 51.2836 116.515C51.3334 116.782 51.4347 117.038 51.582 117.267C51.6464 117.372 51.7188 117.471 51.7986 117.565C51.7986 117.565 53.3314 117.806 53.4049 120.103C53.4744 122.237 51.2264 123.528 49.3912 125.176C49.2563 125.298 49.1173 125.421 48.9824 125.552L48.9375 126.565L48.7781 130.154C48.3414 130.16 47.9106 130.053 47.5274 129.843L47.462 129.872C47.2901 129.966 47.1236 130.07 46.9633 130.183C46.1428 130.782 45.4024 131.484 44.7603 132.271L38.9031 158.741C38.9031 158.741 36.1729 162.337 30.095 159.231C26.069 157.187 26.7353 153.86 26.7353 153.86L37.771 129.275C37.771 129.275 35.245 122.282 34.9998 120.169C34.7546 118.056 35.3595 114.855 36.5734 114.103C36.5734 114.103 38.9808 110.747 40.8692 110.249C41.642 110.036 42.401 109.775 43.1417 109.468C43.1417 109.468 43.6363 104.563 43.857 98.8412C43.9592 96.119 43.8815 93.2702 43.9878 91.3287C44.0034 91.0997 44.0935 90.8821 44.2445 90.7092C44.3954 90.5363 44.5988 90.4176 44.8236 90.3713C45.0484 90.3249 45.2822 90.3535 45.4893 90.4526C45.6963 90.5517 45.8652 90.7158 45.9701 90.92C46.681 92.4269 47.0707 94.0652 47.1146 95.7307C47.4824 101.555 47.5846 110.216 47.5846 110.216C47.9647 110.911 48.6759 111.062 49.8367 108.724C50.8095 106.766 54.4022 97.6559 55.5589 94.7457C55.5994 94.6424 55.6683 94.5527 55.7577 94.4868C55.847 94.421 55.9531 94.3818 56.0638 94.3736C56.1744 94.3655 56.2852 94.3889 56.3831 94.441C56.4811 94.493 56.5624 94.5718 56.6175 94.668C57.108 95.5673 57.5658 97.3493 56.8382 100.717C55.5834 106.411 52.1011 113.245 52.1011 113.245Z" fill="#FEAEB4"/>
<path opacity="0.6" d="M50.6539 118.047C50.0858 118.685 48.9127 120.291 48.7819 120.414C49.0231 122.196 49.2357 123.97 49.3705 125.167C49.2357 125.29 49.0967 125.413 48.9618 125.543L48.9168 126.557C48.8228 125.789 47.4372 114.818 47.1634 114.499C46.8895 114.181 42.5937 110.51 42.5815 110.204C42.5692 109.897 42.7859 110.061 43.1946 110.114C43.6033 110.167 46.8732 112.975 47.6334 114.201C47.9073 114.61 48.2956 116.976 48.6553 119.515C49.4727 118.579 50.658 117.185 51.2589 116.498C51.3087 116.766 51.41 117.021 51.5572 117.25C51.2114 117.46 50.9055 117.73 50.6539 118.047Z" fill="#CB6275"/>
<path opacity="0.6" d="M47.4413 129.868C47.2694 129.962 47.1029 130.065 46.9427 130.178C46.5366 129.992 46.1807 129.712 45.9045 129.361C45.9025 129.583 45.8263 129.799 45.6879 129.974C45.1606 130.538 42.9657 129.606 42.2341 128.126C41.2715 126.003 40.4789 123.807 39.8635 121.558C39.8635 121.558 35.7271 119.776 35.8374 118.954C35.9069 118.439 39.2504 121.031 40.2722 120.998C40.2722 120.998 41.1183 123.769 41.7886 125.592C42.4589 127.415 43.2191 129.643 45.4671 129.639C45.4671 129.639 45.4672 129.377 45.3772 128.302C44.805 126.258 43.4439 117.888 43.4439 117.888C43.4439 117.888 37.8607 114.172 38.8171 114.144C39.5937 114.119 43.9834 117.597 43.9834 117.597C43.9834 117.597 44.8867 122.416 45.2096 124.321C45.5325 126.226 45.5407 128.065 46.3868 128.993C46.6954 129.333 47.0504 129.627 47.4413 129.868Z" fill="#CB6275"/>
<path d="M128.235 379.663C127.009 384.976 114.718 382.524 114.718 382.524C109.814 370.646 100.38 337.469 99.5626 327.227C99.0567 320.993 97.9619 314.821 96.2928 308.793C91.0528 296.294 80.2501 260.379 79.915 259.259C79.915 259.259 79.915 259.259 79.915 259.23C79.8823 260.457 79.825 261.711 79.7392 262.999C78.7582 278.122 74.5606 297.181 74.1805 305.098C73.7717 313.681 75.4067 318.206 77.0416 335.001C78.6765 351.795 67.6408 384.155 67.6408 384.155C61.1011 387.833 52.8938 383.746 52.8938 383.746C53.7113 377.615 54.5287 307.963 54.9375 303.872C55.3462 299.78 51.5245 283.525 51.5245 283.525C45.3936 247.479 49.7507 214.859 51.2507 205.425C52.7508 195.992 54.4388 183.395 54.4388 183.395C81.0062 186.309 90.4765 181.829 90.4765 181.829C97.3023 190.707 105.318 209.108 108.6 230.002C111.882 250.896 113.096 299.364 113.913 308.376C114.731 317.389 116.774 316.959 121.27 333.362C125.766 349.764 128.235 379.663 128.235 379.663Z" fill="#F9D64F"/>
<path d="M54.1857 179.553C54.1857 179.553 56.8711 180.747 66.8564 181.266C76.8416 181.785 84.4767 180.857 89.6104 177.996L90.4278 181.842C90.4278 181.842 83.2914 187.049 66.3128 186.212C58.9025 185.848 54.3329 183.759 54.3329 183.759L54.1857 179.553Z" fill="#5B1336"/>
<path d="M65.9736 181.148C67.3433 181.18 68.7091 181.309 70.0609 181.532C70.2596 183.088 70.171 184.667 69.7993 186.191C68.6581 186.306 67.5087 186.314 66.3659 186.216C65.1311 186.143 63.9023 185.991 62.6874 185.758C62.5327 184.257 62.6057 182.741 62.904 181.262C63.9206 181.135 64.946 181.094 65.9695 181.139M66.137 179.157C64.2405 179.116 62.4585 179.226 61.9516 179.566C60.7786 180.363 60.6192 186.351 61.4081 187.213C61.6778 187.507 64.028 187.9 66.3945 188.071C68.3033 188.21 70.2162 188.206 70.9764 187.879C72.7095 187.135 72.3212 180.596 71.4833 179.905C71.0745 179.566 68.5036 179.19 66.137 179.141V179.157Z" fill="#F98F23"/>
</g>
<defs>
<radialGradient id="paint0_radial_3304_6719" cx="0" cy="0" r="1" gradientUnits="userSpaceOnUse" gradientTransform="translate(93.9517 81.0745) rotate(133.42) scale(8.93427 7.20356)">
<stop offset="0.45" stop-color="#FB8994"/>
<stop offset="0.51" stop-color="#FB8A95" stop-opacity="0.98"/>
<stop offset="0.57" stop-color="#FA8C97" stop-opacity="0.92"/>
<stop offset="0.65" stop-color="#FA8F9B" stop-opacity="0.81"/>
<stop offset="0.73" stop-color="#F894A0" stop-opacity="0.67"/>
<stop offset="0.82" stop-color="#F79AA7" stop-opacity="0.49"/>
<stop offset="0.91" stop-color="#F5A1B0" stop-opacity="0.27"/>
<stop offset="1" stop-color="#F3AABA" stop-opacity="0"/>
</radialGradient>
<radialGradient id="paint1_radial_3304_6719" cx="0" cy="0" r="1" gradientUnits="userSpaceOnUse" gradientTransform="translate(48.0461 73.035) rotate(77.2212) scale(9.33411 6.26017)">
<stop offset="0.45" stop-color="#FB8994"/>
<stop offset="0.51" stop-color="#FB8A95" stop-opacity="0.98"/>
<stop offset="0.57" stop-color="#FA8C97" stop-opacity="0.92"/>
<stop offset="0.65" stop-color="#FA8F9B" stop-opacity="0.81"/>
<stop offset="0.73" stop-color="#F894A0" stop-opacity="0.67"/>
<stop offset="0.82" stop-color="#F79AA7" stop-opacity="0.49"/>
<stop offset="0.91" stop-color="#F5A1B0" stop-opacity="0.27"/>
<stop offset="1" stop-color="#F3AABA" stop-opacity="0"/>
</radialGradient>
<clipPath id="clip0_3304_6719">
<rect width="157.719" height="206" fill="white" transform="translate(10 5)"/>
</clipPath>
</defs>
</svg>
