<svg width="212" height="184" viewBox="0 0 212 184" fill="none" xmlns="http://www.w3.org/2000/svg">
<g clip-path="url(#clip0_3216_8502)">
<g filter="url(#filter0_d_3216_8502)">
<ellipse cx="102.745" cy="104.845" rx="78.7453" ry="79.1442" fill="white"/>
</g>
<mask id="mask0_3216_8502" style="mask-type:alpha" maskUnits="userSpaceOnUse" x="0" y="1" width="212" height="176">
<path fill-rule="evenodd" clip-rule="evenodd" d="M212 1H0V106H31.0858C31.9083 145.289 63.854 176.884 103.142 176.884C142.43 176.884 174.375 145.289 175.198 106H212V1Z" fill="#C4C4C4"/>
</mask>
<g mask="url(#mask0_3216_8502)">
<ellipse cx="103.142" cy="104.446" rx="72.0723" ry="72.4374" fill="url(#paint0_linear_3216_8502)"/>
<path d="M157.722 31.7976C157.809 31.6302 157.946 31.4941 158.114 31.4085C158.282 31.3229 158.472 31.2922 158.658 31.3207C158.76 31.343 158.857 31.3853 158.942 31.4449C159.028 31.5046 159.101 31.5806 159.157 31.6686C159.213 31.7565 159.252 31.8547 159.27 31.9574C159.288 32.0602 159.286 32.1655 159.263 32.2674C159.235 32.394 159.185 32.5145 159.114 32.6233C156.978 35.855 155.58 37.7307 153.551 37.3072C151.981 36.9797 151.127 35.5276 151.722 32.6803C151.935 31.6588 152.405 30.0002 152.96 28.153C151.646 27.8702 150.303 27.7506 148.96 27.7971C147.564 31.94 145.401 35.8017 142.653 35.2286C141.009 34.8727 140.161 33.4491 140.517 31.6375C141.058 29.0428 143.365 26.7045 147.308 26.0887C147.636 25.0032 147.931 23.8785 148.162 22.7752C148.568 20.8212 148.244 20.3514 147.586 20.2126C146.426 19.9705 145.618 21.6683 144.774 21.4903C144.677 21.4741 144.585 21.438 144.502 21.3842C144.42 21.3305 144.35 21.2603 144.296 21.178C144.242 21.0958 144.206 21.0033 144.189 20.9063C144.173 20.8094 144.177 20.7101 144.201 20.6148C144.454 19.4082 146.515 18.102 148.301 18.4793C150.159 18.8672 150.771 20.4048 150.177 23.2556C149.999 24.1027 149.782 25.0139 149.522 25.9392C150.762 25.9552 151.997 26.0947 153.209 26.3557L153.48 26.4126C154.099 24.3875 154.75 22.3054 155.22 20.718C155.286 20.4619 155.449 20.2418 155.676 20.1053C155.902 19.9688 156.173 19.9268 156.43 19.9883C156.564 20.0097 156.692 20.0584 156.806 20.1314C156.92 20.2045 157.018 20.3002 157.094 20.4128C157.169 20.5254 157.221 20.6523 157.245 20.7856C157.269 20.9189 157.266 21.0559 157.235 21.1878C157.16 21.5437 156.32 24.181 155.473 26.9536C155.768 27.0461 156.067 27.1458 156.373 27.2561C157.007 27.4875 157.213 27.9359 157.135 28.3239C157.099 28.4479 157.039 28.5635 156.958 28.6639C156.877 28.7643 156.776 28.8474 156.663 28.9084C156.549 28.9695 156.424 29.0071 156.296 29.0192C156.167 29.0313 156.037 29.0175 155.914 28.9788C155.719 28.9361 155.38 28.8293 154.943 28.7011C154.416 30.4807 153.953 32.1144 153.754 33.0611C153.345 35.0186 153.579 35.4707 154.063 35.5525C155.003 35.7483 156.74 33.3387 157.712 31.8296L157.722 31.7976ZM146.646 28.1103C144.173 28.7759 142.77 30.2921 142.436 31.8866C142.261 32.7301 142.521 33.2889 143.126 33.4135C144.158 33.6306 145.518 31.2424 146.646 28.1103Z" fill="#B7516F"/>
<path d="M166.627 33.6534C166.713 33.4892 166.848 33.3555 167.013 33.2708C167.178 33.1861 167.365 33.1544 167.549 33.18C167.756 33.2276 167.937 33.3553 168.051 33.5352C168.165 33.7152 168.203 33.9329 168.157 34.141C168.133 34.2603 168.086 34.3739 168.018 34.4755C165.701 38.0988 163.338 39.5189 160.708 38.9708C158.078 38.4227 156.643 36.2338 157.263 33.2761C157.95 30.0053 160.441 28.3823 162.861 28.8806C164.719 29.2685 165.709 30.7562 165.353 32.4219C164.997 34.0876 163.189 35.3226 161.135 34.8955C160.414 34.7517 159.733 34.4529 159.138 34.02C158.886 35.7996 159.69 36.91 161.274 37.2232C163.733 37.7357 165.673 35.0877 166.63 33.632L166.627 33.6534ZM162.541 30.6601C161.473 30.4359 160.256 31.0623 159.583 32.4824C160.136 32.864 160.759 33.1326 161.416 33.2726C162.456 33.4897 163.271 32.9558 163.449 32.1087C163.496 31.9537 163.51 31.7902 163.489 31.6293C163.468 31.4684 163.413 31.3139 163.327 31.1764C163.241 31.0389 163.126 30.9216 162.99 30.8325C162.855 30.7434 162.701 30.6846 162.541 30.6601Z" fill="#B7516F"/>
<path d="M174.041 35.1979C174.129 35.0367 174.265 34.9073 174.43 34.8281C174.596 34.7488 174.782 34.7238 174.963 34.7566C175.064 34.7762 175.16 34.8155 175.245 34.8723C175.331 34.9292 175.404 35.0023 175.462 35.0877C175.519 35.173 175.559 35.2688 175.579 35.3696C175.599 35.4704 175.599 35.5741 175.579 35.6749C175.552 35.8019 175.501 35.9226 175.429 36.0308C173.176 39.4654 171.343 41.1239 169.101 40.6577C167.022 40.227 165.713 38.2908 166.702 33.5394C168.506 24.8728 171.08 23.168 173.254 23.62C174.507 23.8834 175.233 24.9903 174.927 26.4673C174.34 29.2826 172.144 32.3791 168.417 35.141C168.151 37.0736 168.418 38.661 169.635 38.9173C171.133 39.2305 173.005 36.7818 174.041 35.2015V35.1979ZM168.983 32.4965C171.304 30.4073 172.607 28.2612 172.991 26.414C173.155 25.6416 172.991 25.4067 172.685 25.3462C171.962 25.1932 170.325 27.0119 168.983 32.4965Z" fill="#B7516F"/>
<path d="M181.441 36.7455C181.527 36.5835 181.664 36.4534 181.829 36.3741C181.995 36.2947 182.182 36.2702 182.362 36.3041C182.463 36.3233 182.559 36.3622 182.645 36.4187C182.73 36.4751 182.804 36.548 182.861 36.6331C182.918 36.7181 182.958 36.8137 182.978 36.9142C182.998 37.0148 182.998 37.1183 182.978 37.2188C182.951 37.3452 182.901 37.4657 182.832 37.5747C180.579 41.0093 178.746 42.6679 176.5 42.2016C174.425 41.7674 173.116 39.8312 174.102 35.0833C175.91 26.4168 178.479 24.712 180.654 25.164C181.91 25.4273 182.636 26.5342 182.327 28.0113C181.74 30.8301 179.544 33.9266 175.817 36.6849C175.55 38.6176 175.817 40.2049 177.038 40.4612C178.533 40.7744 180.405 38.3257 181.441 36.7455ZM176.365 34.0405C178.686 31.9513 179.988 29.8051 180.373 27.9579C180.537 27.1856 180.373 26.9507 180.067 26.8902C179.376 26.7442 177.735 28.5558 176.376 34.0405H176.365Z" fill="#B7516F"/>
<path d="M191.734 38.8881C191.821 38.7257 191.957 38.5947 192.122 38.5136C192.287 38.4325 192.474 38.4054 192.656 38.4361C192.758 38.4556 192.855 38.4953 192.941 38.5528C193.028 38.6103 193.102 38.6845 193.159 38.7711C193.216 38.8576 193.256 38.9547 193.275 39.0567C193.294 39.1587 193.293 39.2636 193.271 39.3651C193.246 39.492 193.197 39.6129 193.126 39.721C192.61 40.588 191.856 41.2889 190.954 41.7406C190.052 42.1923 189.039 42.3758 188.036 42.2693C187.511 42.9084 186.82 43.3903 186.039 43.6622C185.258 43.9341 184.417 43.9854 183.608 43.8104C180.95 43.2552 180.206 40.9097 180.686 38.6141C181.274 35.7917 183.715 33.0227 186.708 33.6491C187.277 33.7609 187.816 33.9861 188.296 34.3111C189.534 35.1048 190.054 37.0623 189.659 38.938C189.533 39.5366 189.337 40.1183 189.075 40.6713C189.623 40.5904 190.145 40.3888 190.605 40.081C191.065 39.7732 191.45 39.367 191.734 38.8917V38.8881ZM186.039 41.5148C185.362 41.0164 184.84 40.3363 184.534 39.5532C184.228 38.7701 184.15 37.9163 184.309 37.0908C184.42 36.5566 184.612 36.0428 184.879 35.5674C183.747 36.1583 182.868 37.5997 182.576 38.9985C182.22 40.778 182.875 41.8066 184 42.038C184.362 42.1056 184.734 42.0938 185.091 42.0035C185.448 41.9132 185.781 41.7464 186.068 41.5148H186.039ZM187.135 35.7668C186.605 35.6564 186.142 36.29 185.968 37.1335C185.833 37.713 185.871 38.3196 186.079 38.8774C186.286 39.4351 186.654 39.9192 187.135 40.2691C187.44 39.712 187.658 39.112 187.783 38.4895C188.068 37.137 187.886 35.9412 187.164 35.7917L187.135 35.7668Z" fill="#B7516F"/>
<path d="M193.677 44.5574C193.733 44.2999 193.864 44.0646 194.053 43.8809C194.242 43.6972 194.48 43.5732 194.739 43.5244C194.998 43.4756 195.266 43.5042 195.509 43.6065C195.752 43.7088 195.959 43.8804 196.105 44.0998C196.251 44.3193 196.329 44.5768 196.33 44.8404C196.33 45.1039 196.253 45.3618 196.108 45.5818C195.963 45.8018 195.756 45.9742 195.514 46.0775C195.271 46.1807 195.004 46.2103 194.745 46.1626C194.567 46.1313 194.398 46.0644 194.247 45.9658C194.096 45.8671 193.967 45.7389 193.867 45.5888C193.767 45.4387 193.699 45.2699 193.666 45.0926C193.633 44.9153 193.637 44.7332 193.677 44.5574ZM194.898 40.6423C195.143 39.4571 195.706 37.738 196.428 34.2607C196.784 32.5452 197.065 30.965 197.222 29.7406C197.329 28.8544 197.902 28.5198 198.41 28.6266C198.919 28.7334 199.293 29.2139 199.186 29.972C199.023 31.2497 198.717 32.9474 198.325 34.8338C197.912 36.8127 197.407 38.998 196.82 41.0943C196.802 41.2327 196.756 41.366 196.684 41.4854C196.612 41.6049 196.516 41.7078 196.402 41.7875C196.287 41.8672 196.157 41.922 196.02 41.9481C195.883 41.9743 195.742 41.9713 195.607 41.9394C195.471 41.9075 195.343 41.8473 195.232 41.7628C195.122 41.6783 195.03 41.5714 194.963 41.4491C194.896 41.3267 194.855 41.1916 194.844 41.0526C194.833 40.9136 194.851 40.7738 194.898 40.6423Z" fill="#B7516F"/>
<path opacity="0.6" d="M203.777 18.0422L133.954 3.80555C131.609 3.32669 129.169 3.79898 127.172 5.11854C125.175 6.4381 123.784 8.49686 123.305 10.842L118.611 33.8484C118.133 36.1935 118.605 38.6324 119.925 40.6292C121.244 42.626 123.302 44.0173 125.647 44.4973L154.245 50.3308C155.054 53.2489 155.082 56.3283 154.327 59.2607C153.824 61.1582 152.996 62.9539 151.878 64.5674C153.302 64.3503 159.238 63.2861 163.114 58.0115C164.288 56.4059 165.151 54.5953 165.659 52.6727L195.47 58.7553C197.816 59.2342 200.255 58.7619 202.252 57.4423C204.249 56.1228 205.64 54.064 206.119 51.7189L210.814 28.7089C211.054 27.5464 211.062 26.3481 210.838 25.1824C210.614 24.0168 210.162 22.9068 209.508 21.916C208.855 20.9252 208.012 20.073 207.029 19.4083C206.045 18.7436 204.941 18.2793 203.777 18.0422Z" fill="url(#paint1_radial_3216_8502)"/>
<path d="M210.814 28.6885L210.373 30.8631C210.433 28.7388 209.742 26.6612 208.421 24.9964C207.1 23.3316 205.234 22.1864 203.152 21.7624L133.325 7.52576C129.079 6.65732 124.647 8.92806 122.914 12.7506L123.302 10.8536C123.538 9.69265 124.001 8.58971 124.664 7.60773C125.327 6.62576 126.177 5.78401 127.165 5.13057C128.153 4.47713 129.261 4.02481 130.424 3.79944C131.587 3.57408 132.783 3.58008 133.944 3.81712L203.771 18.0537C206.114 18.5315 208.172 19.9198 209.493 21.9138C210.814 23.9078 211.289 26.3444 210.814 28.6885Z" fill="url(#paint2_radial_3216_8502)" fill-opacity="0.6"/>
<path opacity="0.6" d="M206.216 51.2174L206.116 51.6979C205.879 52.8588 205.417 53.9618 204.754 54.9437C204.091 55.9257 203.241 56.7674 202.253 57.4209C201.264 58.0743 200.157 58.5266 198.994 58.752C197.831 58.9774 196.635 58.9714 195.474 58.7343L165.659 52.6482C165.152 54.5711 164.289 56.382 163.114 57.9869C159.238 63.2616 153.312 64.3258 151.874 64.5429C152.993 62.9297 153.823 61.134 154.327 59.2362C155.082 56.3037 155.054 53.2244 154.245 50.3063L125.647 44.4728C123.302 43.9927 121.244 42.6014 119.925 40.6046C118.605 38.6079 118.133 36.1689 118.611 33.8238L118.71 33.3291C118.87 37.5218 122.056 41.444 126.266 42.3088L156.298 48.4555L156.629 49.6763C157.553 53.0121 157.585 56.5319 156.722 59.8839C156.672 60.069 156.619 60.2399 156.565 60.4356C158.211 59.5816 159.659 58.3903 160.814 56.9393C161.968 55.4884 162.804 53.8104 163.267 52.0147L163.805 49.9788L196.093 56.5704C198.139 56.9872 200.267 56.6815 202.112 55.7054C203.958 54.7293 205.408 53.1431 206.216 51.2174Z" fill="url(#paint3_radial_3216_8502)"/>
<path opacity="0.3" d="M200.281 23.4599L135.799 10.0124C131.744 9.16689 127.772 11.7682 126.927 15.8226C126.081 19.8771 128.683 23.8493 132.737 24.6948L197.219 38.1423C201.273 38.9878 205.246 36.3865 206.091 32.3321C206.937 28.2777 204.335 24.3055 200.281 23.4599Z" fill="white"/>
<path d="M32.4896 94.2507C32.4201 93.9948 32.4278 93.7242 32.5116 93.4726C32.5955 93.2211 32.7517 93 32.9608 92.837C33.1699 92.674 33.4225 92.5764 33.6869 92.5565C33.9513 92.5366 34.2156 92.5953 34.4468 92.7251C34.6779 92.855 34.8656 93.0502 34.9861 93.2863C35.1067 93.5224 35.1548 93.7889 35.1244 94.0523C35.094 94.3157 34.9865 94.5642 34.8154 94.7667C34.6442 94.9691 34.417 95.1165 34.1624 95.1903C33.9909 95.242 33.8107 95.2586 33.6326 95.2391C33.4545 95.2195 33.2822 95.1642 33.126 95.0765C32.9698 94.9887 32.833 94.8704 32.7236 94.7285C32.6142 94.5866 32.5346 94.4241 32.4896 94.2507Z" fill="#B7516F"/>
<path d="M41.2493 91.7891C41.1792 91.5333 41.1862 91.2625 41.2695 91.0107C41.3528 90.7589 41.5086 90.5374 41.7175 90.3739C41.9263 90.2104 42.1788 90.1123 42.4433 90.0919C42.7077 90.0715 42.9723 90.1297 43.2037 90.2592C43.4352 90.3887 43.6232 90.5837 43.7441 90.8198C43.8651 91.0558 43.9135 91.3224 43.8834 91.5859C43.8534 91.8494 43.746 92.0981 43.575 92.3008C43.404 92.5036 43.1768 92.6512 42.9221 92.7252C42.7509 92.7765 42.571 92.7928 42.3933 92.7732C42.2156 92.7537 42.0436 92.6986 41.8876 92.6113C41.7315 92.524 41.5946 92.4062 41.485 92.265C41.3754 92.1238 41.2952 91.9619 41.2493 91.7891Z" fill="#B7516F"/>
<path d="M50.0081 89.322C49.9387 89.0661 49.9463 88.7954 50.0302 88.5439C50.114 88.2924 50.2703 88.0713 50.4794 87.9083C50.6885 87.7453 50.9411 87.6477 51.2055 87.6278C51.4698 87.6079 51.7342 87.6666 51.9653 87.7964C52.1965 87.9262 52.3841 88.1215 52.5047 88.3576C52.6253 88.5937 52.6734 88.8602 52.643 89.1236C52.6126 89.387 52.5051 89.6355 52.3339 89.8379C52.1628 90.0404 51.9356 90.1878 51.6809 90.2616C51.5094 90.3133 51.3292 90.3299 51.1512 90.3104C50.9731 90.2908 50.8008 90.2355 50.6446 90.1478C50.4884 90.06 50.3515 89.9417 50.2422 89.7998C50.1328 89.6579 50.0532 89.4954 50.0081 89.322Z" fill="#B7516F"/>
<path opacity="0.6" d="M83.2364 78.1449C77.7411 58.6158 55.1511 47.8921 32.7783 54.1811C10.4055 60.4701 -3.27948 81.4086 2.2123 100.938C7.14172 118.463 25.8344 128.891 45.787 126.311C46.745 127.514 47.8525 128.591 49.0828 129.514C55.1333 134.073 62.0808 133.276 63.7465 133.041C61.9646 131.625 60.4434 129.909 59.2513 127.969C58.3791 126.535 57.6982 124.993 57.2261 123.382C76.8549 115.722 88.3474 96.3179 83.2364 78.1449Z" fill="url(#paint4_radial_3216_8502)"/>
<path opacity="0.3" d="M45.7071 100.789C62.5452 96.0529 73.5354 82.7569 70.2544 71.0912C66.9734 59.4256 50.6638 53.8077 33.8257 58.5434C16.9876 63.2791 5.99746 76.5751 9.27843 88.2407C12.5594 99.9064 28.8691 105.524 45.7071 100.789Z" fill="white"/>
<path d="M84.2757 83.6239C84.0882 82.5443 83.8438 81.4682 83.5425 80.3957C78.0472 60.8667 55.4572 50.1429 33.0844 56.4284C12.7972 62.123 -0.343193 79.8796 1.47553 97.7146C-1.7277 79.1607 11.6334 60.1442 32.7747 54.2004C55.1476 47.9042 77.7375 58.6351 83.2329 78.1677C83.7344 79.9536 84.0833 81.7789 84.2757 83.6239Z" fill="url(#paint5_radial_3216_8502)" fill-opacity="0.6"/>
<path opacity="0.6" d="M57.2259 123.387C57.7027 125.001 58.3896 126.546 59.2689 127.981C60.4602 129.922 61.9815 131.64 63.7641 133.057C62.0984 133.295 55.1652 134.089 49.1004 129.53C47.8701 128.606 46.7626 127.53 45.8046 126.326C25.8378 128.893 7.14509 118.464 2.21566 100.939C1.906 99.8389 1.65414 98.7233 1.46112 97.5969C1.55129 97.9599 1.64738 98.323 1.74941 98.686C6.81409 116.702 26.3289 127.28 46.8546 124.009L47.5664 124.899C48.4093 125.957 49.3828 126.904 50.4635 127.718C52.8098 129.453 55.5744 130.535 58.4752 130.854C58.0695 130.313 57.6851 129.75 57.3292 129.17C56.3485 127.563 55.5815 125.836 55.0477 124.031L54.4854 122.152C73.1674 115.987 85.2436 99.4548 84.1723 82.5986C86.411 99.3943 75.253 116.329 57.2259 123.387Z" fill="url(#paint6_radial_3216_8502)"/>
<path d="M131.307 59.7798L134.485 59.1284L139.073 58.1924L142.497 57.4272L142.137 55.8291L138.471 56.6406L134.275 57.4699L130.171 58.2707L131.307 59.7798Z" fill="#4B0E2F"/>
<path d="M86.8736 98.2836C87.0694 98.5292 103.897 126.686 110.563 128.266C117.23 129.846 120.76 122.66 122.099 119.147C123.437 115.634 122.672 96.3083 122.672 96.3083C122.672 96.3083 118.557 98.9385 116.603 97.5433C115.948 97.0735 115.425 96.3474 115.24 94.9095C115.177 94.3543 115.157 93.7951 115.18 93.2368C115.217 91.2398 115.507 89.2557 116.044 87.3321L100.854 81.8154C100.854 81.8154 100.854 82.9437 101.21 89.6135C101.281 90.8062 101.274 92.0023 101.189 93.194C100.897 96.8137 99.6545 97.6643 98.0885 97.5469C97.226 97.4992 96.3772 97.3104 95.5757 96.9881C95.5757 96.9881 86.6779 98.0487 86.8736 98.2836Z" fill="#F9A0A9"/>
<g style="mix-blend-mode:multiply" opacity="0.6">
<path d="M101.178 93.1999C103.726 94.652 106.623 95.645 109.314 95.766C112.093 95.8906 113.987 95.4528 115.24 94.9154C115.177 94.3602 115.157 93.8009 115.179 93.2426C115.216 91.2457 115.507 89.2616 116.044 87.338L100.854 81.8213C100.854 81.8213 100.854 82.9495 101.21 89.6194C101.277 90.8123 101.267 92.0084 101.178 93.1999Z" fill="#F1C5BD"/>
</g>
<g style="mix-blend-mode:multiply" opacity="0.6">
<path d="M118.475 101.437C117.535 101.11 113.624 103.676 114.072 104.064C114.521 104.452 118.084 102.594 118.98 102.348C119.877 102.103 119.19 101.686 118.475 101.437Z" fill="#E5A898"/>
</g>
<g style="mix-blend-mode:multiply" opacity="0.6">
<path d="M102.232 102.048C103.392 101.692 108.318 104.091 107.773 104.489C107.229 104.888 102.755 103.179 101.63 102.969C100.506 102.759 101.36 102.322 102.232 102.048Z" fill="#E5A898"/>
</g>
<path d="M77.2959 64.4433C78.6982 69.7429 82.8054 72.8287 84.4462 73.6544C86.087 74.4801 87.08 74.7221 88.1655 74.1705C89.251 73.6188 91.924 72.0065 92.5255 72.2556C95.3728 73.4373 97.8642 87.9942 116.372 91.3576C119.422 91.9093 128.049 87.7059 134.598 78.4236C136.022 76.3914 136.581 73.6152 136.933 71.6007C137.081 70.7927 137.176 69.9759 137.218 69.1556C137.228 68.8287 137.214 68.5016 137.175 68.1768C137.086 67.2337 136.687 66.0413 136.374 64.8526C136.321 64.6462 136.267 64.4397 136.221 64.2297C136.221 64.1906 136.203 64.1443 136.196 64.1087C135.941 63.1957 135.875 62.2399 136.004 61.3006C136.381 59.1829 137.987 55.371 138.111 52.9899C138.236 50.7477 139.015 42.0776 136.524 36.4221C136.371 36.0662 136.168 35.7102 136.008 35.3543C132.644 28.4887 124.262 27.9442 124.262 27.9442C122.867 30.0227 121.607 30.5957 121.607 30.5957C109.424 22.4097 97.6934 30.069 94.4616 33.8737C80.3745 50.4629 93.6466 57.478 90.6178 66.0983C90.0697 67.6714 86.1653 52.5272 79.9973 54.6414C77.4453 55.5276 75.9042 59.133 77.2959 64.4433Z" fill="#FEAEB4"/>
<path d="M111.859 40.2696C111.592 41.1416 109.4 40.2981 106.236 40.6469C103.072 40.9957 100.335 43.2629 99.1603 44.804C97.9858 46.3451 97.4661 47.6869 97.0248 47.4662C96.5835 47.2456 97.6192 42.7005 101.484 39.8176C105.35 36.9347 112.657 37.6465 111.859 40.2696Z" fill="#B7516F"/>
<g style="mix-blend-mode:multiply">
<path d="M90.8464 33.4174C90.6008 33.7733 88.6824 41.7209 88.6824 41.7209L90.7076 47.0596C90.7076 47.0596 90.163 39.9769 94.5372 35.4105C97.2351 32.5988 98.5377 32.8373 98.5377 32.8373C98.5377 32.8373 96.6229 42.0021 106.108 44.2052C106.108 44.2052 101.481 41.3401 102.14 35.8163C102.798 30.2925 109.731 29.271 109.731 29.271C112.319 30.8612 115.231 31.8501 118.252 32.1646C121.889 32.5205 123.139 31.3104 123.139 31.3104C124.417 32.3969 125.999 33.063 127.669 33.2181C130.374 33.4245 132.065 32.4351 132.065 32.4351C132.065 32.4351 136.731 37.4179 138.194 43.1125C139.657 48.8072 136.019 26.8757 135.663 26.9825C138.204 26.2279 114.024 20.576 117.084 21.5263L100.965 23.7045L90.8464 33.4174Z" fill="#E5C5BD"/>
</g>
<path opacity="0.88" d="M110.135 74.6943C111.677 71.4707 108.669 66.8197 103.415 64.3058C98.161 61.792 92.6516 62.3673 91.1092 65.5909C89.5668 68.8145 92.5755 73.4656 97.8293 75.9794C103.083 78.4933 108.593 77.9179 110.135 74.6943Z" fill="url(#paint7_radial_3216_8502)"/>
<path opacity="0.88" d="M134.584 78.4238C136.102 75.5591 136.995 72.4051 137.204 69.17C137.214 68.8432 137.2 68.516 137.161 68.1913C137.072 67.2481 136.673 66.0557 136.36 64.867C136.307 64.6606 136.253 64.4541 136.207 64.2441C134.233 65.6669 132.775 67.6931 132.054 70.0171C130.865 73.8111 131.986 77.2849 134.584 78.4238Z" fill="url(#paint8_radial_3216_8502)"/>
<path d="M84.3786 62.2262C83.7146 61.3974 82.9746 60.6324 82.1683 59.9412C81.2216 59.1618 79.741 59.4323 79.4562 60.9734C79.1003 62.963 79.4242 64.4186 79.1644 63.9666C78.1607 62.2582 78.3921 59.3397 79.5203 58.4179C80.4849 57.6385 81.7377 57.7061 83.0795 58.9731C83.669 59.6271 84.1857 60.3431 84.6206 61.1086C85.521 62.6925 85.7453 63.6641 84.3786 62.2262Z" fill="#CB6275"/>
<path d="M85.7987 72.1278C86.6341 72.1278 87.3113 71.4506 87.3113 70.6152C87.3113 69.7798 86.6341 69.1025 85.7987 69.1025C84.9632 69.1025 84.286 69.7798 84.286 70.6152C84.286 71.4506 84.9632 72.1278 85.7987 72.1278Z" fill="white"/>
<path d="M115.08 58.993C115.308 59.1175 115.586 59.687 115.664 58.3061C115.742 56.9251 115.55 53.7859 114.101 51.7928C112.653 49.7997 110.115 48.3511 106.506 48.8636C102.897 49.3761 101.698 50.2659 100.263 53.5226C99.5539 55.0811 99.3199 56.8144 99.5908 58.5054C99.5908 58.5054 97.2952 58.7154 97.3379 59.3703C97.3806 60.0251 101.463 61.1498 102.004 60.9826C102.545 60.8153 115.08 58.993 115.08 58.993Z" fill="#7F2636"/>
<path d="M104.858 66.2729C105.114 66.46 105.391 66.6154 105.684 66.7356C106.125 66.927 106.584 67.0748 107.054 67.177C108.852 67.5685 111.137 67.4261 112.749 66.006C115.013 64.0236 115.596 61.0837 115.454 58.2328C115.347 55.898 113.375 51.8762 108.748 51.627C107.306 51.498 105.861 51.8618 104.652 52.6592C103.584 53.403 102.815 54.6025 102.299 55.8624C102.21 56.0938 102.125 56.3322 102.05 56.5743C101.943 56.9302 101.837 57.311 101.762 57.6918C101.687 58.0727 101.712 58.5958 101.666 58.9945C101.648 59.2009 101.716 59.3504 101.716 59.5461C101.691 62.543 103.456 65.255 104.858 66.2729Z" fill="white"/>
<path d="M107.055 52.8542C109.574 52.7866 112.45 54.8082 112.717 58.7837C113.013 63.2006 110.838 65.838 107.706 66.2758C104.681 66.6993 101.801 64.5424 101.616 60.122C101.452 56.4632 102.88 52.9645 107.055 52.8542Z" fill="black"/>
<path d="M104.919 55.8378C104.82 55.7638 104.705 55.7149 104.583 55.6953C104.461 55.6756 104.336 55.6859 104.22 55.7251C104.103 55.7643 103.997 55.8313 103.912 55.9204C103.826 56.0094 103.764 56.1179 103.73 56.2364C103.495 56.9126 104.068 57.3041 104.644 57.0657C105.072 56.8842 105.31 56.1794 104.919 55.8378Z" fill="white"/>
<path d="M138.218 46.3199C138.076 46.7364 137.955 44.7326 136.139 42.8177C135.04 41.661 133.684 41.5436 132.224 41.8674C129.356 42.5116 129.676 40.6858 129.986 40.3797C131.139 39.2265 133.381 38.803 135.47 39.828C138.133 41.1093 138.506 45.4444 138.218 46.3199Z" fill="#B7516F"/>
<path d="M139.944 59.8658C139.894 60.9514 136.385 62.8271 135.203 62.1117C134.022 61.3963 135.171 56.9794 133.37 55.7052C131.569 54.431 127.54 57.0826 127.11 57.0043C126.679 56.926 126.658 53.3668 128.444 52.1959C130.231 51.0249 132.004 49.8967 134.897 51.7296C137.314 53.2529 137.68 57.6876 137.623 59.033C137.623 59.0294 139.969 59.2821 139.944 59.8658Z" fill="#7F2636"/>
<path d="M131.36 52.8354C133.549 53.3052 135.079 55.5581 135.275 58.4339C135.471 61.3097 134.919 65.6697 132.029 66.7624C128.488 68.1042 126.957 65.2889 126.847 60.5872C126.747 56.4871 127.961 52.1093 131.36 52.8354Z" fill="white"/>
<path d="M126.181 56.6923C126.181 56.6923 127.021 53.6813 129.879 54.2009C132.064 54.6102 133.335 56.7137 133.498 59.7994C133.662 62.8852 132.324 65.6329 129.832 66.1774C125.996 67.021 125.266 62.9457 126.181 56.6923Z" fill="black"/>
<path d="M129.274 55.8234C129.167 55.7616 129.046 55.7272 128.922 55.7231C128.798 55.719 128.675 55.7453 128.563 55.7997C128.452 55.8542 128.356 55.9351 128.283 56.0354C128.21 56.1357 128.163 56.2523 128.146 56.375C128 57.0869 128.619 57.3787 129.16 57.0869C129.577 56.8377 129.719 56.1045 129.274 55.8234Z" fill="white"/>
<path d="M116.98 77.1315C116.71 77.3237 117.785 79.6229 119.472 80.5732C121.159 81.5235 123.543 81.285 124.81 80.5127C125.835 79.8969 126.69 78.7758 126.469 78.6619C126.248 78.548 125.494 79.5766 124.045 79.8862C122.513 80.16 120.933 79.8893 119.578 79.121C118.03 78.249 117.304 76.8966 116.98 77.1315Z" fill="#CB6275"/>
<path d="M110.467 72.0557C112.183 70.6321 114.027 70.3509 116.005 70.4897C117.984 70.6285 121.732 73.7214 126.11 73.5221C127.889 73.4402 128.562 74.8497 128.911 75.5259C129.26 76.2021 129.327 77.9248 127.751 81.0283C125.989 84.4914 121.661 86.335 118.956 86.2995C116.109 86.2639 113.478 85.4702 111.186 82.9432C108.894 80.4162 108.695 75.5401 109.407 73.9955C109.69 73.3127 110.045 72.6624 110.467 72.0557Z" fill="#E76F83"/>
<path d="M127.797 80.4879C126.252 82.8903 123.038 84.7161 120.123 84.8371C119.924 84.8371 119.721 84.8371 119.515 84.8371C119.015 84.8143 118.517 84.7644 118.023 84.6877C115.297 84.2606 112.307 82.8867 110.4 79.6301C110.12 79.1655 109.882 78.6772 109.688 78.1708C109.476 77.6122 109.331 77.0304 109.257 76.4375C108.93 73.9461 110.008 71.985 111.435 71.3408C111.811 71.1685 112.205 71.0384 112.61 70.9529C112.713 70.9315 112.82 70.9102 112.919 70.8959L113.258 70.8532C115.208 70.6966 116.909 71.7644 119.28 72.914C119.313 72.9278 119.345 72.9444 119.376 72.9638C119.888 73.2058 120.443 73.455 121.02 73.7041C121.12 73.7468 121.223 73.786 121.333 73.8251C121.345 73.8339 121.358 73.84 121.372 73.8429C125.462 75.473 126.757 74.0921 128.113 74.6117C128.216 74.6482 128.314 74.696 128.405 74.7541C128.53 74.8249 128.642 74.9163 128.736 75.0246C129.569 75.9677 129.281 78.1851 127.797 80.4879Z" fill="#550C1A"/>
<path d="M118.023 84.6885C115.297 84.2614 112.307 82.8876 110.4 79.631C110.12 79.1664 109.882 78.6781 109.688 78.1717C109.476 77.6131 109.331 77.0312 109.257 76.4384C109.37 76.4242 109.483 76.4242 109.595 76.4384C110.927 76.5381 114.489 78.1148 116.507 81.3251C117.179 82.3636 117.69 83.4975 118.023 84.6885Z" fill="#B14355"/>
<path d="M119.868 75.807C117.114 75.0649 114.752 73.2906 113.272 70.8526C115.226 70.6996 116.931 71.7638 119.302 72.9134L119.391 72.9596C119.928 73.2351 120.479 73.4833 121.042 73.7035C121.142 73.7462 121.245 73.7854 121.352 73.8245C121.364 73.833 121.377 73.8401 121.391 73.8459C124.459 75.0631 125.954 74.5933 127.085 74.5007C127.449 74.4723 124.961 77.2484 119.868 75.807Z" fill="white"/>
<path d="M57.5358 44.5943C58.1052 40.0421 60.9704 35.6501 65.2164 34.0307C66.6548 33.5322 67.9456 32.6819 68.9713 31.5571C63.2375 30.1548 65.1061 24.9371 65.1061 24.9371C66.0066 27.2327 67.2416 27.9232 68.53 27.7488L68.7827 27.6313C72.4202 26.0012 70.3345 23.0578 75.7088 17.4913C79.6239 13.4303 86.34 13.3983 87.0447 13.5762C85.8622 13.1086 84.8895 12.2279 84.307 11.0976C83.7245 9.96724 83.5717 8.66398 83.8771 7.42958C89.6998 10.8357 96.3341 4.85276 104.235 2.71727C108.179 1.64952 112.421 1.53563 117.048 4.04483C117.068 4.05076 117.086 4.06043 117.102 4.0733C117.216 4.13381 117.34 4.20143 117.458 4.27261L117.497 4.29397L117.728 4.42922C119.171 5.30331 120.532 6.30507 121.796 7.42247L121.832 7.39755C122.368 7.06117 122.966 6.8338 123.59 6.72843C124.864 6.45437 126.829 6.40099 129.527 7.31213C134.801 9.09171 138.218 15.0248 138.115 20.5344C138.13 20.5512 138.148 20.5645 138.168 20.5735C138.503 20.8749 138.817 21.1983 139.108 21.5416C139.107 21.5475 139.107 21.5535 139.108 21.5594C140.692 23.4858 141.749 25.79 142.176 28.2471C143.6 35.9313 141.407 39.0313 140.176 41.1454C140.176 41.1454 143.087 48.4346 137.812 54.6702C137.812 54.6702 139.076 42.5691 135.563 36.2231C134.211 33.7887 133.221 32.5999 132.559 32.0233C132.301 31.7497 131.964 31.5631 131.595 31.4895C131.571 31.4842 131.547 31.4842 131.523 31.4895C131.523 31.4895 128.804 33.8954 122.928 30.3754C122.011 30.9056 120.979 31.2038 119.921 31.2439C118.935 31.2867 117.95 31.1504 117.013 30.8417C114.817 30.1299 113.012 28.7311 110.314 28.1581L110.065 28.1083C108.177 27.7682 106.238 27.8216 104.371 28.2649C103.586 28.4311 102.82 28.678 102.086 29.0016C101.765 29.1369 101.456 29.2899 101.15 29.4536C100.226 29.9573 99.355 30.5535 98.5514 31.2332C96.5441 32.9238 94.2128 34.9881 92.5756 37.1628C92.5365 37.2161 92.5009 37.2695 92.4617 37.3194C91.5798 38.4336 90.9463 39.7236 90.6039 41.1027C90.5312 41.4542 90.4918 41.8117 90.4864 42.1705C90.4864 42.5264 90.4864 42.836 90.5113 43.1599C90.7925 48.4987 93.3942 52.0329 93.4263 55.6953C93.431 56.2765 93.3652 56.8561 93.2305 57.4215C93.1034 57.9526 92.9184 58.4682 92.6788 58.959C90.6252 63.23 90.853 66.1236 90.7462 67.5259C90.6395 68.9282 89.2763 66.3443 86.9308 60.0517C86.7671 59.6139 86.5749 59.2046 86.4005 58.8202C86.1416 58.2846 85.8405 57.7705 85.5 57.2826C83.6172 54.6168 81.076 53.8694 79.0117 55.1472C76.9474 56.4249 75.8085 60.9664 78.2322 66.1521C80.7237 71.4338 84.354 73.9039 86.2439 74.0498C90.1412 74.3559 88.4328 70.4302 91.9065 71.7186C94.1595 72.555 96.5334 79.1394 100.925 83.6417L101.093 87.265C101.093 87.265 99.7794 85.1829 94.1773 85.4854C83.8201 86.0264 78.6131 79.0255 78.4494 78.8048C78.6024 78.8369 82.3324 79.7302 83.3539 78.2318C83.6172 77.8474 78.0934 77.7905 75.0219 74.0178C74.4168 73.2811 73.4238 70.7042 73.0252 70.2131C72.1105 69.0741 71.5055 68.7111 71.3738 68.6435C71.3632 68.6409 71.3523 68.6409 71.3417 68.6435C70.8465 68.5165 70.3685 68.3301 69.9181 68.0882C68.2951 67.2518 65.6827 65.2872 64.0917 60.9023C62.4189 56.2754 63.0596 51.5204 63.6219 49.0147C63.6682 48.8083 63.7109 48.6126 63.7607 48.4346C63.9458 47.6587 64.1166 47.2209 64.1166 47.2209C63.8666 47.2903 63.6207 47.3735 63.3799 47.4701C61.8281 48.0894 58.4647 49.9223 59.7069 53.9086C59.5178 53.7373 59.3461 53.5478 59.1943 53.3427C58.3651 52.2856 56.8987 49.6127 57.5358 44.5943Z" fill="#9740E5"/>
<path d="M78.3207 29.709C78.3207 29.709 78.4844 35.4784 75.0498 38.1015C71.6152 40.7246 66.152 41.0449 64.3724 43.3583C64.3724 43.3583 64.7283 41.4933 69.0455 40.0234C72.4374 38.8667 76.0357 37.1583 78.3207 29.709Z" fill="#7D1EBF"/>
<path d="M101.061 19.8182C101.061 19.8182 96.1634 15.9458 91.3336 16.5224C86.5714 17.0919 84.411 18.8038 83.0087 19.7256C81.7203 20.5692 80.9231 21.4269 79.6097 22.637C79.6097 22.637 81.2042 21.5693 83.3611 20.3948C85.5784 19.1882 88.2514 17.9817 91.1414 17.8322C94.0314 17.6827 99.2598 18.6757 101.061 19.8182Z" fill="#7D1EBF"/>
<path d="M101.989 11.8292C101.989 11.8292 108.456 8.43016 115.514 11.0639C122.572 13.6977 124.326 17.3316 124.326 17.3316C124.326 17.3316 123.814 14.1711 122.241 11.8897C122.241 11.8897 123.746 13.4486 124.063 14.0465C124.063 14.0465 122.241 7.4336 114.546 4.2873C106.851 1.14101 98.0385 6.46551 95.8247 8.96759C95.8247 8.96759 106.954 2.45078 115.934 8.50846C115.952 8.50846 108.04 6.2484 101.989 11.8292Z" fill="#B65BED"/>
<path d="M104.246 2.72124C106.034 2.69025 107.821 2.82248 109.585 3.1163C112.66 3.61102 117.298 4.67877 121.587 9.66158C124.119 12.5619 125.399 16.3476 125.146 20.1896C125.569 17.9524 125.496 15.6496 124.932 13.4437C124.368 11.2378 123.327 9.18251 121.882 7.42288C121.874 7.41421 121.867 7.40466 121.861 7.39441C120.747 6.11865 119.365 5.10499 117.814 4.42607C117.715 4.38739 117.619 4.34221 117.526 4.29082L117.486 4.26947L117.13 4.07015C117.115 4.05728 117.097 4.04761 117.077 4.04168C112.443 1.5396 108.19 1.64993 104.246 2.72124Z" fill="#B65BED"/>
<path d="M95.4442 41.0527C96.9094 42.5793 98.6829 43.7765 100.647 44.5645C102.61 45.3524 104.719 45.7131 106.834 45.6226C100.648 41.672 98.8895 35.7211 99.6512 32.5855C101.826 23.6449 109.307 27.204 109.471 27.325C108.62 26.0686 102.427 17.9075 93.7857 25.6771C91.9064 27.3606 91.3227 30.2329 91.5434 32.9592C91.7641 35.6855 92.9706 38.4687 95.4442 41.0527Z" fill="#9740E5"/>
<path d="M78.0254 42.8467C76.2209 48.7228 72.2098 47.8864 68.2591 47.7441C65.8638 47.6658 64.5078 48.043 63.7817 48.431C63.9739 47.6551 64.1376 47.2173 64.1376 47.2173C63.8887 47.2864 63.6439 47.3696 63.4044 47.4665C63.4146 47.4508 63.428 47.4375 63.4436 47.4273C64.1269 46.897 67.2447 45.8969 71.5442 46.0392C72.8015 46.0667 74.0469 45.7909 75.175 45.2352C76.3032 44.6794 77.2809 43.8602 78.0254 42.8467Z" fill="#7D1EBF"/>
<path opacity="0.6" d="M76.8906 71.1241C75.6234 70.7462 74.3336 70.449 73.0289 70.2343C72.1142 69.0953 71.5091 68.7323 71.3774 68.6647C71.4071 68.6248 71.4392 68.5868 71.4735 68.5508C71.4735 68.5508 75.9937 69.4548 76.8906 71.1241Z" fill="#7D1EBF"/>
<path d="M124.907 20.5694C126.687 12.1307 121.811 7.42548 121.811 7.42548C122.354 7.07057 122.967 6.8341 123.608 6.73145C129.523 13.7715 124.907 20.5694 124.907 20.5694Z" fill="#7D1EBF"/>
<path d="M139.126 21.5586C138.948 25.7335 136.403 27.5879 136.403 27.5879C138.183 24.6444 138.15 21.0639 138.136 20.5479C138.495 20.8552 138.826 21.1934 139.126 21.5586Z" fill="#7D1EBF"/>
<path d="M135.336 25.4492C135.336 25.4492 135.008 29.6241 132.584 32.023C132.328 31.7474 131.99 31.5605 131.62 31.4891L131.645 31.4677C133.304 29.7587 134.565 27.7033 135.336 25.4492Z" fill="#7D1EBF"/>
<path d="M96.4406 62.7556C96.8493 63.7838 97.3786 64.7599 98.0173 65.6634C99.0455 67.0797 100.385 68.2414 101.932 69.0589C104.01 70.1713 106.358 70.6781 108.709 70.5217C109.147 70.4967 109.567 70.4576 109.965 70.4078C110.193 70.3757 110.417 70.3508 110.631 70.3152C115.219 69.6248 117.24 67.6103 118.55 65.6599C119.707 63.9372 120.347 60.5133 120.369 57.7514C120.369 57.6233 120.369 57.5023 120.369 57.3777C120.364 56.7823 120.32 56.1878 120.237 55.5981C120.237 55.5732 120.237 55.5412 120.219 55.5163C119.942 53.6691 119.443 52.313 117.425 50.8146C115.219 49.1596 111.581 48.6008 108.118 48.6969C106.41 48.7229 104.706 48.8549 103.014 49.092C101.577 49.281 100.173 49.6654 98.8395 50.2345C96.9567 51.0816 96.0918 52.8291 95.6362 54.6016C95.5012 55.1482 95.3966 55.7019 95.323 56.2601C95.3248 56.2898 95.3248 56.3195 95.323 56.3491C95.1166 57.9436 95.4867 60.4101 96.4406 62.7556ZM98.2664 62.809C97.1987 60.5845 96.7645 58.0753 96.9638 56.584C97.3197 53.8826 98.1098 52.3913 99.5157 51.7578C100.297 51.4196 101.11 51.162 101.943 50.989C102.359 50.8965 102.797 50.8182 103.263 50.747C104.889 50.5185 106.527 50.3902 108.168 50.3626C109.87 50.2928 111.573 50.4424 113.236 50.8075C114.385 51.0307 115.476 51.4887 116.439 52.1529C117.995 53.3167 118.351 54.2029 118.603 55.8651C118.719 56.7236 118.749 57.5916 118.692 58.4561C118.589 60.7945 118.045 63.4639 117.183 64.738C116.116 66.3468 114.446 68.073 110.389 68.6851C109.969 68.7456 109.524 68.8026 109.058 68.8382C108.912 68.8382 108.762 68.8667 108.609 68.8738C106.887 68.992 105.16 68.6993 103.573 68.0196C101.897 67.3123 100.443 66.1664 99.3627 64.7024C98.9402 64.1061 98.5733 63.4723 98.2664 62.809Z" fill="#5B1336"/>
<path d="M133.9 51.445C134.876 51.445 135.919 51.5127 136.815 51.5803C140.175 51.8366 141.36 54.303 141.044 60.3821C140.819 64.7207 138.196 69.1162 133.634 69.1162H133.392C130.188 69.0201 128.473 66.5714 127.889 65.5251C126.978 63.8843 126.465 59.6774 126.893 57.4849C127.273 55.5772 128.231 53.2673 129.512 52.4025C130.473 51.7511 131.865 51.4486 133.89 51.4486M133.89 49.7936C131.854 49.7936 130.014 50.0676 128.587 51.0322C126.618 52.3633 125.611 55.4526 125.273 57.161C124.764 59.713 125.337 64.3399 126.444 66.3294C127.622 68.4436 129.939 70.668 133.342 70.7713H133.623C139.339 70.7713 142.425 65.4325 142.684 60.4675C142.916 56.0043 142.684 50.3702 136.929 49.9324C135.887 49.8541 134.865 49.79 133.89 49.79V49.7936Z" fill="#5B1336"/>
<path d="M123.978 60.1143C123.451 60.1854 123.657 62.506 124.469 63.7553C125.28 65.0045 125.825 65.5348 125.615 66.3214C125.358 67.1982 124.768 67.9393 123.971 68.3857C123.223 68.7416 122.234 68.941 122.394 69.3431C122.554 69.7453 124.141 69.6421 125.654 68.585C127.167 67.528 127.284 66.4496 127.078 65.6203C126.871 64.791 125.547 63.3709 124.999 62.4847C124.582 61.7299 124.24 60.9359 123.978 60.1143Z" fill="#CB6275"/>
<path d="M85.5033 57.314C85.8438 57.8018 86.1449 58.3159 86.4038 58.8515L88.0766 58.4956L92.6607 57.5631L93.2338 57.4314L96.0811 56.7979L95.7252 55.1963L93.4295 55.7052L92.0628 56.0113L87.863 56.8371L85.5033 57.314Z" fill="#5B1336"/>
<path d="M126.409 57.2537C125.843 54.7623 124.291 54.2889 123.32 54.2319C122.348 54.175 121.54 54.3316 120.472 55.2997C120.108 55.6408 119.796 56.0342 119.547 56.4671C119.61 57.4729 119.594 58.4821 119.497 59.4852C119.656 59.3768 119.775 59.2192 119.835 59.0368C119.985 58.5777 120.568 57.1362 121.223 56.5454C122.042 55.8336 122.497 55.7909 123.149 55.8336C123.451 55.8514 124.651 55.8051 125.106 57.7946C125.131 57.9532 125.217 58.0959 125.345 58.1923C125.473 58.2887 125.634 58.3312 125.793 58.3107C126.117 58.1043 126.494 57.6238 126.409 57.2537Z" fill="#5B1336"/>
<path d="M137.09 26.1291C137.09 26.1291 138.037 19.0962 134.225 13.4122C130.413 7.72826 123.608 6.7317 123.608 6.7317C124.879 6.45765 126.844 6.40782 129.541 7.31541C134.813 9.09498 138.233 15.0281 138.13 20.5377C138.129 21.4209 138.059 22.3028 137.92 23.175C137.729 24.1817 137.451 25.1701 137.09 26.1291Z" fill="#B65BED"/>
<path d="M132.04 26.7455C132.04 26.7455 137.161 19.7767 134.574 11.8754L130.036 9.30566C130.036 9.30566 135.83 14.1141 132.04 26.7455Z" fill="#B65BED"/>
<path d="M63.818 36.7452C60.4581 39.0943 56.3651 45.3655 59.0487 52.9714C59.0914 53.0996 59.1484 53.2312 59.1911 53.3523C58.3689 52.2845 56.9025 49.6116 57.5361 44.5932C58.102 40.041 60.9671 35.6526 65.2167 34.0261C66.2289 33.6566 67.1775 33.1318 68.0284 32.4707C68.0284 32.4707 67.1671 34.3962 63.818 36.7452Z" fill="#B65BED"/>
<path d="M70.1602 68.1631L69.936 68.0955C68.313 67.2591 65.7006 65.298 64.1096 60.906C62.4368 56.2791 63.081 51.5276 63.6398 49.022C63.6567 48.9755 63.677 48.9303 63.7003 48.8867C63.7003 48.8867 63.5437 55.6491 65.7504 61.1872C67.9571 66.7252 70.1602 68.1631 70.1602 68.1631Z" fill="#B65BED"/>
<path d="M140.204 41.1584C143.948 31.9829 139.307 22.0457 139.136 21.583C140.721 23.5079 141.779 25.8109 142.208 28.2671C143.632 35.9442 141.428 39.0442 140.204 41.1584Z" fill="#B65BED"/>
<path d="M100.954 29.5277C101.018 29.5063 101.086 29.4814 101.153 29.4636C101.46 29.2999 101.769 29.1468 102.09 29.0116C102.824 28.6879 103.59 28.441 104.375 28.2748C106.242 27.8315 108.18 27.7782 110.069 28.1182C108.507 27.1799 106.679 26.7856 104.869 26.9971C103.001 27.1929 101.545 28.6699 100.954 29.5277Z" fill="#7D1EBF"/>
<path d="M90.6074 41.1093C90.9488 39.7304 91.581 38.4405 92.4617 37.3259C92.5008 37.2761 92.5364 37.2227 92.5756 37.1693C90.0842 31.3466 92.0631 24.335 99.1066 22.4131C99.1066 22.4131 88.5182 22.5519 89.1944 36.2475C89.2947 37.9536 89.7776 39.6153 90.6074 41.1093Z" fill="#7D1EBF"/>
<path d="M102.477 22.9263C102.477 22.9263 97.2164 21.8585 93.9349 26.4107C90.6533 30.9628 93.0024 36.4688 93.0024 36.4688C93.0024 36.4688 92.1446 30.9628 95.7145 27.0228C99.2843 23.0829 102.477 22.9263 102.477 22.9263Z" fill="#B65BED"/>
<path d="M149.518 164.512C143.528 165.971 134.545 163.782 131.085 155.514C130.359 153.743 129.908 151.87 129.751 149.962C129.722 154.002 129.847 157.247 129.847 157.247C129.847 157.247 122.956 160.924 117.564 161.914C112.172 162.903 97.6115 163.433 97.3339 160.326C97.0563 157.219 95.2411 147.567 93.7071 141.779C92.497 137.209 91.7353 134.398 91.3225 132.882C91.0555 131.913 90.9345 131.486 90.9345 131.486C90.874 131.711 90.8135 131.938 90.7637 132.177C90.8135 140.822 92.6749 148.549 93.3263 158.668C93.9918 169.046 87.2757 176.723 83.5244 178.069C74.509 181.307 68.5368 177.656 66.1308 176.139C64.1981 174.922 61.721 172.53 59.2901 168.665C56.8592 164.8 56.7026 158.198 59.2687 151.88C61.8349 145.563 68.0527 138.224 70.9961 131.262C73.9396 124.3 74.4912 124.606 76.5377 110.509C78.5024 96.9839 81.7377 95.6919 85.1402 94.8306C89.5749 93.7059 95.8924 97.0195 95.565 96.9661C95.0418 96.9127 95.2731 98.2154 95.871 101.027C96.469 103.839 108.122 122.955 116.92 120.35C123.511 118.392 121.034 100.903 120.967 99.1692C120.899 97.4359 119.6 97.7278 119.6 97.7278C121.383 96.0067 123.627 94.8396 126.06 94.3679C130.003 93.6561 133.324 95.2791 135.591 99.7814C139.446 107.441 142.535 122.991 144.446 125.952C144.446 125.952 145.895 123.649 153.7 126.432C161.505 129.216 164.111 137.092 164.577 142.449C165.321 150.752 159.822 161.992 149.518 164.512Z" fill="#FF2ED2"/>
<path d="M37.4661 220.006L34.9925 223.974C39.4556 222.846 43.5024 218.817 45.0044 217.176C45.4066 216.742 45.6237 216.464 45.6237 216.464H45.7162C45.8265 216.464 56.9916 214.354 58.1021 214.144C59.2125 213.934 59.7321 215.596 57.7461 219.397C57.1704 220.446 56.8686 221.624 56.8686 222.821C56.8686 224.018 57.1704 225.195 57.7461 226.245C57.7461 226.245 60.2375 222.255 62.5012 218.977C63.7651 217.21 64.876 215.338 65.8219 213.382C66.4183 212.197 66.7739 210.905 66.8682 209.581C66.8936 208.114 67.0293 206.65 67.274 205.203C67.4274 204.276 67.6841 203.368 68.0392 202.498C68.8365 200.633 78.2433 173.406 78.2433 173.406C78.2433 173.406 77.2183 170.761 72.6839 169.437C67.9965 168.067 65.7507 170.299 65.7507 170.299C65.7507 170.299 63.9035 188.991 61.6648 196.465C60.4831 200.413 59.8282 202.26 59.0986 203.363C58.9823 203.54 58.8539 203.709 58.7142 203.868C58.1554 204.513 57.5006 204.89 56.5218 205.506C53.9628 207.129 48.7486 208.631 47.5919 209.606C47.4175 209.755 47.236 209.933 47.0153 210.122C46.7946 210.311 46.5348 210.585 46.3035 210.834C45.887 211.247 45.4849 211.663 45.1717 211.994C44.8584 212.325 44.6164 212.585 44.5595 212.649C44.5595 212.649 42.7372 213.08 42.6269 213.147C40.4344 214.46 33.939 219.198 33.939 219.198C35.2879 220.265 38.1032 218.998 38.1032 218.998L38.0711 219.052L37.4661 220.006Z" fill="#FEAEB4"/>
<path d="M155.602 102.846L152.462 132.451C152.462 132.451 151.16 135.654 146.074 134.644C141.504 133.725 141.269 130.6 141.269 130.6L148.152 101.159C148.152 101.159 145.355 98.0591 143.564 92.6171C141.774 87.1752 139.592 80.9218 140.286 80.726C142.066 80.2242 143.817 82.7369 145.458 87.0506C147.017 91.1437 148.021 89.4353 148.458 88.4743C148.896 87.5133 149.12 85.9224 149.426 80.4164C149.782 74.1629 150.85 70.9348 151.562 70.6002C152.672 70.0628 152.772 72.2588 152.608 76.1632C152.445 80.0676 152.135 84.7763 153.089 85.2141C154.043 85.6519 155.224 82.6124 156.68 78.3094C158.136 74.0063 159.353 70.6002 160.894 70.3333C162.435 70.0664 161.851 73.412 160.538 77.7043C159.225 81.9966 159.047 82.9256 159.047 82.9256C159.047 82.9256 161.3 76.7611 162.41 74.7395C163.521 72.7179 164.19 72.0808 164.788 73.2304C165.144 73.8782 164.823 76.5796 163.346 81.1709C161.869 85.7622 160.268 87.6521 161.111 88.3604C161.955 89.0687 164.983 85.6697 167.162 83.4452C168.347 82.2387 169.913 82.2387 169.585 83.5378C168.696 87.0969 162.99 92.4356 162.364 94.1761C161.737 95.9165 159.04 100.454 155.602 102.846Z" fill="#FEAEB4"/>
<path d="M95.338 258.446C100.171 273.861 99.4559 287.176 98.3846 301.64C97.3133 316.105 100.072 339.809 104.887 355.248C104.887 355.248 112.436 359.284 117.344 354.045C117.344 354.045 118.682 336.057 119.288 330.964C119.288 330.964 119.643 329.541 120.241 327.01C122.708 316.493 129.164 286.827 130.15 260.386C130.15 260.386 131.161 255.674 135.428 232.123C139.696 208.572 141.643 184.316 130.819 159.933C130.819 159.933 111.671 166.104 97.4201 161.641C97.4201 161.641 98.0003 159.893 95.7793 166.033C93.5584 172.173 89.7715 178.365 87.4082 190.399C85.0449 202.432 89.8676 241.007 95.338 258.446Z" fill="#F9D64F"/>
<path d="M129.762 155.774C129.762 155.774 127.982 157.757 118.547 159.027C109.112 160.298 102.107 160.487 97.0142 158.159L97.1922 162.074C97.1922 162.074 103.396 165.804 119.433 163.694C126.434 162.768 130.823 159.928 130.823 159.928L129.762 155.774Z" fill="#5B1336"/>
<path d="M119.056 158.922C119.975 158.807 120.902 158.769 121.828 158.808C122.166 159.676 122.408 161.812 122.355 162.84C121.274 163.138 120.176 163.367 119.066 163.524C118.043 163.697 117.007 163.774 115.97 163.755C115.522 162.41 115.325 160.993 115.39 159.577C116.595 159.273 117.82 159.054 119.056 158.922ZM118.757 157.142C116.621 157.363 114.343 157.889 113.994 158.228C113.283 158.915 113.421 164.837 115.041 165.378C115.753 165.616 117.475 165.481 119.187 165.214C121.323 164.883 123.394 164.356 123.618 164.068C124.266 163.235 123.679 157.847 122.551 157.217C122.052 156.936 120.454 156.964 118.746 157.142H118.757Z" fill="#F98F23"/>
<path d="M89.8427 128.031C90.3445 129.367 90.6537 130.768 90.761 132.191C90.8144 131.956 90.8749 131.725 90.9354 131.501C90.9354 131.501 91.0564 131.924 91.3233 132.896C91.2628 131.472 91.2272 129.742 91.2842 128.6C91.4016 126.408 91.7041 120.649 91.3198 120.83C90.3944 121.257 90.5759 128.212 90.5759 128.212C89.8997 125.009 88.5792 122.396 88.1663 123.058C87.7535 123.72 89.2163 126.255 89.8427 128.031Z" fill="#DD00C4"/>
<path d="M139.087 129.507C135.606 131.118 132.825 133.934 131.257 137.434C131.257 138.06 131.235 138.697 131.232 139.356C131.232 144.082 130.911 150.848 131.072 155.507C130.345 153.736 129.895 151.863 129.737 149.955C129.737 145.951 129.972 138.299 130.349 132.97C130.726 127.642 131.417 119.641 131.385 117.545C131.353 115.449 132.278 117.933 132.228 122.606C132.189 126.414 131.556 130.532 131.317 135.675C132.417 133.444 134.745 130.066 139.087 129.507Z" fill="#DD00C4"/>
</g>
</g>
<defs>
<filter id="filter0_d_3216_8502" x="-18.6871" y="-10.156" width="242.865" height="243.662" filterUnits="userSpaceOnUse" color-interpolation-filters="sRGB">
<feFlood flood-opacity="0" result="BackgroundImageFix"/>
<feColorMatrix in="SourceAlpha" type="matrix" values="0 0 0 0 0 0 0 0 0 0 0 0 0 0 0 0 0 0 127 0" result="hardAlpha"/>
<feOffset dy="6.82993"/>
<feGaussianBlur stdDeviation="21.3435"/>
<feColorMatrix type="matrix" values="0 0 0 0 0.941176 0 0 0 0 0.772549 0 0 0 0 0.301961 0 0 0 0.25 0"/>
<feBlend mode="normal" in2="BackgroundImageFix" result="effect1_dropShadow_3216_8502"/>
<feBlend mode="normal" in="SourceGraphic" in2="effect1_dropShadow_3216_8502" result="shape"/>
</filter>
<linearGradient id="paint0_linear_3216_8502" x1="48.8474" y1="13.658" x2="162.655" y2="227.597" gradientUnits="userSpaceOnUse">
<stop stop-color="#FFFAD1"/>
<stop offset="1" stop-color="#E8AA0D"/>
</linearGradient>
<radialGradient id="paint1_radial_3216_8502" cx="0" cy="0" r="1" gradientUnits="userSpaceOnUse" gradientTransform="translate(164.712 34.0833) scale(112.117 112.117)">
<stop offset="0.22" stop-color="#FDD4E8"/>
<stop offset="0.28" stop-color="#FDD6E9" stop-opacity="0.96"/>
<stop offset="0.36" stop-color="#FDDAEB" stop-opacity="0.87"/>
<stop offset="0.47" stop-color="#FEE0EF" stop-opacity="0.71"/>
<stop offset="0.59" stop-color="#FEEAF4" stop-opacity="0.49"/>
<stop offset="0.73" stop-color="#FFF6FA" stop-opacity="0.22"/>
<stop offset="0.84" stop-color="white" stop-opacity="0"/>
</radialGradient>
<radialGradient id="paint2_radial_3216_8502" cx="0" cy="0" r="1" gradientUnits="userSpaceOnUse" gradientTransform="translate(166.959 17.2387) scale(69.4498 69.4498)">
<stop offset="0.22" stop-color="#FFEFFF"/>
<stop offset="0.27" stop-color="#FFF0FF" stop-opacity="0.96"/>
<stop offset="0.36" stop-color="#FFF1FF" stop-opacity="0.87"/>
<stop offset="0.47" stop-color="#FFF4FF" stop-opacity="0.71"/>
<stop offset="0.59" stop-color="#FFF7FF" stop-opacity="0.5"/>
<stop offset="0.73" stop-color="#FFFBFF" stop-opacity="0.23"/>
<stop offset="0.84" stop-color="white" stop-opacity="0"/>
</radialGradient>
<radialGradient id="paint3_radial_3216_8502" cx="0" cy="0" r="1" gradientUnits="userSpaceOnUse" gradientTransform="translate(162.32 48.9502) scale(168.241 168.241)">
<stop offset="0.22" stop-color="#FDD4E8"/>
<stop offset="0.28" stop-color="#FDD6E9" stop-opacity="0.96"/>
<stop offset="0.36" stop-color="#FDDAEB" stop-opacity="0.87"/>
<stop offset="0.47" stop-color="#FEE0EF" stop-opacity="0.71"/>
<stop offset="0.59" stop-color="#FEEAF4" stop-opacity="0.49"/>
<stop offset="0.73" stop-color="#FFF6FA" stop-opacity="0.22"/>
<stop offset="0.84" stop-color="white" stop-opacity="0"/>
</radialGradient>
<radialGradient id="paint4_radial_3216_8502" cx="0" cy="0" r="1" gradientUnits="userSpaceOnUse" gradientTransform="translate(43.3595 94.0579) rotate(-7.86) scale(107.287 107.287)">
<stop offset="0.22" stop-color="#FDD4E8"/>
<stop offset="0.28" stop-color="#FDD6E9" stop-opacity="0.96"/>
<stop offset="0.36" stop-color="#FDDAEB" stop-opacity="0.87"/>
<stop offset="0.47" stop-color="#FEE0EF" stop-opacity="0.71"/>
<stop offset="0.59" stop-color="#FEEAF4" stop-opacity="0.49"/>
<stop offset="0.73" stop-color="#FFF6FA" stop-opacity="0.22"/>
<stop offset="0.84" stop-color="white" stop-opacity="0"/>
</radialGradient>
<radialGradient id="paint5_radial_3216_8502" cx="0" cy="0" r="1" gradientUnits="userSpaceOnUse" gradientTransform="translate(60.4042 134.243) rotate(-7.86) scale(113.811 113.811)">
<stop offset="0.22" stop-color="#FFEFFF"/>
<stop offset="0.27" stop-color="#FFF0FF" stop-opacity="0.96"/>
<stop offset="0.36" stop-color="#FFF1FF" stop-opacity="0.87"/>
<stop offset="0.47" stop-color="#FFF4FF" stop-opacity="0.71"/>
<stop offset="0.59" stop-color="#FFF7FF" stop-opacity="0.5"/>
<stop offset="0.73" stop-color="#FFFBFF" stop-opacity="0.23"/>
<stop offset="0.84" stop-color="white" stop-opacity="0"/>
</radialGradient>
<radialGradient id="paint6_radial_3216_8502" cx="0" cy="0" r="1" gradientUnits="userSpaceOnUse" gradientTransform="translate(45.8025 111.704) rotate(-7.86) scale(224.853 224.853)">
<stop offset="0.22" stop-color="#FDD4E8"/>
<stop offset="0.28" stop-color="#FDD6E9" stop-opacity="0.96"/>
<stop offset="0.36" stop-color="#FDDAEB" stop-opacity="0.87"/>
<stop offset="0.47" stop-color="#FEE0EF" stop-opacity="0.71"/>
<stop offset="0.59" stop-color="#FEEAF4" stop-opacity="0.49"/>
<stop offset="0.73" stop-color="#FFF6FA" stop-opacity="0.22"/>
<stop offset="0.84" stop-color="white" stop-opacity="0"/>
</radialGradient>
<radialGradient id="paint7_radial_3216_8502" cx="0" cy="0" r="1" gradientUnits="userSpaceOnUse" gradientTransform="translate(100.911 70.0823) rotate(43.6639) scale(9.20858 6.78286)">
<stop offset="0.45" stop-color="#FB8994"/>
<stop offset="0.51" stop-color="#FB8A95" stop-opacity="0.98"/>
<stop offset="0.57" stop-color="#FA8C97" stop-opacity="0.92"/>
<stop offset="0.65" stop-color="#FA8F9B" stop-opacity="0.81"/>
<stop offset="0.73" stop-color="#F894A0" stop-opacity="0.67"/>
<stop offset="0.82" stop-color="#F79AA7" stop-opacity="0.49"/>
<stop offset="0.91" stop-color="#F5A1B0" stop-opacity="0.27"/>
<stop offset="1" stop-color="#F3AABA" stop-opacity="0"/>
</radialGradient>
<radialGradient id="paint8_radial_3216_8502" cx="0" cy="0" r="1" gradientUnits="userSpaceOnUse" gradientTransform="translate(135.064 66.8989) rotate(107.526) scale(7.32913 4.93286)">
<stop offset="0.45" stop-color="#FB8994"/>
<stop offset="0.51" stop-color="#FB8A95" stop-opacity="0.98"/>
<stop offset="0.57" stop-color="#FA8C97" stop-opacity="0.92"/>
<stop offset="0.65" stop-color="#FA8F9B" stop-opacity="0.81"/>
<stop offset="0.73" stop-color="#F894A0" stop-opacity="0.67"/>
<stop offset="0.82" stop-color="#F79AA7" stop-opacity="0.49"/>
<stop offset="0.91" stop-color="#F5A1B0" stop-opacity="0.27"/>
<stop offset="1" stop-color="#F3AABA" stop-opacity="0"/>
</radialGradient>
<clipPath id="clip0_3216_8502">
<rect width="212" height="184" fill="white"/>
</clipPath>
</defs>
</svg>
