<svg width="206" height="133" viewBox="0 0 206 133" fill="none" xmlns="http://www.w3.org/2000/svg">
<circle cx="11.5" cy="98.5" r="11.5" fill="#E52123"/>
<path opacity="0.5" d="M11.5 90C10.3838 90 9.27846 90.2199 8.24719 90.647C7.21592 91.0742 6.27889 91.7003 5.48959 92.4896C4.70029 93.2789 4.07419 94.2159 3.64702 95.2472C3.21986 96.2785 3 97.3838 3 98.5" stroke="white" stroke-width="2" stroke-linecap="round"/>
<circle cx="25" cy="53" r="16" fill="#F38B18"/>
<path d="M26 41C24.2928 41 22.6023 41.3363 21.0251 41.9896C19.4479 42.6429 18.0148 43.6005 16.8076 44.8076C15.6004 46.0148 14.6429 47.4479 13.9896 49.0251C13.3363 50.6023 13 52.2928 13 54" stroke="white" stroke-opacity="0.5" stroke-width="3" stroke-linecap="round"/>
<circle cx="71" cy="20" r="20" fill="#F6C401"/>
<path d="M72 5C69.8989 5 67.8183 5.43972 65.8771 6.29405C63.9359 7.14838 62.172 8.40059 60.6863 9.97918C59.2006 11.5578 58.022 13.4318 57.2179 15.4944C56.4139 17.5569 56 19.7675 56 22" stroke="white" stroke-opacity="0.5" stroke-width="3" stroke-linecap="round"/>
<circle cx="135" cy="27" r="24" fill="#94BC01"/>
<path d="M135 8C132.505 8 130.034 8.49145 127.729 9.44629C125.424 10.4011 123.329 11.8007 121.565 13.565C119.801 15.3293 118.401 17.4238 117.446 19.729C116.491 22.0342 116 24.5049 116 27" stroke="white" stroke-opacity="0.5" stroke-width="3" stroke-linecap="round"/>
<circle cx="178.5" cy="81.5" r="27.5" fill="#428500"/>
<path d="M179 59C175.98 59 172.989 59.5949 170.198 60.7508C167.408 61.9066 164.872 63.6008 162.737 65.7365C160.601 67.8723 158.907 70.4078 157.751 73.1983C156.595 75.9888 156 78.9796 156 82" stroke="white" stroke-opacity="0.5" stroke-width="3" stroke-linecap="round"/>
<circle cx="92.611" cy="98.9533" r="27.5" transform="rotate(-13.7228 92.611 98.9533)" fill="#AABED9"/>
<path d="M83.1459 68.1402C83.3359 66.2655 85.776 65.6696 86.8087 67.2458L101.35 89.4408C102.107 90.5959 101.493 92.1521 100.151 92.4797L82.9354 96.6838C81.5939 97.0114 80.3319 95.9132 80.4711 94.5393L83.1459 68.1402Z" fill="#455262"/>
<circle cx="92.6109" cy="98.9533" r="12.5" transform="rotate(-13.7228 92.6109 98.9533)" fill="#D3DCED"/>
</svg>
