<svg width="163" height="197" viewBox="0 0 163 197" fill="none" xmlns="http://www.w3.org/2000/svg">
<mask id="mask0_3306_6727" style="mask-type:alpha" maskUnits="userSpaceOnUse" x="17" y="0" width="136" height="187">
<rect x="17" width="136" height="187" fill="#C4C4C4"/>
</mask>
<g mask="url(#mask0_3306_6727)">
<path d="M124.535 155.432C125.257 156.347 125.967 157.211 126.664 158.023C126.664 158.023 126.375 156.144 125.969 153.487C125.835 152.564 125.68 151.541 125.519 150.474C124.874 146.082 124.157 140.896 123.923 138.205C123.479 132.991 122.967 119.1 119.476 116.643C118.22 115.736 116.83 115.031 115.357 114.553C114.893 114.407 114.416 114.301 113.934 114.236C111.633 113.947 109.281 114.675 107.325 117.438C103.911 122.218 114.94 143.203 124.535 155.432Z" fill="#F9A0A9"/>
<path d="M96.5071 113.33V113.358C96.5516 113.73 96.6572 114.342 96.8295 115.153C98.8918 124.737 109.793 162.487 111.16 165.983C112.325 168.577 113.944 170.941 115.941 172.965C117.986 175.083 120.388 176.856 122.611 177.412C122.611 177.412 126.847 176.184 128.415 167.406C129.982 158.629 125.797 151.213 123.195 146.583C120.593 141.952 107.997 120.779 109.203 118.894C109.837 117.905 111.738 116.232 113.912 114.236C115.614 112.487 117.201 110.63 118.665 108.677C120.932 105.258 122.558 101.455 123.462 97.4539C123.823 95.8363 123.395 93.0068 123.395 93.0068C123.195 93.0177 123.002 93.0852 122.839 93.2014C122.288 93.6384 121.91 94.257 121.772 94.9469C121.216 96.9703 115.629 105.031 111.271 107.176C106.913 109.322 103.411 112.296 101.521 112.296C100.02 112.296 97.9746 111.379 97.0296 112.113C96.7578 112.334 96.5841 112.653 96.546 113.002C96.5264 113.11 96.5134 113.22 96.5071 113.33Z" fill="#FEAEB4"/>
<path d="M96.5012 115.059C96.6082 115.098 96.7178 115.129 96.8292 115.153C97.7909 115.426 100.643 116.143 102.738 115.82C105.295 115.431 112.005 111.173 116.991 105.47C121.488 100.334 122.806 95.3973 122.811 93.2404C122.811 93.2404 122.328 92.9625 121.744 94.9859C121.16 97.0093 116.974 104.775 112.611 106.904C108.247 109.033 103.383 112.318 101.493 112.318C99.6031 112.318 96.8959 110.89 96.5179 113.024V113.352V115.081L96.5012 115.059Z" fill="#CB6275"/>
<path d="M111.782 73.9794C111.938 74.5823 112.051 75.1953 112.122 75.8138C112.122 75.8138 112.122 75.8138 112.122 75.8416L118.236 75.2857L123.362 74.8243L127.197 74.413L127.003 72.623L122.9 73.0566L118.214 73.4458L111.782 73.9794Z" fill="#5B1336"/>
<path d="M54.9437 82.0168C55.7668 86.379 58.2803 90.2391 61.9367 92.7564C63.6544 93.8237 64.9552 93.5069 66.1948 92.9955C67.4344 92.4841 68.2738 90.4884 68.5795 91.1333C68.8408 91.6891 69.1354 92.4173 69.4967 93.2845C69.8644 94.1675 70.307 95.0174 70.8197 95.8249C70.9921 96.0917 71.1755 96.3808 71.3756 96.6198C72.0095 97.4897 72.7447 98.2809 73.5658 98.9768C73.6158 99.0268 73.6714 99.0657 73.7326 99.1157C76.5787 101.473 79.2414 103.468 81.7095 105.164C87.9354 109.444 92.9161 111.784 96.5071 113.024C96.8962 113.157 97.2575 113.274 97.6188 113.38L97.8523 113.452H97.8857C98.3248 113.585 98.7306 113.702 99.1197 113.791H99.2031C100.407 114.158 101.665 114.318 102.922 114.264C104.695 113.986 107.452 112.596 110.371 110.372C111.316 109.655 112.272 108.849 113.234 107.976C113.389 107.832 113.556 107.687 113.706 107.537C114.262 106.981 114.873 106.426 115.435 105.797C117.007 104.136 118.43 102.339 119.687 100.428C119.776 100.269 119.872 100.115 119.976 99.9662C120.298 99.4517 120.593 98.9211 120.86 98.3764C120.887 98.3324 120.909 98.2858 120.927 98.2374C122.09 95.8643 122.87 93.3221 123.239 90.7052C123.367 89.8099 123.441 88.9078 123.462 88.0036C123.459 87.6445 123.431 87.286 123.378 86.9308C123.13 85.7009 122.795 84.4898 122.378 83.3064C122.311 83.0841 122.244 82.8617 122.189 82.6283C122.174 82.5847 122.163 82.5401 122.155 82.4948C121.841 81.5027 121.733 80.4564 121.839 79.4208C122.178 77.075 123.801 72.8336 123.851 70.2099C123.907 67.7473 124.446 58.1917 121.5 52.0659C121.316 51.6767 121.094 51.3043 120.899 50.9541C116.952 43.5331 107.719 43.244 107.719 43.244C106.263 45.5787 104.895 46.2569 104.895 46.2569C91.2151 37.7074 78.0073 46.1401 75.1945 50.8485C65.5555 66.9691 73.4657 75.9132 69.3633 85.0797C68.6184 86.7474 65.7223 69.8096 58.7738 71.5606C55.9221 72.2611 53.8987 76.0855 54.9437 82.0168Z" fill="#FEAEB4"/>
<g style="mix-blend-mode:multiply">
<path d="M71.2255 50.437C70.9643 50.8261 69.1521 59.6424 69.1521 59.6424L70.5807 64.5675C71.2999 60.7266 72.9681 57.1265 75.4336 54.0947C76.7098 52.4684 78.1192 50.9512 79.6472 49.5587C80.3502 52.4871 81.8876 55.1487 84.0731 57.2207C86.2586 59.2927 88.9983 60.6862 91.96 61.2323C91.96 61.2323 86.7736 58.2527 87.2961 52.1603C87.8186 46.0678 91.015 45.4897 91.015 45.4897C91.015 45.4897 96.6627 48.5081 100.937 48.6693C104.951 48.825 106.619 47.0017 106.619 47.0017C108.063 48.1477 109.825 48.8212 111.666 48.9306C113.331 49.0471 114.996 48.6926 116.469 47.9078C116.469 47.9078 121.777 53.2053 123.59 59.4256C125.402 65.646 120.61 41.6708 120.221 41.7986C119.832 41.9265 99.6089 36.4844 99.6089 36.4844L81.9819 39.4639L71.2255 50.437Z" fill="#E5C5BD"/>
</g>
<path opacity="0.88" d="M93.9234 95.0753C95.5004 91.4759 92.026 86.4757 86.1629 83.9069C80.2999 81.3381 74.2686 82.1735 72.6916 85.7728C71.1146 89.3722 74.5891 94.3725 80.4521 96.9413C86.3151 99.5101 92.3464 98.6746 93.9234 95.0753Z" fill="url(#paint0_radial_3306_6727)"/>
<path opacity="0.88" d="M120.921 98.2816C122.486 95.0739 123.351 91.5706 123.461 88.0033C123.459 87.6442 123.431 87.2857 123.378 86.9305C123.129 85.7006 122.795 84.4895 122.377 83.3061C122.311 83.0838 122.244 82.8614 122.188 82.6279C120.071 84.2594 118.543 86.5369 117.836 89.1151C116.668 93.3509 118.025 97.142 120.921 98.2816Z" fill="url(#paint1_radial_3306_6727)"/>
<path d="M62.9039 80.2214C62.2474 79.2527 61.5031 78.3465 60.6804 77.5143C60.4566 77.2697 60.169 77.0925 59.85 77.0027C59.5309 76.9129 59.1931 76.9139 58.8746 77.0058C58.5562 77.0977 58.2697 77.2768 58.0476 77.5228C57.8255 77.7688 57.6765 78.072 57.6174 78.3982C57.0338 80.5439 57.2672 82.167 57.0227 81.6556C56.0832 79.6934 56.6057 76.497 57.9121 75.6076C59.0238 74.8405 60.408 75.0517 61.7532 76.5359C62.3398 77.3098 62.8412 78.1448 63.2485 79.0263C64.1101 80.8496 64.2714 81.9336 62.9039 80.2214Z" fill="#CB6275"/>
<path d="M63.6985 91.2109C64.6164 91.2109 65.3606 90.4668 65.3606 89.5488C65.3606 88.6309 64.6164 87.8867 63.6985 87.8867C62.7805 87.8867 62.0364 88.6309 62.0364 89.5488C62.0364 90.4668 62.7805 91.2109 63.6985 91.2109Z" fill="white"/>
<path d="M98.7804 77.6532C99.0306 77.7811 99.3363 78.3981 99.3919 76.875C99.4475 75.3519 99.1028 71.911 97.4407 69.7764C95.7787 67.6418 92.9325 66.1409 88.9913 66.8358C85.0501 67.5306 83.9495 68.748 82.4875 72.3946C81.7649 74.0685 81.5076 75.9064 81.7426 77.7144C81.7426 77.7144 79.23 78.0312 79.3023 78.7483C79.3746 79.4654 83.8995 80.5549 84.4887 80.3493C85.0779 80.1436 98.7804 77.6532 98.7804 77.6532Z" fill="#7F2636"/>
<path d="M83.9551 78.5814C84.0338 80.0244 84.4191 81.4341 85.0852 82.7166C85.7514 83.9991 86.6832 85.1249 87.8185 86.0191C88.1128 86.2146 88.4278 86.3768 88.7579 86.5027C89.2463 86.6957 89.7529 86.8391 90.2699 86.9307C92.2544 87.292 94.7615 87.053 96.5014 85.4354C98.9139 83.1729 99.442 79.921 99.1863 76.797C98.9806 74.2344 96.6737 69.8874 91.5762 69.7817C87.8463 69.6984 85.6505 71.7607 84.6277 74.5623C84.5332 74.818 84.4554 75.0849 84.3776 75.3572C84.272 75.763 84.1719 76.1744 84.1052 76.5969C84.0385 77.0193 83.9885 77.4585 83.9551 77.8976C83.9551 78.1255 83.9495 78.359 83.9551 78.5814Z" fill="white"/>
<path d="M83.9551 78.5812C84.0338 80.0243 84.4191 81.434 85.0852 82.7165C85.7514 83.9989 86.6832 85.1248 87.8185 86.0189C88.1128 86.2144 88.4278 86.3766 88.7579 86.5026C89.2463 86.6956 89.7529 86.839 90.2699 86.9306C93.394 86.5081 94.8838 82.9449 94.8838 79.7041C94.8838 76.9247 93.4551 73.5227 90.7313 72.3665C87.8018 71.1213 85.8006 72.4221 84.6778 74.5011L84.6277 74.59C84.5332 74.8457 84.4554 75.1125 84.3776 75.3849C84.272 75.7907 84.1719 76.2021 84.1052 76.6245C84.0385 77.047 83.9885 77.4861 83.9551 77.9253C83.9551 78.1254 83.9495 78.3589 83.9551 78.5812Z" fill="black"/>
<path d="M86.1177 75.3298C86.0091 75.4113 85.9222 75.5184 85.8647 75.6415C85.8072 75.7646 85.7809 75.8999 85.788 76.0355C85.7951 76.1712 85.8355 76.303 85.9056 76.4194C85.9757 76.5357 86.0734 76.6331 86.1899 76.7028C86.8348 77.1531 87.4073 76.6583 87.3351 75.9801C87.2739 75.4576 86.5957 74.9962 86.1177 75.3298Z" fill="white"/>
<path d="M96.9073 55.6013C96.507 56.5185 94.2168 55.3233 90.7203 55.3066C87.2238 55.29 83.9497 57.4245 82.471 58.9643C80.9924 60.5041 80.2475 61.8938 79.8028 61.5992C79.3581 61.3046 81.048 56.4684 85.634 53.8169C90.22 51.1653 98.108 52.8552 96.9073 55.6013Z" fill="#B7516F"/>
<path d="M123.512 61.0152C123.373 61.4822 123.167 59.2809 121.099 57.2464C119.854 56.0179 118.359 55.9345 116.786 56.3458C113.656 57.1574 113.945 55.1396 114.267 54.7894C115.496 53.483 117.947 52.9383 120.276 53.9889C123.239 55.3174 123.795 60.0647 123.512 61.0152Z" fill="#B7516F"/>
<path d="M65.0051 139.412C65.0051 139.412 68.3738 150.713 71.5312 160.964C72.7541 161.347 73.9826 161.686 75.2334 161.998C80.2353 163.238 85.3618 163.908 90.5146 163.993C84.6889 156.333 74.2439 142.747 74.2439 142.747L72.4817 142.114L65.0051 139.412Z" fill="#F340E5"/>
<path d="M69.4966 93.2844C69.9871 94.4674 70.6179 95.5872 71.3755 96.6197L72.0704 92.1726C71.9183 91.7516 71.6428 91.3864 71.2798 91.1245C70.9168 90.8627 70.4833 90.7165 70.0358 90.7051C69.2131 90.7162 69.3632 92.1003 69.4966 93.2844Z" fill="#CB6275"/>
<path d="M71.2641 89.148C71.5803 89.0232 71.9297 89.0102 72.2543 89.1114C72.5789 89.2125 72.8591 89.4216 73.0485 89.7039C73.3317 90.0415 73.5147 90.4517 73.5766 90.888C75.5166 90.0152 76.3226 93.2894 76.3226 93.2894C77.2176 92.8725 78.5128 95.8909 79.1576 99.1428C79.2577 99.6375 82.0093 103.401 82.5485 103.851C85.6448 106.397 93.6662 109.782 95.4061 110.866C96.023 111.164 96.5675 111.593 97.0015 112.123C97.5909 112.987 98.0725 113.921 98.4356 114.902H101.215L102.149 115.886C102.149 115.886 99.8587 115.886 100.025 117.798C100.163 118.984 100.493 120.138 101.004 121.217C106.457 134.258 110.237 145.22 110.237 145.22C110.237 145.22 116.863 161.63 115.968 172.964C113.971 170.94 112.352 168.576 111.188 165.982C109.82 162.486 98.9192 124.736 96.8569 115.152C96.6846 114.341 96.579 113.729 96.5345 113.357V113.329C96.5288 113.227 96.5288 113.125 96.5345 113.023C92.9435 111.784 87.9628 109.443 81.7369 105.163C78.6629 102.817 75.6222 100.521 73.5932 98.976L70.9862 97.0082C70.9862 97.0082 70.9195 96.5357 70.8361 95.8242C70.597 93.723 70.3191 89.6372 71.2641 89.148Z" fill="#CB6275"/>
<path d="M62.1759 128.367C62.6521 132.154 63.6008 135.866 64.9998 139.418L72.482 142.097L74.2386 142.736C74.6332 143.292 86.1011 160.158 94.3281 169.052C95.1898 169.986 104.89 179.436 109.037 179.219C111.099 179.113 114.496 175.939 114.523 171.359C114.521 169.622 114.418 167.886 114.212 166.161C113.656 161.381 112.361 155.099 109.765 147.089C108.653 143.631 100.343 122.441 97.4411 115.309C96.9352 114.07 96.5961 113.252 96.4905 113.03C95.7957 111.679 92.3548 110.523 89.4086 109.172C86.4624 107.821 81.7485 104.642 81.7485 104.642L80.4366 102.746L78.5133 100C77.7795 96.9706 77.1958 95.5086 76.7845 94.8082C76.3064 94.0078 76.0507 94.219 76.0507 94.219C75.8749 93.753 75.6669 93.2998 75.4281 92.8626C74.6388 91.4118 74.0162 91.4229 73.6716 91.6119C73.5525 91.6744 73.4497 91.7639 73.3714 91.8732C73.2559 91.4921 73.0875 91.1291 72.8711 90.7948C72.2707 89.8386 71.448 89.3884 71.2034 90.6224C71.2034 90.7058 71.1756 90.8615 71.1645 91.0616C71.1534 91.2617 71.1645 91.6175 71.1645 91.9454C71.0082 91.8253 70.8428 91.7175 70.6698 91.623L70.6031 91.5897C69.936 91.2561 69.936 91.7008 69.936 91.7008C69.936 91.7008 69.9749 93.0461 70.0583 94.5192C70.0998 95.6744 70.2019 96.8267 70.3641 97.9712C70.3641 98.1102 70.4196 98.2547 70.4641 98.427C70.5697 98.9384 70.7309 99.6277 70.9144 100.334C71.2535 101.657 71.6426 103.113 71.9094 103.825C71.9525 103.951 72.0026 104.076 72.0595 104.197C72.2485 104.581 73.1268 105.865 73.9495 107.004C74.4239 107.773 74.9554 108.505 75.5393 109.194V109.228C75.7172 109.428 75.884 109.622 76.0952 109.828C77.1125 110.94 78.9358 112.58 80.4867 113.925C79.3123 113.137 78.0444 112.498 76.7122 112.024C75.2774 111.516 73.7824 111.199 72.2652 111.079C65.1721 110.523 61.2142 121.513 62.1759 128.367Z" fill="#FEAEB4"/>
<path d="M76.7451 112.046C82.8371 119.926 87.8198 128.605 91.5538 137.839C92.2876 141.508 92.9491 144.509 93.5161 146.933C93.5606 147.089 93.5883 147.239 93.6273 147.389C95.5395 155.41 96.5067 157.045 96.5067 156.35C96.5138 156.281 96.5138 156.212 96.5067 156.144C96.2899 154.693 89.4303 118.455 89.4303 118.455L89.2247 118.361L88.88 118.183L80.5418 113.947C79.3605 113.157 78.085 112.519 76.7451 112.046Z" fill="#F9A0A9"/>
<path d="M126.13 77.6973C126.13 78.8924 122.328 81.0826 121.005 80.3377C119.682 79.5928 120.782 74.7066 118.781 73.367C116.78 72.0273 112.427 75.0902 111.949 75.0346C111.471 74.979 111.321 71.06 113.239 69.7092C115.157 68.3585 117.052 67.0521 120.31 68.9588C123.022 70.5431 123.584 75.4015 123.573 76.8801C123.55 76.8857 126.141 77.058 126.13 77.6973Z" fill="#7F2636"/>
<path d="M116.447 70.2932C118.865 70.7268 120.632 73.1449 120.949 76.3023C121.266 79.4597 120.816 84.2625 117.692 85.5689C113.845 87.1698 112.066 84.1291 111.766 78.9705C111.51 74.4735 112.678 69.615 116.447 70.2932Z" fill="white"/>
<path d="M111.393 74.5734C111.393 74.5734 112.044 71.4605 114.445 71.9107C116.846 72.361 118.336 74.5401 118.625 77.9254C118.914 81.3107 117.619 84.7572 114.829 85.0574C111.755 85.3853 110.621 81.4775 111.393 74.5734Z" fill="black"/>
<path d="M113.361 74.3574C113.254 74.4397 113.168 74.547 113.111 74.6699C113.055 74.7929 113.029 74.9277 113.036 75.0629C113.043 75.1981 113.083 75.3295 113.152 75.4458C113.221 75.5621 113.318 75.6598 113.433 75.7304C114.084 76.1807 114.656 75.6859 114.579 75.0078C114.561 74.8741 114.511 74.7467 114.434 74.636C114.357 74.5252 114.255 74.4344 114.136 74.3709C114.017 74.3073 113.885 74.273 113.75 74.2706C113.616 74.2683 113.482 74.298 113.361 74.3574Z" fill="white"/>
<path d="M110.098 80.8154C109.543 80.9099 109.837 83.4503 110.771 84.7955C111.705 86.1408 112.327 86.6855 112.122 87.575C111.874 88.547 111.253 89.382 110.393 89.8985C109.581 90.3321 108.503 90.5712 108.725 91.0103C108.948 91.4495 110.654 91.2771 112.277 90.0597C113.901 88.8424 113.99 87.6472 113.723 86.7245C113.456 85.8017 111.955 84.3119 111.327 83.3614C110.835 82.5549 110.424 81.7022 110.098 80.8154Z" fill="#CB6275"/>
<path d="M76.7451 112.046C82.8371 119.926 87.8198 128.605 91.5538 137.839C92.3209 141.363 92.9046 144.231 93.5161 146.933C93.5606 147.089 93.5883 147.239 93.6273 147.389C94.0108 149.057 94.4166 150.685 94.8836 152.392C95.6451 155.138 96.5846 157.339 96.5067 156.361C96.5138 156.292 96.5138 156.224 96.5067 156.155C96.2899 154.704 89.4303 118.466 89.4303 118.466L89.2247 118.372L88.88 118.194C87.0178 117.271 81.0087 114.303 80.5418 113.958C79.3611 113.165 78.0856 112.522 76.7451 112.046ZM91.1981 134.626C88.9745 129.734 83.4435 118.4 78.5128 113.241C82.2539 115.904 88.263 119.2 88.263 119.2C88.263 119.2 90.4421 129.045 91.2147 134.626H91.1981Z" fill="#CB6275"/>
<path d="M67.9177 133.653C66.478 132.919 72.854 142.686 72.854 142.686L74.2326 142.736C74.2326 142.736 69.2185 134.32 67.9177 133.653Z" fill="#CB6275"/>
<path d="M79.397 107.176C78.6911 106.759 76.4786 102.996 76.1284 102.029C75.7782 101.061 74.8166 98.7933 75.5114 92.1895L76.0673 94.2184C76.0673 94.2184 75.6337 94.4074 75.9228 97.4759C76.0313 98.9328 76.2732 100.377 76.6454 101.79C77.1902 103.012 80.1252 107.615 79.397 107.176Z" fill="#CB6275"/>
<path d="M76.9509 108.271C76.6618 108.271 73.7268 104.218 73.321 102.945C72.6483 100.855 72.6428 98.9096 72.4983 97.0085C72.3537 95.1074 72.6817 91.1717 72.9986 90.4102C73.1874 90.8802 73.3199 91.3709 73.3932 91.8721C73.0902 93.5665 72.9691 95.2884 73.0319 97.0085C73.0219 98.8885 73.2802 100.76 73.799 102.567C74.4383 104.468 77.2399 108.271 76.9509 108.271Z" fill="#CB6275"/>
<path d="M70.4696 98.421C70.5808 98.9436 70.7475 99.6217 70.9254 100.333C70.9753 100.3 71.0155 100.254 71.0421 100.2C71.0421 100.2 70.8531 98.8102 70.8531 98.4822C70.8531 97.187 71.1755 91.945 71.1755 91.945L70.6864 91.4336C70.6864 91.4336 70.6864 91.5003 70.6864 91.6226C70.6197 92.5231 70.4307 96.4032 70.4696 98.421Z" fill="#CB6275"/>
<path d="M101.56 97.5099C101.277 97.7322 102.539 100.217 104.412 101.201C105.342 101.626 106.36 101.823 107.381 101.778C108.403 101.732 109.399 101.445 110.288 100.94C111.399 100.223 112.289 98.9607 112.039 98.844C111.789 98.7272 111.005 99.8835 109.42 100.278C107.748 100.633 106.004 100.393 104.49 99.6C102.733 98.6994 101.883 97.2375 101.56 97.5099Z" fill="#CB6275"/>
<path d="M94.1945 92.1673C96.0289 90.5441 98.0357 90.1661 100.22 90.2439C102.405 90.3217 106.63 93.5792 111.432 93.2068C113.384 93.0511 114.173 94.5798 114.584 95.308C114.996 96.0362 115.14 97.9262 113.511 101.423C111.705 105.314 107.013 107.476 104.061 107.537C100.926 107.599 98.0079 106.826 95.4008 104.13C92.7937 101.434 92.3935 96.0918 93.1272 94.3685C93.4051 93.5995 93.7628 92.8617 94.1945 92.1673Z" fill="#E76F83"/>
<path d="M113.539 100.789C112.625 102.195 111.409 103.379 109.979 104.254C108.548 105.129 106.941 105.674 105.273 105.848C105.051 105.848 104.828 105.848 104.6 105.848C104.052 105.841 103.505 105.804 102.961 105.737C101.225 105.567 99.5519 105.004 98.0675 104.09C96.583 103.175 95.3268 101.935 94.3944 100.461C94.0744 99.9613 93.8009 99.4328 93.5773 98.8828C93.3153 98.2798 93.1286 97.6469 93.0214 96.9983C92.5711 94.2856 93.6829 92.0788 95.2449 91.3172C95.6509 91.1142 96.0777 90.9558 96.5179 90.8447L96.857 90.7724C96.9848 90.7724 97.1071 90.728 97.2294 90.7168C99.364 90.4723 101.276 91.5785 103.9 92.7569C103.937 92.7702 103.972 92.787 104.006 92.807C104.561 93.0571 105.19 93.3073 105.846 93.563C105.957 93.6074 106.068 93.6463 106.196 93.6853C106.196 93.6853 106.196 93.6853 106.235 93.6853C110.787 95.3251 112.16 93.7631 113.667 94.28C113.781 94.3167 113.891 94.3652 113.995 94.4246C114.133 94.5015 114.258 94.599 114.367 94.7136C115.323 95.7865 115.084 98.2157 113.539 100.789Z" fill="#550C1A"/>
<path d="M102.961 105.792C101.226 105.623 99.552 105.059 98.0676 104.145C96.5831 103.231 95.3269 101.99 94.3945 100.517C94.0745 100.017 93.801 99.4882 93.5774 98.9381C93.3154 98.3351 93.1288 97.7022 93.0215 97.0537C93.1451 97.0368 93.2703 97.0368 93.3939 97.0537C94.8559 97.1148 98.8305 98.7213 101.176 102.168C101.948 103.28 102.55 104.502 102.961 105.792Z" fill="#B14355"/>
<path d="M104.651 95.9468C101.598 95.233 98.9379 93.3693 97.2244 90.7437C99.3645 90.5047 101.277 91.6109 103.923 92.7894L104.023 92.8339C104.579 93.1063 105.218 93.3897 105.863 93.5954L106.207 93.7177C106.207 93.7177 106.241 93.7177 106.252 93.7177C109.665 94.9462 111.294 94.3737 112.528 94.2347C112.939 94.2013 110.31 97.3476 104.651 95.9468Z" fill="white"/>
<path d="M43.1922 41.4147C43.1922 41.4147 39.0565 48.58 49.7794 50.3811L54.8769 39.8193C54.8769 39.8193 44.9822 50.6312 43.1922 41.4147Z" fill="#9740E5"/>
<path d="M125.73 57.136C125.73 57.136 128.882 64.8905 123.312 71.9169C123.312 71.9169 124.573 58.7425 120.477 51.9051C118.909 49.2814 117.775 48.014 117.03 47.4025C116.729 47.1026 116.339 46.9077 115.918 46.8466C115.893 46.8421 115.866 46.8421 115.84 46.8466C115.84 46.8466 112.939 49.5927 106.357 45.935C105.371 46.5519 104.249 46.9165 103.089 46.9967C102.006 47.0842 100.917 46.9711 99.8756 46.6632C97.4408 45.9572 95.4285 44.4897 92.4156 43.9616C90.2382 43.5959 88.0073 43.7097 85.8784 44.2951C85.0242 44.5098 84.1936 44.8097 83.3992 45.1901C82.0088 45.8588 80.7241 46.7278 79.5859 47.7694C75.817 51.1602 71.8869 55.9242 71.1309 60.1044C68.9074 72.3338 73.1321 76.6308 73.1321 81.7171C73.1321 86.8034 72.2538 87.098 72.5762 90.0553C72.5762 90.0553 71.5645 89.1993 70.7751 90.9837C70.7751 90.9837 68.8518 84.6522 66.0446 77.837C63.8822 72.5895 60.4857 70.5661 57.1504 72.9008C54.6545 74.6407 53.7373 80.0661 56.5946 85.6861C59.5129 91.395 62.3535 93.7353 64.4214 93.5074C67.6288 93.146 66.8951 91.3617 68.3515 90.9392C69.1575 90.7057 69.7579 92.5346 70.0692 94.5358C70.3249 96.1478 70.4749 98.4269 70.4749 98.4269C70.4749 98.4269 71.898 103.908 72.1426 104.33C72.6985 105.214 73.1988 105.937 73.1988 105.937C73.1988 105.937 66.8506 106.426 61.5252 102.93C57.2727 100.15 56.3222 96.3702 54.5211 93.6241C54.0513 92.8968 53.5351 92.2005 52.9758 91.5395C52.4632 90.8695 51.8274 90.3034 51.1024 89.8719H51.0691C50.525 89.748 49.9971 89.5614 49.4959 89.316C47.6838 88.46 44.7376 86.3976 42.8254 81.6337C40.8131 76.6308 41.3467 71.3666 41.8692 68.5983C41.9137 68.3648 41.9582 68.148 41.9971 67.9534C42.1805 67.0918 42.3362 66.6027 42.3362 66.6027C42.0639 66.6898 41.7967 66.7919 41.5357 66.9084C39.8681 67.6422 36.2215 69.7823 37.7335 74.1349C37.5299 73.9505 37.3438 73.7477 37.1776 73.529C36.2326 72.3894 34.526 69.5044 35.043 63.9678C35.4933 58.9648 38.4839 54.023 43.0922 52.083C46.2218 50.76 47.5392 48.9923 48.1729 47.4581C48.4106 46.8402 48.5748 46.1965 48.6621 45.5403C48.9123 43.8393 77.7514 23.972 79.2023 22.9992C80.3141 22.2488 86.9847 20.8925 91.1927 20.3421C92.1135 20.2046 93.0415 20.1211 93.9721 20.092C96.0493 20.0423 98.1191 20.3584 100.087 21.0259C101.776 21.5797 103.321 22.5004 104.612 23.7219C105.211 23.35 105.875 23.0936 106.568 22.9659C108.735 22.5374 110.972 22.6327 113.094 23.2438C115.829 23.9781 118.252 25.5795 119.999 27.8076C121.746 30.0357 122.723 32.7704 122.783 35.6011L122.839 35.6345C123.211 35.9048 123.562 36.2021 123.89 36.5239C125.631 38.2507 126.846 40.4369 127.392 42.8276C129.176 50.2041 127.003 54.7679 125.73 57.136Z" fill="#9740E5"/>
<path d="M108.553 35.8789C108.553 35.8789 109.248 30.4702 104.451 25.873C99.6534 21.2759 94.5727 20.7756 94.5727 20.7756C94.5727 20.7756 90.3368 21.7373 90.9372 21.1703C92.1045 21.0202 93.4109 20.0585 94.0446 20.0585C96.1329 20.0052 98.2143 20.3214 100.193 20.9924C101.88 21.5481 103.425 22.4686 104.718 23.6884C110.287 29.414 108.553 35.8789 108.553 35.8789Z" fill="#B65BED"/>
<path d="M84.5831 52.8107C85.3972 54.305 86.5203 55.6088 87.8775 56.6353C89.2347 57.6618 90.7949 58.3876 92.4544 58.7642C88.4909 54.3894 88.3853 49.4032 89.6416 47.1296C93.2159 40.6536 98.2689 44.995 98.369 45.1284C97.9798 43.9722 94.9058 36.3288 86.5509 40.5257C84.7387 41.4374 83.677 43.5386 83.2656 45.701C82.8632 48.152 83.3292 50.6666 84.5831 52.8107Z" fill="#9740E5"/>
<path d="M129.932 177.836C125.735 180.36 120.776 180.276 118.497 179.854C118.203 179.804 117.941 179.743 117.669 179.681C117.408 180.074 117.17 180.483 116.957 180.904C116.088 182.55 115.588 184.365 115.49 186.224C115.373 189.865 114.149 190.952 114.149 190.952C114.149 190.952 73.4366 190.996 73.292 190.952C73.292 190.952 69.107 189.821 68.5512 184.762C68.2565 182.2 70.052 179.437 68.351 173.255C66.65 167.074 63.3814 158.352 60.4742 147.084C57.5669 135.817 57.0666 123.737 62.7533 116.844C68.44 109.951 75.6665 110.73 79.9245 113.643L89.6302 118.962L95.2502 148.424C95.2502 148.424 96.223 150.853 102.282 149.536C108.341 148.218 109.67 143.849 109.67 143.849C109.67 143.849 110.959 145.256 113.705 144.577C118.909 143.299 118.519 139.235 118.519 139.235C118.519 139.235 114.628 132.215 112.46 127.845C110.292 123.476 108.658 120.674 109.409 119.418C110.159 118.162 114.117 114.765 114.117 114.765C114.117 114.765 118.797 114.571 120.787 117.284C125.234 123.298 126.263 138.301 126.463 142.026C126.463 142.582 126.496 142.876 126.496 142.876C126.52 142.892 126.546 142.903 126.574 142.91C126.746 142.982 127.208 143.171 127.853 143.505C131.814 145.529 135.129 148.624 137.419 152.438C141.544 159.442 137.236 173.433 129.932 177.836Z" fill="#FF2ED2"/>
<path d="M81.2315 120.284C81.1425 120.84 82.5712 123.33 84.3833 126.827C86.1344 130.201 93.233 143.064 94.3225 144.059L93.8389 141.669C93.8389 141.669 90.8316 136.921 87.563 130.985C84.2944 125.048 81.4761 118.828 81.2315 120.284Z" fill="#DD00C4"/>
<path d="M114.529 171.386C111.243 182.031 99.303 185.717 90.1143 182.504C80.9255 179.291 78.8521 171.636 78.3462 165.183C77.8404 158.729 76.9176 151.18 75.8781 148.851C74.8386 146.522 70.0024 139.957 69.5355 141.346C69.2798 142.119 70.4416 142.897 72.2538 145.238C72.5817 145.66 72.8597 146.01 73.0987 146.349C71.4311 145.082 66.7172 141.647 65.6555 142.92C65.472 143.142 68.3015 144.137 70.6584 145.949L74.5162 148.956C74.8664 149.94 75.2389 151.286 75.7781 153.404C77.4902 160.135 76.6842 169.58 80.4364 175.794C84.1886 182.009 91.4206 186.912 102.032 184.828C112.644 182.743 115.513 172.687 115.513 172.687L114.529 171.386Z" fill="#DD00C4"/>
<path d="M118.292 179.346C117.998 179.296 117.736 179.235 117.464 179.174C117.203 179.567 116.965 179.976 116.752 180.397C115.822 180.017 114.997 179.417 114.348 178.65C113.698 177.882 113.244 176.97 113.022 175.989L113.284 174.827C113.284 174.827 114.951 178.19 117.936 179.23L118.292 179.346Z" fill="#DD00C4"/>
<path d="M85.2003 151.658C85.3226 152.025 86.1453 149.673 89.5585 147.567C93.2328 145.299 94.6503 145.732 94.6503 145.732L94.3224 144.031C93.7165 144.131 91.8153 144.871 89.2027 146.627C87.0737 148.039 84.9335 150.869 85.2003 151.658Z" fill="#D010C1"/>
<path d="M126.274 141.485C126.274 142.041 126.308 142.335 126.308 142.335C125.196 141.735 122.789 141.779 120.443 140.406C119.634 139.972 118.912 139.392 118.314 138.694C118.314 138.694 121.094 140.017 122.472 140.14C123.822 140.307 125.12 140.766 126.274 141.485Z" fill="#DD00C4"/>
<path d="M109.014 144.543C109.014 144.543 112.155 152.77 113.673 157.745C116.091 165.677 115.112 171.364 113.039 174.86L113.545 176.639C113.545 176.639 117.514 171.303 116.091 163.298C114.668 155.293 109.47 143.325 109.47 143.325L109.014 144.543Z" fill="#DD00C4"/>
<path d="M78.9243 40.6486C61.8476 51.2104 49.2457 48.0585 49.2457 48.0585L45.4935 40.4596L44.6375 38.7253L91.654 13.2881L93.0048 16.351L95.6563 22.3656C95.6563 22.3656 96.001 30.1091 78.9243 40.6486Z" fill="#002B35"/>
<path d="M93.0048 16.3505C90.5589 18.4184 87.8054 20.705 84.7444 23.2101C69.2297 35.9287 63.5375 39.9311 63.5375 39.9311C63.5375 39.9311 54.9713 40.2313 45.4935 40.487L44.6375 38.7526L91.654 13.3154L93.0048 16.3505Z" fill="black"/>
<path d="M107.285 2.25884C107.285 2.25884 99.6532 9.2852 84.1441 22.0038C68.635 34.7224 62.9372 38.7247 62.9372 38.7247C62.9372 38.7247 51.8196 39.1138 40.8965 39.3362C39.8792 39.3362 38.8675 39.3807 37.8725 39.3973C36.2604 39.4307 34.665 39.4585 33.1419 39.4752C26.1322 39.553 20.5178 39.4752 20.0342 39.0972C18.7057 37.9854 56.5168 6.37793 56.1666 6.61696C55.972 6.74481 70.8363 4.99378 84.5888 3.60408C96.1901 2.43672 107.002 1.5362 107.285 2.25884Z" fill="#003242"/>
<path d="M60.4243 20.9698L35.4652 39.4362C35.4652 39.4362 32.1744 39.564 32.1799 39.5418L62.1531 18.3516C63.9653 19.7468 60.4243 20.9698 60.4243 20.9698Z" fill="black"/>
<path d="M61.2215 20.2888C62.0629 19.8778 62.4827 19.0079 62.1592 18.3458C61.8357 17.6838 60.8915 17.4804 60.0502 17.8914C59.2089 18.3025 58.7891 19.1724 59.1125 19.8344C59.436 20.4964 60.3802 20.6999 61.2215 20.2888Z" fill="#FFAD00"/>
<path d="M57.4842 61.2656C55.7165 67.7917 51.2805 67.019 46.9224 67.019C44.2875 67.019 42.8089 67.4804 42.0251 67.9362C42.2085 67.0746 42.3642 66.5854 42.3642 66.5854C42.092 66.6726 41.8247 66.7746 41.5637 66.8912C41.5637 66.8912 41.5915 66.8522 41.6082 66.8467C42.3364 66.2352 45.7273 65.0234 50.4578 65.0234C51.8451 65.0094 53.2085 64.6604 54.4318 64.0062C55.6552 63.3519 56.7024 62.4117 57.4842 61.2656Z" fill="#7D1EBF"/>
<path opacity="0.6" d="M57.2726 92.3732C55.8666 92.0059 54.4388 91.7274 52.9978 91.5393C52.4852 90.8693 51.8494 90.3033 51.1245 89.8717C51.156 89.8244 51.1913 89.7798 51.2301 89.7383C51.2301 89.7383 56.222 90.5721 57.2726 92.3732Z" fill="#7D1EBF"/>
<path d="M108.314 36.2404C110.104 27.9967 104.651 23.6886 104.651 23.6886C105.25 23.3168 105.914 23.0603 106.607 22.9326C113.233 29.4476 108.314 36.2404 108.314 36.2404Z" fill="#7D1EBF"/>
<path d="M123.94 36.5019C123.934 37.6459 123.674 38.7743 123.178 39.8051C122.682 40.8359 121.962 41.7431 121.071 42.4609C122.304 40.3825 122.916 37.9943 122.833 35.5791C123.228 35.8538 123.599 36.1625 123.94 36.5019Z" fill="#7D1EBF"/>
<path d="M119.81 40.0586C119.81 40.0586 119.604 44.6557 117.03 47.3796C116.729 47.0797 116.339 46.8848 115.918 46.8237L115.946 46.7959C117.715 44.8621 119.034 42.5615 119.81 40.0586Z" fill="#7D1EBF"/>
<path d="M78.4463 82.4447C78.9339 83.5574 79.5496 84.6096 80.2807 85.5799C81.4586 87.0966 82.9685 88.3232 84.6944 89.1653C87.0211 90.3186 89.6265 90.7907 92.2099 90.5272C92.688 90.4883 93.1494 90.4327 93.583 90.3605C93.8331 90.316 94.0777 90.2826 94.3112 90.2326C99.3141 89.3098 101.471 87.0196 102.844 84.8294C104.05 82.8949 104.628 79.1094 104.551 76.0743C104.551 75.9353 104.551 75.8019 104.551 75.6629C104.519 75.0142 104.446 74.3681 104.334 73.7285V73.6395C104.211 72.6056 103.855 71.6129 103.294 70.7358C102.733 69.8588 101.98 69.1202 101.093 68.5754C98.6026 66.8411 94.5891 66.3519 90.7869 66.5909C88.9116 66.6807 87.0438 66.8887 85.1947 67.2135C83.6225 67.4749 82.0929 67.948 80.6476 68.6199C78.6131 69.6205 77.7236 71.5716 77.3123 73.5339C77.1789 74.1565 77.0955 74.7735 77.0288 75.3683C77.0288 75.4017 77.0288 75.435 77.0288 75.4684C76.812 77.2249 77.3067 79.9265 78.4463 82.4447ZM80.453 82.4447C79.2134 80.0322 78.6297 77.2972 78.7854 75.6518C79.0856 72.6723 79.8971 71.0046 81.4147 70.2542C82.2604 69.853 83.1452 69.54 84.0551 69.3203C84.5054 69.2036 84.9835 69.1035 85.4949 69.0035C87.2728 68.6943 89.0679 68.4938 90.8703 68.4031C92.7287 68.2684 94.5967 68.3712 96.4291 68.7088C97.6998 68.9121 98.9148 69.3757 99.9978 70.0707C101.749 71.2937 102.171 72.2554 102.51 74.0675C102.669 75.0075 102.732 75.961 102.699 76.9137C102.699 79.4818 102.171 82.4336 101.276 83.8677C100.165 85.6744 98.3858 87.6311 93.9498 88.4538C93.494 88.5372 93.0048 88.615 92.499 88.6706C92.3378 88.6706 92.171 88.715 92.0043 88.7262C90.1176 88.9179 88.2124 88.6588 86.4454 87.9702C84.5798 87.2538 82.9404 86.0502 81.6982 84.4848C81.2184 83.8432 80.7962 83.1605 80.4363 82.4447H80.453Z" fill="#5B1336"/>
<path d="M120.099 68.6528C120.91 68.6528 121.766 68.6861 122.389 68.7139C126.091 68.8696 127.486 71.5378 127.359 78.2251C127.286 82.183 125.074 88.0809 119.259 88.0975C115.735 88.0975 113.784 85.4793 113.106 84.3509C112.044 82.5832 111.321 77.9805 111.722 75.5568C112.066 73.45 113.033 70.8763 114.407 69.8757C115.574 69.0308 117.33 68.6528 120.099 68.6528ZM120.099 66.835C117.475 66.835 115.096 67.1352 113.339 68.4082C111.232 69.9369 110.237 73.3722 109.926 75.2567C109.459 78.0805 110.26 83.1446 111.549 85.2903C112.917 87.5639 115.535 89.9153 119.259 89.9153H119.287C125.769 89.9153 129.071 83.8284 129.176 78.2417C129.271 73.3277 128.809 67.1241 122.467 66.8795C121.661 66.8462 120.871 66.8184 120.099 66.8184V66.835Z" fill="#5B1336"/>
<path d="M65.5332 76.4698L69.0853 76.1529L74.2161 75.6915L78.0461 75.2802L77.8516 73.4902L73.7492 73.9294L69.0631 74.3129L64.4771 74.6854L65.5332 76.4698Z" fill="#5B1336"/>
<path d="M111.165 75.3239C110.454 72.6223 108.731 72.1443 107.663 72.1165C107.083 72.0839 106.502 72.1818 105.965 72.403C105.427 72.6243 104.946 72.9633 104.556 73.395C104.169 73.786 103.841 74.2318 103.583 74.718C103.692 75.8264 103.71 76.9419 103.639 78.0533C103.809 77.9253 103.934 77.746 103.995 77.5419C104.145 77.036 104.728 75.4295 105.429 74.7625C105.68 74.4609 106.002 74.2253 106.365 74.0761C106.728 73.9269 107.122 73.8687 107.513 73.9064C107.847 73.9064 109.181 73.8175 109.737 75.9854C109.75 76.073 109.781 76.157 109.827 76.2326C109.874 76.3081 109.935 76.3737 110.007 76.4254C110.079 76.4772 110.16 76.5141 110.246 76.534C110.333 76.5539 110.422 76.5564 110.51 76.5413C110.876 76.2689 111.271 75.7297 111.165 75.3239Z" fill="#5B1336"/>
<path d="M121.794 41.0208C121.794 41.0208 122.695 34.1779 118.392 28.8747C114.09 23.5716 106.607 22.9324 106.607 22.9324C108.774 22.5039 111.011 22.5992 113.133 23.2103C115.868 23.9446 118.291 25.5459 120.038 27.7741C121.785 30.0022 122.762 32.7369 122.823 35.5676C122.836 36.4234 122.776 37.2788 122.645 38.1246C122.454 39.1148 122.169 40.0846 121.794 41.0208Z" fill="#B65BED"/>
<path d="M116.269 41.8652C116.269 41.8652 121.744 34.8834 118.742 27.379L113.74 25.1221C113.74 25.1221 120.171 29.4746 116.269 41.8652Z" fill="#B65BED"/>
<path d="M41.6524 55.0846C39.0539 57.1928 37.2002 60.0789 36.3637 63.3188C35.5272 66.5587 35.7521 69.9815 37.0053 73.0841C37.0609 73.223 37.1276 73.3676 37.1776 73.4954C36.2326 72.3559 34.526 69.4708 35.043 63.9342C35.4933 58.9313 38.4839 53.9895 43.0922 52.0495C44.1891 51.6045 45.2109 50.9933 46.1217 50.2373C46.1217 50.2373 45.249 52.383 41.6524 55.0846Z" fill="#B65BED"/>
<path d="M49.7685 89.3714L49.5184 89.2992C47.7062 88.4431 44.76 86.3808 42.8478 81.6169C40.8355 76.6139 41.3691 71.3497 41.8917 68.5814C41.9073 68.5278 41.9278 68.4757 41.9528 68.4258C41.9528 68.4258 42.0306 75.8579 44.6544 81.867C47.2782 87.8761 49.7685 89.3714 49.7685 89.3714Z" fill="#B65BED"/>
<path d="M125.729 57.1356C129.509 46.9184 124.145 36.9681 123.945 36.5234C125.686 38.2502 126.901 40.4364 127.447 42.8271C129.176 50.2037 127.002 54.7675 125.729 57.1356Z" fill="#B65BED"/>
<path d="M103.116 46.9906C102.034 47.0781 100.945 46.9651 99.9033 46.6571C97.4685 45.9511 95.4562 44.4836 92.4434 43.9555C93.4662 43.4385 95.5174 42.6047 97.5797 43.5831C99.4475 44.4669 101.087 46.557 103.116 46.9906Z" fill="#7D1EBF"/>
<path d="M91.3704 39.1193C85.4781 39.1193 83.7271 44.1223 83.4269 45.184C82.0365 45.8527 80.7517 46.7218 79.6135 47.7633L79.6636 47.5854C82.6598 36.9736 91.3704 39.1193 91.3704 39.1193Z" fill="#7D1EBF"/>
<path d="M93.8719 40.2304C93.8719 40.2304 90.0196 38.2793 86.5175 41.131C83.0155 43.9827 83.6659 48.7354 83.6659 48.7354C83.6659 48.7354 84.1662 44.2884 87.7683 41.9815C91.3704 39.6746 93.8719 40.2304 93.8719 40.2304Z" fill="#B65BED"/>
<path d="M30.1512 71.2159H30.1123C29.8862 71.203 29.6742 71.1021 29.5215 70.9349C29.3688 70.7676 29.2875 70.5473 29.2952 70.3209L30.5014 39.0859C30.5067 38.9573 30.541 38.8315 30.6016 38.7179C30.6622 38.6044 30.7477 38.5059 30.8516 38.43L60.1244 18.4182C60.2143 18.3404 60.3194 18.282 60.433 18.2467C60.5466 18.2115 60.6662 18.2001 60.7844 18.2134C60.9026 18.2266 61.0168 18.2642 61.1197 18.3238C61.2227 18.3833 61.3122 18.4635 61.3826 18.5594C61.4531 18.6552 61.5029 18.7646 61.529 18.8806C61.5551 18.9967 61.5569 19.1168 61.5342 19.2336C61.5116 19.3504 61.465 19.4612 61.3975 19.5591C61.3299 19.6569 61.2428 19.7398 61.1417 19.8024L32.2024 39.5529L31.0073 70.3988C30.9959 70.6185 30.9009 70.8256 30.7417 70.9776C30.5826 71.1295 30.3713 71.2148 30.1512 71.2159Z" fill="#FFAD00"/>
<path d="M30.118 70.9605C30.7535 70.9605 31.2686 70.4454 31.2686 69.8099C31.2686 69.1744 30.7535 68.6592 30.118 68.6592C29.4825 68.6592 28.9673 69.1744 28.9673 69.8099C28.9673 70.4454 29.4825 70.9605 30.118 70.9605Z" fill="#FFAD00"/>
<path d="M30.118 71.8215C29.7197 71.8226 29.3301 71.7055 28.9985 71.485C28.6668 71.2646 28.408 70.9507 28.2549 70.5831C28.1017 70.2155 28.0611 69.8107 28.1381 69.42C28.2151 69.0293 28.4063 68.6702 28.6875 68.3882C28.9687 68.1063 29.3273 67.914 29.7178 67.836C30.1083 67.7579 30.5132 67.7974 30.8812 67.9495C31.2492 68.1017 31.5638 68.3596 31.7852 68.6906C32.0065 69.0217 32.1247 69.4109 32.1247 69.8092C32.1247 70.3419 31.9134 70.8529 31.5373 71.2301C31.1611 71.6073 30.6507 71.82 30.118 71.8215ZM30.118 69.5145C30.0597 69.5145 30.0027 69.5318 29.9543 69.5642C29.9058 69.5966 29.8681 69.6426 29.8458 69.6964C29.8235 69.7503 29.8176 69.8095 29.829 69.8666C29.8404 69.9238 29.8684 69.9763 29.9096 70.0175C29.9508 70.0587 30.0033 70.0867 30.0605 70.0981C30.1176 70.1095 30.1769 70.1037 30.2307 70.0814C30.2845 70.0591 30.3305 70.0213 30.3629 69.9728C30.3953 69.9244 30.4126 69.8674 30.4126 69.8092C30.4126 69.731 30.3815 69.6561 30.3263 69.6008C30.271 69.5456 30.1961 69.5145 30.118 69.5145Z" fill="#FFAD00"/>
<path d="M32.0749 82.2949C31.3579 87.3867 27.7279 93.5626 27.7279 93.5626C27.7279 93.5626 27.6501 93.2179 27.5723 92.8233C27.4945 92.4286 27.4 91.9394 27.3555 91.7115C27.2443 92.2674 25.3654 94.3519 24.5761 95.3748C24.0731 96.0068 23.7402 96.7569 23.6089 97.5538C23.6089 97.5538 22.397 96.2253 21.4242 91.1334C21.0257 88.8486 21.1567 86.5028 21.8072 84.2766C22.4577 82.0504 23.6104 80.0032 25.1764 78.2925C26.6364 76.5439 27.7529 74.5353 28.4673 72.3724C28.6118 71.9499 28.723 71.5886 28.8008 71.3162C28.912 70.9382 28.962 70.7158 28.962 70.7158L30.8798 70.8937L31.0744 71.5719C31.1355 71.8276 31.2189 72.1278 31.3078 72.528C31.8304 74.7404 32.5864 78.8095 32.0749 82.2949Z" fill="#FFAD00"/>
<path d="M30.118 71.8215C29.7197 71.8226 29.3301 71.7055 28.9985 71.485C28.6668 71.2646 28.408 70.9507 28.2549 70.5831C28.1017 70.2155 28.0611 69.8107 28.1381 69.42C28.2151 69.0293 28.4063 68.6702 28.6875 68.3882C28.9687 68.1063 29.3273 67.914 29.7178 67.836C30.1083 67.7579 30.5132 67.7974 30.8812 67.9495C31.2492 68.1017 31.5638 68.3596 31.7852 68.6906C32.0065 69.0217 32.1247 69.4109 32.1247 69.8092C32.1247 70.3419 31.9134 70.8529 31.5373 71.2301C31.1611 71.6073 30.6507 71.82 30.118 71.8215ZM30.118 69.5145C30.0597 69.5145 30.0027 69.5318 29.9543 69.5642C29.9058 69.5966 29.8681 69.6426 29.8458 69.6964C29.8235 69.7503 29.8176 69.8095 29.829 69.8666C29.8404 69.9238 29.8684 69.9763 29.9096 70.0175C29.9508 70.0587 30.0033 70.0867 30.0605 70.0981C30.1176 70.1095 30.1769 70.1037 30.2307 70.0814C30.2845 70.0591 30.3305 70.0213 30.3629 69.9728C30.3953 69.9244 30.4126 69.8674 30.4126 69.8092C30.4126 69.731 30.3815 69.6561 30.3263 69.6008C30.271 69.5456 30.1961 69.5145 30.118 69.5145Z" fill="#FFAD00"/>
<path opacity="0.6" d="M31.3075 72.5389C31.2186 72.1609 31.1352 71.8385 31.0741 71.5828H31.0407C29.4676 71.7996 28.8505 71.3771 28.8172 71.3438C28.7393 71.6161 28.6282 71.9775 28.4836 72.3999C29.0568 72.541 29.6444 72.6156 30.2347 72.6223C30.4971 73.6683 30.565 74.7536 30.4348 75.8242C30.2706 77.195 29.9344 78.5397 29.4342 79.8265C30.4317 78.4498 31.0212 76.82 31.1352 75.1238C31.2031 74.2755 31.1863 73.4227 31.0852 72.5778L31.3075 72.5389Z" fill="#E78224"/>
<path opacity="0.6" d="M29.0115 87.9199C28.9233 89.6464 28.4301 91.3278 27.5718 92.8284C27.494 92.417 27.3995 91.9445 27.355 91.7166C27.355 91.7221 28.7669 89.3152 29.0115 87.9199Z" fill="#E78224"/>
<path opacity="0.6" d="M25.9153 81.7109C25.9153 81.7109 23.286 84.3403 23.0636 89.2209C22.8413 94.1016 23.3638 95.5969 23.3638 95.5969C23.3944 93.2366 23.6194 90.8828 24.0364 88.5594C24.4238 86.2177 25.0535 83.9225 25.9153 81.7109Z" fill="#E78224"/>
<path opacity="0.4" d="M107.286 2.25876C107.286 2.25876 99.6535 9.28511 84.1444 22.0037C68.6353 34.7223 62.9375 38.7246 62.9375 38.7246C62.9375 38.7246 51.8198 39.1138 40.8967 39.3361L41.0301 39.1193L62.7485 36.6734L103.289 3.05367L84.5668 3.60955C96.1903 2.43664 107.002 1.53611 107.286 2.25876Z" fill="#125868"/>
</g>
<rect y="187" width="163" height="10" rx="5" fill="#C4C4C4"/>
<defs>
<radialGradient id="paint0_radial_3306_6727" cx="0" cy="0" r="1" gradientUnits="userSpaceOnUse" gradientTransform="translate(83.4012 89.4969) rotate(41.7539) scale(10.5195 7.74844)">
<stop offset="0.45" stop-color="#FB8994"/>
<stop offset="0.51" stop-color="#FB8A95" stop-opacity="0.98"/>
<stop offset="0.57" stop-color="#FA8C97" stop-opacity="0.92"/>
<stop offset="0.65" stop-color="#FA8F9B" stop-opacity="0.81"/>
<stop offset="0.73" stop-color="#F894A0" stop-opacity="0.67"/>
<stop offset="0.82" stop-color="#F79AA7" stop-opacity="0.49"/>
<stop offset="0.91" stop-color="#F5A1B0" stop-opacity="0.27"/>
<stop offset="1" stop-color="#F3AABA" stop-opacity="0"/>
</radialGradient>
<radialGradient id="paint1_radial_3306_6727" cx="0" cy="0" r="1" gradientUnits="userSpaceOnUse" gradientTransform="translate(120.576 87.8205) rotate(105.709) scale(8.06582 5.37721)">
<stop offset="0.45" stop-color="#FB8994"/>
<stop offset="0.51" stop-color="#FB8A95" stop-opacity="0.98"/>
<stop offset="0.57" stop-color="#FA8C97" stop-opacity="0.92"/>
<stop offset="0.65" stop-color="#FA8F9B" stop-opacity="0.81"/>
<stop offset="0.73" stop-color="#F894A0" stop-opacity="0.67"/>
<stop offset="0.82" stop-color="#F79AA7" stop-opacity="0.49"/>
<stop offset="0.91" stop-color="#F5A1B0" stop-opacity="0.27"/>
<stop offset="1" stop-color="#F3AABA" stop-opacity="0"/>
</radialGradient>
</defs>
</svg>
