<svg width="163" height="200" viewBox="0 0 163 200" fill="none" xmlns="http://www.w3.org/2000/svg">
<rect y="190" width="163" height="10" rx="5" fill="#C4C4C4"/>
<g clip-path="url(#clip0_3215_33785)">
<path d="M81.9639 137.82C57.7381 139.182 52.8974 122.711 56.7744 122.522C60.6514 122.334 64.1407 121.802 65.8799 119.487C67.619 117.172 68.0953 112.686 67.1427 105.951C66.9087 104.469 66.5379 103.011 66.035 101.597C65.8356 101.077 65.8909 94.4638 79.4051 99.083C87.3474 101.797 86.6385 107.446 86.4834 108.177C86.4059 108.51 86.3505 108.886 86.2951 109.285C85.9516 112.715 86.2331 116.179 87.1259 119.509C87.7573 121.725 91.2909 121.381 95.3119 120.617C96.9023 120.309 98.4547 119.83 99.9422 119.188C103.509 117.682 106.19 136.479 81.9639 137.82Z" fill="#F38F9F"/>
<path d="M100.518 63.9467C100.706 64.567 100.928 65.1652 101.171 65.7633L113.09 62.1411L117.167 60.834L116.546 58.9287L112.182 60.3355L100.518 63.9467Z" fill="#5B1336"/>
<path d="M115.483 86.8652C115.358 87.5276 115.196 88.1822 114.996 88.8258C114.929 89.0252 114.874 89.2135 114.818 89.4129C114.021 91.8252 113.017 94.1638 111.816 96.4026C111.384 97.2223 110.93 98.0088 110.465 98.7621C110.343 98.9725 110.21 99.1719 110.088 99.3713C109.313 100.59 108.515 101.731 107.707 102.772C105.214 105.995 102.667 108.311 100.85 109.097C99.2217 109.828 87.7014 111.545 65.1372 101.265C60.4959 99.1498 56.3863 96.0924 55.1678 94.4752C54.6804 93.8216 53.1185 96.4469 52.465 96.9343C51.6575 97.3983 50.7588 97.6813 49.8311 97.7635C48.9035 97.8458 47.969 97.7254 47.0925 97.4106C44.7317 96.4386 42.5932 94.9965 40.807 93.1723C39.0208 91.348 37.6242 89.1795 36.7021 86.7987C34.4867 80.4515 36.3587 75.7215 39.9034 74.6138C45.2205 73.0187 49.6624 76.9954 48.7652 75.0901C45.9738 69.5535 44.9419 63.2959 45.8076 57.1562C46.0824 54.6438 46.5453 52.1555 47.1922 49.7123C49.5295 41.3491 55.4336 32.587 73.3344 29.4854C83.6804 27.702 91.4344 22.9499 101.105 33.6061C101.47 34.0049 101.814 34.4258 102.146 34.8579C107.374 41.6703 109.834 53.0909 110.487 55.7494C111.196 58.5741 110.687 63.6031 110.997 66.2062C111.183 67.3497 111.602 68.4429 112.226 69.4186C112.381 69.6956 112.536 69.9614 112.703 70.2273C113.494 71.373 114.204 72.5722 114.829 73.8163C114.988 74.1759 115.121 74.546 115.228 74.924C116.168 78.84 116.255 82.9126 115.483 86.8652Z" fill="#FEAEB4"/>
<path d="M61.7147 59.9362C62.1911 60.2131 64.5727 56.4469 67.6853 54.2426C70.798 52.0382 74.0547 50.9194 76.104 51.0855C79.1502 51.2739 80.6124 50.6868 80.5349 49.9778C80.4573 49.2689 79.5822 46.9095 73.2461 48.427C69.4644 49.3016 66.1482 51.5625 63.9523 54.7632C62.5788 56.5577 61.0058 59.5374 61.7147 59.9362Z" fill="#B7516F"/>
<g style="mix-blend-mode:multiply">
<path d="M102.301 35.256C102.301 35.256 98.4243 30.1162 89.8062 28.6651C88.7543 29.893 87.3281 30.7412 85.747 31.0795C84.1659 31.4177 82.5175 31.2272 81.0553 30.5371C81.0553 30.5371 80.1137 33.5169 75.8601 35.0566C71.6064 36.5963 70.0224 35.0566 70.0224 35.0566C68.7058 36.3021 67.0925 37.1901 65.3359 37.636C63.5792 38.082 61.7377 38.0711 59.9865 37.6044C59.9865 37.6044 52.7642 40.9275 54.4479 47.6846C55.8547 53.478 62.6118 56.1808 63.9078 57.2553C65.2038 58.3298 58.0258 57.931 54.4811 56.214C51.9947 54.8877 49.7482 53.1541 47.8348 51.0853L47.2256 49.6674C49.5629 41.3041 55.467 32.5421 73.3677 29.4405C83.7138 27.6571 91.4678 22.905 101.138 33.5612C101.504 33.96 101.847 34.3809 102.179 34.8129L102.301 35.256Z" fill="#E5C5BD"/>
</g>
<path opacity="0.6" d="M85.656 91.0661C86.3054 86.7465 81.1281 82.3873 74.0923 81.3295C67.0564 80.2717 60.8263 82.9159 60.1768 87.2355C59.5274 91.555 64.7047 95.9142 71.7405 96.9719C78.7764 98.0297 85.0066 95.3856 85.656 91.0661Z" fill="url(#paint0_radial_3215_33785)"/>
<path opacity="0.6" d="M109.047 77.8487C109.047 82.8556 111.706 86.5886 115.295 86.8101C116.074 82.8665 115.995 78.8013 115.062 74.8911C114.962 74.5123 114.832 74.1419 114.675 73.7834C114.044 72.542 113.334 71.3431 112.548 70.1944C112.382 69.9396 112.227 69.6627 112.071 69.3857C110.131 71.7813 109.065 74.7661 109.047 77.8487Z" fill="url(#paint1_radial_3215_33785)"/>
<path d="M48.433 83.7858C47.4095 82.8254 46.2968 81.9649 45.1098 81.2159C44.7579 80.9755 44.3571 80.8161 43.9361 80.7493C43.5152 80.6825 43.0847 80.71 42.6756 80.8297C42.2666 80.9495 41.8893 81.1585 41.5708 81.4417C41.2523 81.725 41.0007 82.0754 40.834 82.4677C39.9479 84.2732 40.9116 87.0425 40.4796 86.5219C38.8291 84.5502 39.0395 80.9058 40.8008 79.6873C42.839 78.2583 44.3566 78.5796 46.3394 79.9421C47.2122 80.6709 47.9999 81.4958 48.6878 82.4012C50.1167 84.24 50.4933 85.4031 48.433 83.7858Z" fill="#CB6275"/>
<path d="M48.2224 94.7076C49.2441 94.7076 50.0723 93.8794 50.0723 92.8577C50.0723 91.836 49.2441 91.0078 48.2224 91.0078C47.2008 91.0078 46.3726 91.836 46.3726 92.8577C46.3726 93.8794 47.2008 94.7076 48.2224 94.7076Z" fill="white"/>
<path d="M95.4336 45.3144C96.0539 45.8018 96.9623 45.1593 99.798 43.6529C100.731 43.1018 101.792 42.8065 102.876 42.7968C103.959 42.7871 105.026 43.0632 105.968 43.5975C107.519 44.2621 108.593 45.9347 108.903 45.8129C109.214 45.691 108.405 43.4645 106.112 41.4817C103.819 39.4989 101.061 40.1303 98.2029 41.5703C95.9432 42.7002 94.5474 44.6166 95.4336 45.3144Z" fill="#B7516F"/>
<path d="M73.7443 76.6191C73.3487 77.0587 72.8677 77.4132 72.3307 77.6608C71.7936 77.9083 71.2117 78.0439 70.6205 78.0592C68.4051 78.2253 66.9318 77.7933 66.7656 77.2838C66.5995 76.7742 68.7706 76.2536 69.1805 75.4117C69.5903 74.5699 67.6186 69.4854 72.7695 65.0103C74.2415 63.7391 76.0745 62.9605 78.0114 62.7837C79.9482 62.6069 81.8919 63.0407 83.5697 64.0244C86.5384 66.0958 88.2221 69.563 87.7126 70.8479C86.8929 72.8861 73.7443 76.6191 73.7443 76.6191Z" fill="#7F2636"/>
<path d="M72.4925 76.6963C72.9245 78.5572 75.6384 82.8219 80.4127 82.9216C81.5971 82.9251 82.7683 82.6726 83.8461 82.1814C84.9238 81.6901 85.8826 80.9717 86.6569 80.0754C87.4312 79.1791 88.0026 78.1261 88.3321 76.9884C88.6615 75.8507 88.7411 74.6552 88.5655 73.4839C88.2485 71.3845 87.2696 69.4412 85.7713 67.9369C84.273 66.4326 82.3335 65.4459 80.2355 65.1206C77.2557 64.9101 70.2771 67.3693 72.4925 76.6963Z" fill="white"/>
<path d="M75.7491 81.2708C73.8566 79.8391 72.7546 77.8253 72.4925 76.6963C70.9772 70.3168 73.7631 67.1504 76.6287 65.8534C78.3194 65.7603 80.0108 66.6317 81.5647 68.3884C82.7262 69.7839 83.4778 71.4743 83.736 73.2715C83.9941 75.0687 83.7487 76.9023 83.0269 78.5683C82.5012 79.7926 81.5434 80.7807 80.3362 81.3445C79.129 81.9083 77.7565 82.0083 76.4803 81.6256C76.3052 81.5625 76.0518 81.4488 75.7491 81.2708Z" fill="black"/>
<path d="M74.4752 73.3288C75.2284 73.7054 75.8266 72.365 75.3392 71.6672C74.9958 71.1576 74.4419 71.3349 74.165 71.8444C74.0351 72.0891 73.995 72.3715 74.0517 72.6427C74.1083 72.9138 74.2582 73.1566 74.4752 73.3288Z" fill="white"/>
<path d="M14.0164 74.9791C14.9247 76.7403 17.683 79.9638 17.7273 81.282C18.1496 80.3098 18.273 79.234 18.0818 78.1914C18.0272 77.1611 18.217 76.1325 18.6356 75.1895C19.2059 73.9113 19.9886 72.739 20.9507 71.7224L21.1723 71.4787C21.1723 71.4787 21.7926 80.0856 22.856 83.5306C23.864 86.7541 26.0241 92.3924 30.7651 95.361C35.196 98.1746 38.2976 98.0528 41.0558 99.9027C43.2712 101.387 45.9962 106.981 53.3626 107.369C60.9504 107.767 64.1406 103.591 65.1486 101.232C65.1486 101.232 62.4015 99.5704 59.322 97.51C54.6364 94.3752 54.9798 93.2896 54.0937 93.5998C52.5872 94.1204 53.2518 95.1838 51.8007 96.1697C48.4221 98.3851 43.0276 95.7709 39.2724 90.5314C35.5172 85.2919 35.6058 81.0272 36.8133 78.4684C37.2778 77.4545 38.0146 76.5895 38.9416 75.9695C39.8686 75.3496 40.9494 74.999 42.0638 74.9569C43.1016 74.8904 44.1305 75.1838 44.9771 75.7877C45.9223 76.6047 46.6783 77.6177 47.1926 78.7564C47.3366 79.0554 47.4695 79.3324 47.5692 79.5872C47.7796 80.0856 47.9236 80.4844 47.979 80.6949C48.123 81.1823 48.2892 81.6586 48.4664 82.1238C50.2388 86.8981 53.285 90.8194 56.4309 91.2514C57.6826 91.4176 54.9244 88.1387 54.9355 83.5971C54.9384 82.5235 54.8756 81.4506 54.7472 80.3847C54.6807 79.7976 54.6032 79.277 54.5035 78.7121C54.4038 78.1471 54.3373 77.8591 54.2487 77.4714C54.1601 77.0837 54.1269 76.9508 54.0604 76.7182C53.7661 75.6051 53.377 74.5192 52.8973 73.4726C52.8347 73.316 52.7606 73.1642 52.6757 73.0184C50.6486 68.9752 44.7556 60.756 47.9901 51.2296C48.403 50.0568 48.9182 48.9225 49.5298 47.84C49.5746 47.7685 49.6153 47.6946 49.6517 47.6185V47.7071C50.9047 50.3207 52.7026 52.636 54.9244 54.4974C61.2384 59.471 66.2675 57.5104 66.2675 57.5104C61.2163 56.5245 58.9676 54.0543 55.6777 48.2498C54.527 46.1326 53.9039 43.7692 53.861 41.3598C57.6051 36.929 60.3079 36.2422 60.6181 36.1979C62.1257 36.6426 63.7297 36.6426 65.2373 36.1979C69.1143 34.6692 69.5131 33.4729 69.5131 33.4729C70.4974 33.9386 71.5674 34.1958 72.6559 34.2282C73.7444 34.2606 74.8278 34.0676 75.8381 33.6612C79.261 32.2876 80.269 30.0058 80.3687 28.9202C81.8842 29.6099 83.5943 29.7432 85.1983 29.2968C86.6496 28.9813 88.0121 28.3455 89.1861 27.4359C89.1861 27.4359 96.1204 28.4439 100.441 33.2846C104.474 37.621 107.23 42.988 108.405 48.7926C108.527 48.7262 111.728 45.5581 110.853 38.5463C110.166 33.2846 108.372 32.1215 108.372 32.1215C108.787 30.5071 108.848 28.8221 108.552 27.1818C108.256 25.5414 107.608 23.9844 106.655 22.6173C100.751 14.5199 93.7167 15.4282 93.2736 15.3839C93.2736 14.9186 93.6613 7.33078 87.8347 3.59778C81.7423 -0.279233 69.4355 -1.94081 63.6754 3.35408C63.6754 3.35408 57.0291 0.551554 46.8935 2.99961C36.7579 5.44766 32.8476 12.9691 31.5516 15.0183C30.2556 17.0676 28.1398 21.5096 21.9477 21.3102C23.7732 23 26.1143 24.0262 28.594 24.2235C28.594 24.2235 21.9477 25.885 19.0122 29.762C16.0768 33.6391 16.0325 42.3679 13.0638 44.7938C13.0638 44.7938 16.1543 44.6498 20.1975 40.2189C20.1062 42.6982 19.1901 45.0762 17.5944 46.976C5.34301 60.7892 13.0749 73.1956 14.0164 74.9791Z" fill="#9740E5"/>
<path d="M94.8906 15.6382C96.1756 21.343 90.7256 25.0538 90.7256 25.0538C92.3184 22.0746 93.2088 18.7707 93.3287 15.3945C93.7829 15.4499 94.3146 15.5164 94.8906 15.6382Z" fill="#7D1EBF"/>
<path d="M68.8481 5.83496C68.8481 5.83496 74.9074 9.15812 77.9425 14.2093C79.5078 17.1112 80.4154 20.3219 80.601 23.6138C81.1049 21.6127 81.1728 19.5266 80.8001 17.497C80.4274 15.4673 79.6229 13.5415 78.441 11.8499C75.0735 7.23068 68.8481 5.83496 68.8481 5.83496Z" fill="#7D1EBF"/>
<path d="M57.8706 28.7643C57.8706 28.7643 49.0975 22.4503 41.4542 24.0454C36.6519 24.9096 32.2317 27.2299 28.793 30.6917C27.0276 32.3868 25.422 34.2408 23.9966 36.2303C23.9966 36.2303 26.3228 34.1478 29.5352 31.7994C32.7475 29.4511 36.8572 26.9476 41.4653 26.3384C46.0734 25.7292 54.7689 26.9366 57.8706 28.7643Z" fill="#7D1EBF"/>
<path d="M50.6262 33.4727C50.6262 33.4727 45.0876 37.7928 49.6293 47.6182C49.6293 47.6957 49.5296 47.7733 49.4963 47.8397C48.879 48.9179 48.3671 50.053 47.9677 51.2294C46.156 49.1206 45.1408 46.4435 45.0987 43.6636C45.0433 39.0223 47.1923 34.3145 50.6262 33.4727Z" fill="#7D1EBF"/>
<path d="M33.246 46.0127C33.246 46.0127 35.262 52.659 31.4625 56.6468C27.663 60.6346 22.49 61.3214 21.2051 63.9356C21.2051 63.9356 21.3159 61.1441 25.3258 58.6961C29.3357 56.248 31.4182 54.8412 33.246 46.0127Z" fill="#7D1EBF"/>
<path d="M18.6353 75.1782C19.2003 73.8971 19.9836 72.7239 20.9504 71.7111C21.0143 71.6281 21.0847 71.5503 21.1608 71.4784C24.7831 67.9559 26.1013 70.4483 35.683 66.3276C39.9034 64.5109 41.853 57.7649 41.9084 57.4658C39.9504 60.6798 37.082 63.2397 33.667 64.8211C28.0952 67.2691 19.2445 66.2722 18.6353 75.1782Z" fill="#7D1EBF"/>
<path d="M60.6397 36.1977C60.3184 36.2531 57.6378 36.8955 53.8826 41.3707C53.8133 40.1385 53.9026 38.9025 54.1485 37.6931C54.2514 36.847 54.6756 36.0728 55.3333 35.5306C55.9909 34.9884 56.8318 34.7196 57.6821 34.7798C58.7849 34.9546 59.8127 35.4473 60.6397 36.1977Z" fill="#7D1EBF"/>
<path d="M73.146 4.08475C75.8779 4.11739 78.5668 4.7688 81.0108 5.99003C82.6982 6.82051 84.2977 7.8188 85.7851 8.96979C84.8319 6.76515 83.0667 5.01193 80.8557 4.07368C78.3584 3.20604 75.6408 3.20993 73.146 4.08475Z" fill="#B65BED"/>
<path d="M43.8358 17.4442C49.131 13.6912 55.6162 12.0049 62.0688 12.7032C72.5478 14.0324 76.0593 18.1088 76.0593 18.1088C74.9688 15.7431 73.4216 13.6162 71.5066 11.8502C72.6177 12.5066 73.6769 13.2472 74.6747 14.0657C74.6747 14.0657 70.1109 6.31166 58.6239 4.47285C47.1368 2.63404 36.7686 11.8281 34.531 15.55C34.531 15.55 47.6796 4.2513 61.8473 9.33573C61.8473 9.32465 50.3381 8.74864 43.8358 17.4442Z" fill="#B65BED"/>
<path d="M70.0998 66.9817C71.8969 66.0974 73.7465 65.3243 75.6383 64.6666C79.7701 63.1822 83.5253 62.7945 85.9069 63.5588C86.7903 63.7872 87.6071 64.2214 88.2906 64.8259C88.974 65.4305 89.5047 66.1882 89.8393 67.0371C91.2239 69.7842 92.2873 75.3228 91.5673 77.8816C90.9248 80.1635 89.662 82.7999 85.1869 85.0485C84.5385 85.3824 83.8729 85.6819 83.193 85.9458C81.1982 86.7821 79.0246 87.1018 76.8735 86.8753C74.7223 86.6487 72.6631 85.8833 70.8862 84.6498C68.0537 82.5303 65.992 79.5427 65.0153 76.1425C64.395 72.8194 64.7495 70.8476 66.1231 69.5737C67.321 68.5305 68.6551 67.6548 70.0887 66.9706M69.1693 65.165C67.5693 65.9392 66.0793 66.9226 64.7384 68.0894C62.2682 70.3048 62.523 73.7831 62.9882 76.5191C64.0684 80.4154 66.4047 83.8459 69.6345 86.2781C71.6865 87.7186 74.0689 88.618 76.5609 88.893C79.053 89.168 81.5741 88.8096 83.8908 87.8511C84.6773 87.5298 85.3973 87.2086 86.1063 86.8763C91.1686 84.3285 92.7526 81.2158 93.5169 78.4576C94.4031 75.3339 93.2289 69.2747 91.6449 66.1509C91.1857 65.0771 90.49 64.121 89.6096 63.3537C88.7292 62.5865 87.6869 62.028 86.5605 61.72C83.3702 60.6123 78.9394 61.3766 74.9627 62.8277C72.9898 63.515 71.059 64.3176 69.1804 65.2315L69.1693 65.165Z" fill="#5B1336"/>
<path d="M116.037 63.603C116.037 63.603 114.84 66.7822 112.027 67.2142C109.213 67.6462 108.515 60.2023 105.713 60.4239C102.91 60.6454 99.9971 66.7711 99.9971 66.7711C99.3594 65.6788 99.0178 64.439 99.0062 63.1743C98.9945 61.9096 99.3131 60.6637 99.9306 59.5599C102.146 55.8822 104.361 54.9961 107.53 55.8268C110.232 56.5469 112.415 58.7623 113.445 62.9273C113.445 62.9273 113.445 63.8578 114.209 63.5809C115.239 63.2707 115.959 62.7833 116.037 63.603Z" fill="#7F2636"/>
<path d="M109.9 73.6386C108.017 75.3002 103.387 75.1119 100.883 70.4041C99.1997 67.2139 98.7455 64.3006 99.8532 61.642C100.961 58.9835 104.284 57.0783 108.139 60.2353C110.986 62.5725 113.855 70.1272 109.9 73.6386Z" fill="white"/>
<path d="M101.887 59.2315C103.916 58.7157 106.527 59.7109 108.261 64.3232C109.369 67.2365 108.095 71.5234 105.813 72.4428C104.625 72.9214 103.248 72.7816 102.005 72.0751C101.6 71.5967 101.222 71.0421 100.883 70.4046C99.1997 67.2144 98.7455 64.3011 99.8532 61.6425C100.26 60.6661 100.966 59.7912 101.887 59.2315Z" fill="black"/>
<path d="M101.881 65.0533C102.7 65.3191 103.143 63.9456 102.567 63.3252C102.146 62.8711 101.615 63.1148 101.393 63.6465C101.285 63.8996 101.275 64.1839 101.365 64.444C101.455 64.704 101.639 64.9212 101.881 65.0533Z" fill="white"/>
<path d="M110.986 54.9512C113.988 54.9512 115.915 57.5101 117.632 63.813C118.74 68.0555 118.264 75.0341 112.094 76.8619C111.421 77.0588 110.723 77.1595 110.022 77.161C107.903 77.0863 105.884 76.2438 104.34 74.7904C102.656 73.2286 100.452 68.5429 100.119 65.829C99.8313 63.4806 100.064 60.4344 101.227 58.939C102.745 56.9783 105.946 56.0589 109.369 55.2171C109.904 55.0778 110.455 55.0034 111.008 54.9955M111.008 52.9795C110.294 52.9852 109.584 53.0782 108.892 53.2564C105.071 54.198 101.537 55.2392 99.6208 57.6873C97.8485 59.9803 97.8596 63.957 98.1144 66.0616C98.491 69.2186 100.928 74.3695 102.966 76.2526C104.872 78.0699 107.389 79.109 110.022 79.1659C110.915 79.1674 111.803 79.0406 112.659 78.7893C119.571 76.7511 121.199 69.2408 119.582 63.2813C118.308 58.5956 116.259 52.9795 111.008 52.9795Z" fill="#5B1336"/>
<path d="M47.1482 78.7454C47.4566 79.3642 47.7195 80.0047 47.9347 80.6618L54.4591 78.679L59.9313 77.0174L64.0076 75.6992L63.3873 73.7939L59.0229 75.2008L54.0161 76.6851L47.1482 78.7454Z" fill="#5B1336"/>
<path d="M99.4324 65.7183C97.8373 63.0598 95.8433 63.0819 94.7024 63.381C94.0722 63.5263 93.483 63.812 92.9786 64.2167C92.4742 64.6213 92.0676 65.1346 91.7891 65.7183C91.4954 66.2525 91.2826 66.8274 91.1577 67.4242C91.6197 68.5671 91.9901 69.745 92.2654 70.9467C92.4026 70.7415 92.4616 70.4939 92.4316 70.2489C92.4286 69.0817 92.6583 67.9256 93.1073 66.8482C93.283 66.4473 93.5531 66.0949 93.8945 65.821C94.2359 65.5471 94.6385 65.3599 95.068 65.2752C95.4224 65.1866 96.796 64.677 98.0809 66.8149C98.1711 66.9893 98.3257 67.1216 98.5119 67.1837C98.6981 67.2457 98.9012 67.2327 99.0779 67.1472C99.2561 66.9605 99.3826 66.7304 99.4448 66.4798C99.5069 66.2292 99.5027 65.9667 99.4324 65.7183Z" fill="#5B1336"/>
<path d="M98.8454 71.0469C98.2583 71.3127 99.3217 73.9491 100.717 75.1233C102.113 76.2974 102.933 76.6962 102.933 77.7153C102.941 78.8283 102.516 79.9009 101.748 80.7062C101.005 81.404 99.9199 81.98 100.252 82.3899C100.584 82.7998 102.401 82.113 103.786 80.3406C105.17 78.5683 104.894 77.2501 104.373 76.375C103.852 75.4999 101.781 74.2925 100.828 73.4506C100.092 72.7149 99.4276 71.91 98.8454 71.0469Z" fill="#CB6275"/>
<path d="M104.683 87.9729C103.918 87.275 104.317 89.5015 101.559 90.0886C98.8007 90.6757 95.965 88.6597 95.544 88.9809C95.1231 89.3021 97.4272 92.8801 101.083 92.4813C104.062 92.2154 105.292 88.5489 104.683 87.9729Z" fill="#CB6275"/>
<path d="M49.0866 163.153C54.6252 179.68 60.2302 190.281 63.4869 190.846C64.8826 191.079 83.3594 190.99 91.6672 190.946C95.4778 190.946 99.4213 191.012 101.637 190.359C102.955 189.982 103.741 189.683 103.741 189.683C105.547 187.224 105.104 188.055 104.849 185.706L119.526 183.702L121.908 150.47C121.121 142.893 120.169 141.32 116.967 132.359C115.86 129.169 112.16 122.954 109.834 121.215C107.508 119.476 103.431 116.784 99.244 119.277C97.9854 119.822 96.6898 120.277 95.367 120.639C95.367 120.639 93.1516 125.535 81.9969 126.255C66.8876 127.219 59.9201 122.766 59.5324 122.19C57.0823 120.684 54.2663 119.88 51.3907 119.864C45.1874 120.152 42.8723 124.184 41.3215 130.132C39.7707 136.081 44.2348 148.819 49.0866 163.153Z" fill="#F9D64F"/>
<path d="M117.699 155.277C117.61 154.889 117.699 148.498 116.148 151.588C114.597 154.679 111.407 173.576 111.407 173.576L112.37 177.165L117.699 155.277Z" fill="#E7AA3C"/>
<path d="M104.45 136.712C104.45 136.712 109.468 145.197 111.407 183.17L112.614 182.062C112.614 182.062 111.795 149.074 104.45 136.712Z" fill="#E7AA3C"/>
<path d="M65.4917 139.581C65.4917 139.581 73.5227 169.368 75.2729 173.632L113.533 179.68L113.29 178.517L76.0482 172.658C76.0482 172.658 68.5822 145.197 65.4917 139.581Z" fill="#E7AA3C"/>
<path d="M100.994 106.15C104.041 105.124 107.219 104.538 110.432 104.411C108.549 101.782 106.959 98.9554 105.691 95.9809C104.528 92.5913 103.708 89.0023 104.772 87.6398C104.772 87.6398 104.916 87.0306 106.522 90.0657C108.261 93.3889 116.303 103.912 117.178 104.4C118.053 104.887 128.421 113.084 130.581 118.268C131.268 119.874 131.833 139.248 131.833 154.247V154.369C129.273 155.425 126.49 155.825 123.736 155.532C119.205 155.078 117.089 153.527 116.07 152.63C116.957 147.313 117.832 142.239 118.485 138.539C120.557 126.82 121.299 123.164 121.299 123.164C121.299 123.164 111.529 116.795 110.1 115.41C108.723 115.631 107.328 115.72 105.935 115.676C106.104 116.78 106.074 117.906 105.846 118.999C105.846 118.999 108.549 121.126 107.297 123.43L103.132 119.852C103.132 119.852 102.025 114.524 102.025 113.649C102.027 113.473 102.005 113.298 101.958 113.128C101.878 112.887 101.786 112.651 101.681 112.419C101.537 112.067 101.455 111.692 101.437 111.312C101.437 111.312 101.205 111.622 100.806 112.054C99.6097 113.317 96.9623 115.643 94.2705 114.701L100.994 106.15Z" fill="#F38F9F"/>
<path d="M126.505 186.56C125.896 187.822 124.964 188.9 123.802 189.683C122.004 190.305 120.111 190.609 118.208 190.581H116.779H115.594L91.6342 190.88C92.1648 188.656 92.4692 186.385 92.5425 184.101C92.4499 181.422 92.0787 178.76 91.4348 176.158C91.4348 176.158 99.4768 177.41 110.443 179.072C112.061 179.315 113.766 179.437 115.461 179.636C125.309 180.744 125.918 184.488 125.918 184.488C126.151 185.242 126.35 185.928 126.505 186.56Z" fill="#F38F9F"/>
<path d="M100.85 112.022C101.249 111.59 101.482 111.28 101.482 111.28C101.482 109.419 102.49 108.964 102.49 108.964C104.802 108.158 107.177 107.543 109.59 107.126C110.499 106.971 110.277 106.483 109.535 106.649C106.938 106.869 104.396 107.52 102.013 108.577C102.013 108.577 100.939 109.252 100.85 112.022Z" fill="#CB6275"/>
<path d="M101.725 112.342C101.83 112.574 101.922 112.81 102.002 113.051C101.996 113.015 101.996 112.977 102.002 112.94C102.445 112.032 110.066 111.323 110.066 111.323C110.066 111.323 110.587 111.235 110.132 111.068C109.025 110.692 103.287 111.456 101.736 112.287C101.728 112.304 101.725 112.323 101.725 112.342Z" fill="#CB6275"/>
<path d="M111.761 179.581C111.673 182.484 113.977 187.568 116.192 189.429C116.557 189.767 117.004 190.003 117.488 190.116C124.19 191.223 127.247 187.568 129.13 184.433L129.64 183.547C129.636 183.521 129.636 183.495 129.64 183.469C129.74 183.292 129.839 183.115 129.928 182.938L130.094 182.65C131.9 179.426 131.822 169.28 131.8 154.348C129.24 155.404 126.456 155.804 123.703 155.511C119.172 155.056 117.056 153.506 116.037 152.608C114.088 164.162 112.016 176.867 111.75 179.194C111.772 179.304 111.761 179.437 111.761 179.581Z" fill="#F9D64F"/>
<path d="M68.4604 177.1C68.4604 177.1 72.3375 172.835 75.5609 173.101L76.4693 173.61C73.6451 174.38 70.9474 175.556 68.4604 177.1Z" fill="#E7AA3C"/>
<path d="M69.3579 172.713C69.3579 172.713 76.2036 172.835 76.4694 173.61L75.4282 172.193C73.3937 171.84 71.3026 172.019 69.3579 172.713Z" fill="#E7AA3C"/>
</g>
<defs>
<radialGradient id="paint0_radial_3215_33785" cx="0" cy="0" r="1" gradientUnits="userSpaceOnUse" gradientTransform="translate(71.9732 91.1028) rotate(26.6439) scale(11.6876 8.60886)">
<stop offset="0.45" stop-color="#FB8994"/>
<stop offset="0.51" stop-color="#FB8A95" stop-opacity="0.98"/>
<stop offset="0.57" stop-color="#FA8C97" stop-opacity="0.92"/>
<stop offset="0.65" stop-color="#FA8F9B" stop-opacity="0.81"/>
<stop offset="0.73" stop-color="#F894A0" stop-opacity="0.67"/>
<stop offset="0.82" stop-color="#F79AA7" stop-opacity="0.49"/>
<stop offset="0.91" stop-color="#F5A1B0" stop-opacity="0.27"/>
<stop offset="1" stop-color="#F3AABA" stop-opacity="0"/>
</radialGradient>
<radialGradient id="paint1_radial_3215_33785" cx="0" cy="0" r="1" gradientUnits="userSpaceOnUse" gradientTransform="translate(117.261 71.3115) rotate(107.526) scale(9.01605 6.06824)">
<stop offset="0.45" stop-color="#FB8994"/>
<stop offset="0.51" stop-color="#FB8A95" stop-opacity="0.98"/>
<stop offset="0.57" stop-color="#FA8C97" stop-opacity="0.92"/>
<stop offset="0.65" stop-color="#FA8F9B" stop-opacity="0.81"/>
<stop offset="0.73" stop-color="#F894A0" stop-opacity="0.67"/>
<stop offset="0.82" stop-color="#F79AA7" stop-opacity="0.49"/>
<stop offset="0.91" stop-color="#F5A1B0" stop-opacity="0.27"/>
<stop offset="1" stop-color="#F3AABA" stop-opacity="0"/>
</radialGradient>
<clipPath id="clip0_3215_33785">
<rect width="122.359" height="191" fill="white" transform="translate(10)"/>
</clipPath>
</defs>
</svg>
