<svg xmlns="http://www.w3.org/2000/svg" width="223" height="221" fill="none">
  <rect width="163" height="10" x="30" y="211" fill="#C4C4C4" rx="5"/>
  <g clip-path="url(#a)">
    <path fill="#9740E5" d="M94.1418 43.9767c-.4694 1.0617-1.1108 2.1377-1.9671 3.2173L59.3429 84.1623c-1.6052-.3085-2.5583-.0646-3.4648.5846 0 0-.0036 0-.0072.0036-.2651.1937-.4801.495-.8097.6707-1.788.9505-5.2528 1.6104-9.0939 1.0832-5.5681-.764-8.6245-4.2359-11.018-6.7825-.0788-.0861-.1576-.1721-.2329-.2511-2.4221-2.5645-2.9488-3.5436-5.1381-3.4934-2.1893.0466-6.0303-.3408-9.3877-5.1685-3.3537-4.8277-3.0993-8.5112-2.8091-10.1504.1433-.8034.1326-1.6821.0215-2.4174-.0537-.3766-.1326-.7174-.2293-.9899-.1039-.2834-.2186-.495-.3404-.5954 0 0-.0752.0322-.2078.0932l-.0788.0395c-.6271.3228-2.1105 1.2194-2.7626 2.8729-.8349 2.1269.2472 4.3758.2472 4.3758s-1.9778-1.3701-3.4935-3.8772c-.57326-.9433-1.08206-2.0516-1.3902-3.3034-1.143-4.5838.885-9.7487 4.3176-12.2486 2.9489-2.1484 3.9199-3.4719 4.4394-4.5767.0825-.1793.1541-.355.2222-.5272-.0896.0933-1.4117 1.3737-3.687-.4089-.9459-.7317-1.3365-1.8471-1.4655-2.9196-.197-1.6032.1935-3.1168.1935-3.1168s.5876 3.3213 2.6049 2.9913c2.0209-.3264 4.8157-5.1147 5.3854-8.5364 0 0-.0717.0359-.2007.0753-.2078.0646-.5661.1507-1.0283.1686-1.2398.0502-3.1997-.434-4.8479-3.3356-.0789-.1435-.1577-.2906-.2365-.4448 0 0 .0322.0251.0896.0646.498.3228 2.9381 1.7288 4.6795-.7819 1.942-2.812 4.1707-10.6275 10.4052-16.16176.4443-.39454.8886-.77473 1.3365-1.1334C34.8992 3.0846 38.6399 1.1155 43.1474.351529c2.9525-.498553 6.2274-.477033 9.9861.139882 4.8729.796249 7.6642 2.811979 7.9938 3.063049.0143.00718.0215.01435.0358.02511 0 0 .3548-.41247 1.1395-.88592 1.3508-.81059 3.9879-1.800527 8.3342-1.22665 7.4994.98634 9.7173 8.895 9.7173 8.895s.0394.0323.1111.0933c.0251.0179.0573.043.0931.0681.1684.1256.4408.3121.8277.5058.7776.4017 2.0245.5846 3.6512.9612 4.8801 1.1298 10.8925 9.4797 7.4026 18.2098 0 0 4.9482 6.4668 1.702 13.7765Z"/>
    <path fill="#B65BED" d="M70.6367 1.46342c-4.3462-.573877-6.9798.41964-8.3342 1.22665-.7811.47704-1.1394.88592-1.1394.88592s5.0844-1.31274 9.9215-.01434c2.6658 2.1592 6.9046 6.87935 4.8551 14.00255 0 0 3.8482-5.2366.8958-10.87853 2.8485 2.29909 3.6583 4.19643 3.6583 4.19643l-.0323-.434c-.0716-.0609-.1075-.0932-.1075-.0932s-2.2179-7.90872-9.7208-8.89507l.0035.00359Z"/>
    <path fill="#B65BED" d="M66.1221 9.14253s-.4693-1.9153-4.9589-5.56299c-.0144-.01076-.0215-.01793-.0359-.02511-.3296-.24748-3.1208-2.2668-7.9938-3.06305-3.7587-.616914-7.0372-.634848-9.9861-.136295-.2042 1.258935-.3439 2.130505-.3439 2.130505s6.6072-.77473 13.1785.82495C64.37 9.42947 66.3085 17.5498 66.3085 17.5498c-.172-8.61888-6.3349-12.56427-9.2766-13.96309 3.4684.98635 6.8293 2.67928 9.0902 5.55941v-.00359ZM92.4399 30.2001c1.555-6.5601-2.8092-13.3712-6.643-15.8461-3.8339-2.4748-5.303-3.4683-5.303-3.4683s.0251-.1327.0609-.3623c.1684.1256.4443.3121.8277.5058.7775.4017 2.028.5846 3.6512.9612 4.8801 1.1298 10.8925 9.4761 7.4026 18.2097h.0036Z"/>
    <path fill="#7D1EBF" d="M56.3475 20.122s-3.0169-1.8544-7.1662.8608c-3.1961 2.091-3.9879 6.1404-2.5583 10.7027 1.4297 4.5588 2.3362-.8679 2.3362-.8679s-2.1104-8.0881 7.3883-10.692v-.0036Z"/>
    <path fill="#7D1EBF" d="M67.7702 23.4928s-1.2433 1.6499-2.9847 1.0007c-1.7413-.6492-4.4036-2.6075-5.4462-2.8084-1.0427-.2009-5.3603 1.4311-5.3603 1.4311l-1.3186 2.4605.7883 1.4669 7.8505.2511 4.4.1184 2.0639-3.9203h.0071Z"/>
    <path fill="#5B1336" d="m87.1153 52.976 10.1007-5.233-.4156-1.6678-11.086 5.5056 1.4009 1.3952Z"/>
    <path fill="#F9A0A9" d="M79.9849 129.807c-6.2094 2.234-14.2857-7.988-16.6792-11.689-2.3935-3.705-13.8701-14.498-10.8496-16.097 3.7945-2.012 8.2626-2.2384 8.7033-8.5152.0108-.165.0466-.3336.061-.5057.4586-4.9138-1.9098-12.4567-1.6447-14.6769l16.3532 3.0559s.2293 7.8011 1.1251 12.5966c.7488 4.0135 5.8547 6.9043 5.8547 6.9043s6.1128 7.658 6.3027 11.488c.4622 9.286-3.0206 15.201-9.2265 17.439Z"/>
    <path fill="#E5A898" d="M77.0542 93.9757c-1.3831.6599-3.3896 1.2015-6.3098 1.3557-4.2029.2224-7.3632-1.0006-9.5238-2.3313.4586-4.9138-1.9098-12.4567-1.6446-14.6769l16.3531 3.0559s.1505 7.8155 1.1251 12.5966Z" opacity=".4" style="mix-blend-mode:multiply"/>
    <path fill="#FEAEB4" d="M94.2851 63.3913c-.0107 2.1448-.3189 4.8564-1.2182 7.4603-.0108.0467-.0287.0897-.0466.1435-.1827.538-.3977 1.0868-.6342 1.614-.0824.1614-.1469.3157-.2114.4771-.9638 2.0085-2.1033 3.9023-3.3358 5.6203-.4551.6528-.928 1.2733-1.4153 1.8651-.1219.1614-.258.3264-.387.4735-.799.954-1.6017 1.8364-2.4007 2.6398-2.4831 2.4605-4.9231 4.0996-6.5499 4.6269-2.8521.9146-11.4443.8034-21.9176-6.1692-6.5535-4.365-10.0542-9.0206-10.4232-9.4582-.4407-.52-.7202 1.4957-1.7629 2.2884-1.0283.7747-2.1534 1.3701-3.9951.7998-1.8417-.5595-6.6359-3.0236-9.0222-8.2494-2.3792-5.2223-1.4225-9.2394 1.0463-10.5916 6.0088-3.2783 12.8632 11.4344 14.2104 12.5356 2.3505 1.9296 2.4616-.9971 1.0284-5.2761-.5984-1.7754-2.1821-3.6692-2.9453-5.6957-.7668-2.0121-1.7485-4.3794-2.4186-7.1806-1.1215-4.695-1.3472-10.6131 1.8668-18.1344.6163-1.4419 1.9994-3.307 4.031-5.0752 3.9485-2.8766 9.015-3.5616 11.627-3.1312 2.8952.4734 5.4427.3192 6.9799-.4771.7166-.373 1.3508-1.0078 1.813-1.5781.9818.2044 1.9886.4699 3.0134.807 0 0 1.7808.5201 4.1062-.7604.6091-.3335 1.641-1.3199 1.641-1.3199 2.8307.5524 6.3385 1.9297 8.7571 5.2904.1576.226.3225.4448.4873.6671.0824.1112.1576.2188.2293.3336 1.1466 1.736 2.071 3.3859 2.8271 5.0286.4263.9254.7954 1.8471 1.1215 2.7797.8993 2.5609 1.4475 5.2043 1.8381 8.2028.326 2.482-.6987 6.7036-.7202 8.9632-.0215.8931.283 1.8938.6915 2.8658.0179.0394.0358.0861.0502.1219.086.2116.1791.4161.2687.6169.5375 1.1872 1.1538 2.335 1.4153 3.2962.0824.2619.1505.6026.215 1.0079.086.6886.1397 1.5746.1326 2.5753l.0071-.0036Z"/>
    <path fill="#B7516F" d="M49.7258 45.311c.1469.3515 2.5978-3.2532 7.3059-4.9605 5.5431-2.0085 9.316-.9684 9.2229-2.5286-.0896-1.4706-5.1919-2.4067-9.9431.0646-4.0596 2.1089-7.1231 6.144-6.5857 7.4245ZM81.2535 37.5706c-.5052 1.8831 3.1173.0969 6.4531 1.0258 3.3359.929 4.5505 5.5523 4.4717 4.7668-.0824-.7855.043-4.5157-2.5941-6.3341-3.1102-2.1413-7.8076-1.4096-8.3307.538v.0035Z"/>
    <path fill="#E5C5BD" d="M86.2125 27.6034c-4.1492-4.2682-9.1727-5.1757-9.1727-5.1757s-.8456 1.4275-3.8697 2.0516c-3.0205.6205-4.8945-.7388-4.8945-.7388s-2.3577 3.3428-7.503 2.8227c-3.2391-.33-5.6791-.2762-5.6791-.2762-4.1564 5.6527 3.6475 12.74 3.6475 12.74-10.0899 1.1657-11.6414-7.3204-11.6414-7.3204s-2.3648 1.6104-4.1814 6.804c-1.4727 4.2179-1.2469 10.032-1.0248 12.8081-1.1215-4.695-1.3472-10.6131 1.8668-18.1344.6163-1.4419 1.9993-3.307 4.031-5.0752 3.9485-2.8766 9.015-3.5616 11.627-3.1312 2.8952.4734 5.4427.3192 6.9799-.477.7166-.3731 1.3508-1.0079 1.813-1.5782.9818.2044 1.9886.4699 3.0134.807 0 0 1.7808.5201 4.1062-.7604.6091-.3335 1.641-1.3199 1.641-1.3199 2.8307.5524 6.3385 1.9297 8.7571 5.2904.1576.226.3224.4448.4873.6671l-.0036-.0035Z" style="mix-blend-mode:multiply"/>
    <path fill="url(#b)" d="M46.6625 63.5674c-2.3397 3.3859.3368 7.4532 5.9766 9.0816 5.6398 1.6283 8.5671 1.137 11.2867-1.9512 2.7195-3.0882.5375-7.4388-4.873-9.72-5.4104-2.2811-10.0541-.7962-12.3903 2.5896Z" opacity=".6"/>
    <path fill="url(#c)" d="M93.0669 70.856c1.315-3.827 1.3651-7.8621 1.0856-10.0392-.0644-.4053-.1325-.746-.2149-1.0043-.258-.9612-.8779-2.109-1.4118-3.2962-.0895-.2008-.1827-.4053-.2687-.6169-1.6769 1.6391-2.9166 4.053-3.2857 6.6964-.5625 4.1462 1.2075 7.55 4.0955 8.2566v.0036Z" opacity=".6"/>
    <path fill="#CB6275" d="M37.9592 63.7502c-.6342-.4734-1.2254-1.1334-2.6909-1.9691-1.1143-.6348-2.5977-.0932-2.6228 1.5495-.0286 2.1233.5733 3.5652.2258 3.1455-1.3365-1.5889-1.616-4.6591-.6199-5.7961.8564-.9792 2.1678-1.1262 3.773-.061.3368.2224 1.2397 1.0581 1.9743 1.9404 1.2254 1.467 1.6303 2.4318-.0395 1.1872v.0036Z"/>
    <path fill="#fff" d="M41.2615 73.9197c.8488-.2194 1.3596-1.0845 1.1409-1.9322-.2187-.8478-1.0841-1.3571-1.9329-1.1377-.8488.2194-1.3596 1.0845-1.1409 1.9322.2187.8478 1.0841 1.3571 1.9329 1.1377Z"/>
    <path fill="#7F2636" d="M69.4723 54.2093c.2579.0897.6413.6277.4837-.8142-.1613-1.4418-.9101-4.652-2.759-6.4561s-4.7332-2.855-8.3736-1.6929c-3.6405 1.1621-4.5255 2.4569-5.4392 6.0759-.7596 3.0021-.0215 5.1254-.0215 5.1254s-2.3397.6205-2.1785 1.2876c.1613.6708 4.5828 1.1155 5.1131.8429.5303-.2726 13.1785-4.3722 13.1785-4.3722l-.0035.0036Z"/>
    <path fill="#fff" d="M69.7625 53.3483c.6449 2.9232.559 6.0616-1.4368 8.5113-1.4333 1.7575-3.773 2.3063-5.7007 2.2166h-.0143c-.0359 0-.0789 0-.1183-.0072-.4944-.0251-.9567-.0968-1.3687-.2044-.3619-.0861-.6808-.2045-.9459-.3336-1.6339-.8034-4.1421-3.4325-4.6115-6.5314-.0358-.2116-.0573-.4304-.0752-.6492-.0251-.4196-.0323-.8357-.0251-1.2482.0108-.4088.0502-.8141.1003-1.2087.0359-.269.0789-.5308.1326-.7819.0251-.1148.0538-.2259.0788-.3371.6808-2.6255 2.4867-4.695 5.8835-5.0788 4.8371-.5524 7.5782 3.2531 8.1013 5.6491v.0035Z"/>
    <path fill="#000" d="M66.8174 56.2257c.3009 3.1491-.9352 6.8578-4.1779 7.8369 0 0-.006.0012-.0179.0036h-.1326c-.4945-.0251-.9567-.0968-1.3687-.2044-.3619-.0861-.6808-.2045-.946-.3336-1.6338-.8034-4.142-3.4325-4.6114-6.5314-.0358-.2116-.0573-.4304-.0752-.6492-.0251-.4196-.0323-.8357-.0251-1.2482.0107-.4088.0502-.8141.1003-1.2087.0359-.269.0789-.5308.1326-.7819.0251-.1148.0537-.2259.0788-.3371 1.032-2.0552 2.974-3.5007 6.016-2.8658 2.9596.6241 4.7727 3.6226 5.0271 6.3198Z"/>
    <path fill="#fff" d="M58.3648 52.8787c.4658.3156.3978.9863-.0645 1.3127-.6163.434-1.1645-.0359-1.0928-.6851.0537-.4985.7023-.9397 1.1573-.6276Z"/>
    <path fill="#7F2636" d="M95.3563 50.734c.1398 1.1299-3.1674 3.6872-4.5111 3.1564-1.3472-.5345-.9316-5.2976-3.0205-6.3019-2.0889-1.0043-5.7938 2.4497-6.2525 2.4426-.4622-.0072-1.1036-3.68.5375-5.2008 1.641-1.5243 3.2678-3.0021 6.5964-1.6176 2.7698 1.1513 3.9271 5.6706 4.1062 7.0658 0 0 2.4724-.1506 2.5476.4591l-.0036-.0036Z"/>
    <path fill="#fff" d="M85.2379 44.9812c2.3469.1004 4.3284 2.1592 5.0343 5.0967.7058 2.9411.8957 7.5393-1.8955 9.1784-3.4326 2.0122-5.5072-.6312-6.4495-5.4697-.8206-4.2216-.3368-8.9596 3.3107-8.8054Z"/>
    <path fill="#000" d="M81.1173 49.7802s.4658-3.1276 2.8808-2.8228c2.415.3049 4.0202 2.3924 4.5039 5.7352.4873 3.3428-.6091 6.847-3.3645 7.3026-3.0456.5057-4.3965-3.3106-4.0238-10.215h.0036Z"/>
    <path fill="#fff" d="M83.3423 49.3033c.5195.2116.5983.8788.2149 1.2984-.5088.5524-1.1466.2116-1.2146-.4376-.0538-.4985.4873-1.0652.9997-.8572v-.0036Z"/>
    <path fill="#5B1336" d="M74.7323 51.9965c-.0215-.1327-.043-.2546-.068-.3838-.1219-.6635-.2724-1.2732-.4479-1.8005-.0108-.0251-.0179-.0574-.0287-.0825-.6127-1.8615-1.3651-3.1599-3.7192-4.3686-2.5727-1.3199-6.4352-1.2553-10.0004-.5452-1.8274.3551-3.601.7748-5.2134 1.3092-1.5514.5129-2.956 1.1298-4.1241 1.9153-1.7915 1.2051-2.3827 3.1599-2.5332 5.068v.0072c-.0466.6025-.0466 1.2015-.0287 1.7682 0 .0359 0 .061.0036.0969.0609 1.6606.8743 4.1426 2.2788 6.3987.6091.9863 1.3222 1.926 2.1427 2.733 1.2254 1.2195 2.8163 2.2095 4.6365 2.8228 2.1749.7353 4.6723.9325 7.2808.3156.4515-.1004.8779-.2116 1.2828-.3371.2293-.0718.455-.1363.67-.2117 4.6258-1.5243 6.36-3.9597 7.3776-6.205.8921-1.9834.9566-5.6383.4944-8.4969l-.0036-.0036Zm-2.0746 7.7832c-.8348 1.8543-2.2466 3.9274-6.3384 5.2725-.4228.1398-.8743.2761-1.3508.3945-.1505.043-.301.0825-.4587.1148-1.9599.4591-3.773.3909-5.3638.0071-2.089-.5057-3.7981-1.5566-4.9375-2.6864-.5375-.5344-1.0248-1.1262-1.4655-1.7611-1.4762-2.1197-2.3828-4.6304-2.4401-6.2086-.1039-2.855.4515-4.5336 1.7916-5.4374.6664-.4448 1.4511-.8501 2.3791-1.2231.4121-.1722.8528-.3264 1.3258-.4878 1.3615-.4483 2.9524-.8501 5.0055-1.2553 1.9492-.3874 3.7587-.5345 5.3245-.434h.0036c1.4224.0789 2.6335.355 3.5472.8285 1.813.9254 2.3397 1.779 2.8915 3.4504.2401.7281.43 1.6607.5483 2.6649.3009 2.4318.2042 5.2869-.4587 6.7574l-.0036.0036ZM91.2968 42.6927c3.103 0 4.5863 2.3493 5.2886 8.3785.4372 3.7517-.8993 9.6089-6.3778 10.3692-.2974.0431-.5984.061-.8922.061-2.8737 0-4.7584-1.9619-5.4356-2.8084-1.2325-1.5351-2.5081-5.7889-2.44-8.1311.0573-2.0336.6413-4.591 1.8166-5.71 1.5443-1.4742 4.3821-1.8472 7.4062-2.1305.2186-.0215.43-.0323.6342-.0323m0-1.736c-.2544 0-.5195.0108-.7954.0395-3.3645.312-6.5033.7532-8.4418 2.6003-1.8023 1.7181-2.3003 5.0932-2.354 6.9152-.0789 2.7259 1.3293 7.4102 2.8234 9.2681 1.4153 1.7611 3.7873 3.454 6.7864 3.454.3654 0 .7452-.0251 1.1286-.0789 6.1307-.8536 8.4776-7.012 7.8613-12.2881-.5195-4.4439-1.6625-9.9101-7.0121-9.9101h.0036Z"/>
    <path fill="#5B1336" d="m39.4605 59.8663 10.0864-5.2258-.4156-1.6678-11.061 5.4912 1.3902 1.4024ZM80.8917 50.4146c-1.0212-2.4641-2.7124-2.6937-3.7264-2.5789-1.0319.1148-1.813.4161-2.7769 1.6104-.3117.3874-.5553.8752-.7524 1.3702.2616 1.0114.3834 2.0695.4801 3.1276.1326-.1291.2365-.3085.2688-.5237.0752-.5021.4263-2.0946.9996-2.8048.7202-.8967 1.186-1.0079 1.8668-1.0832.3153-.0358 1.5515-.2941 2.372 1.6822.1505.3587.4873.5129.799.4089.3153-.2798.6199-.8429.4658-1.2087h.0036Z"/>
    <path fill="#CB6275" d="M78.8994 54.7979c-.498.2403.4622 2.4855 1.6805 3.4683 1.2146.9828 1.9313 1.3127 1.9814 2.1807.0502.868-.3368 1.9799-.9638 2.5932-.6271.6133-1.5551 1.1227-1.2613 1.4742.2939.3515 1.8417-.2762 3.0027-1.8221 1.1609-1.5495.928-2.6685.4407-3.4181-.4873-.7497-2.261-1.7396-3.0958-2.4426-.8349-.703-1.7844-2.0301-1.7844-2.0301v-.0035Z"/>
    <path fill="#9740E5" d="M60.9517 22.4921s-3.6727-.9899-5.9479 2.2166c-2.2753 3.2065-.9173 7.7724.1433 9.7989 1.0606 2.0301 4.3821 3.1958 4.3821 3.1958s-3.1352 1.7467-8.4023-2.3242c-5.2635-4.071-3.9701-10.0464-1.7485-13.027 2.2215-2.9805 7.442-4.3256 11.5733.1363v.0036Z"/>
    <path fill="#7D1EBF" d="M18.933 56.7127c-.731.0789-1.3043.2762-1.7629.538-.1003-.2833-.215-.4949-.3368-.5989 0 0-.0752.0322-.2078.0932 2.1283-1.198 5.7437-1.7288 8.9398-2.8263 3.8339-1.3199 3.6117-4.9138 3.6117-4.9138 1.1681 6.535-7.1948 7.3814-10.2404 7.7042l-.0036.0036ZM66.1221 9.14293c-1.9421-3.70866-4.959-5.563-4.959-5.563s.3511-.41247 1.1394-.8895c3.343 3.3751 3.8196 6.44891 3.8196 6.44891v.00359ZM81.3861 11.0291c.2938 2.8299-.9567 4.0853-1.0355 4.157.6306-1.8866.0036-4.8277.0036-4.8277s.3368.312 1.0319.6707ZM79.727 17.2988c-.8994 2.2059-2.759 4.3471-2.759 4.3471.3727.0718.7596.1614 1.1502.2654 1.9958-3.0594 1.6088-4.6125 1.6088-4.6125Z"/>
    <path fill="#B65BED" d="M56.3475 20.122s-4.9196-1.0258-7.1303 3.7122c-2.2108 4.7381.6198 8.5866.6198 8.5866s-3.5221-8.3283 6.5105-12.2988Z"/>
    <path fill="#7D1EBF" d="M41.9793 29.2173s-4.7189-2.2237-8.9218 4.2395c-4.203 6.4669-2.4616 9.9388-4.3141 14.0384 0 0-.1325-4.5946.2293-9.6841.3619-5.0932 6.0555-11.0614 13.0066-8.5938Z"/>
    <path fill="#B65BED" d="M31.3554 5.96094c-.1863.28693-.43.5667-.7345.8357-3.8303 3.38226-5.3137 8.61886-6.5427 12.15536-1.3938 4.0064-2.7877 5.7818-3.9092 7.342.0824-.0717 4.0955-2.3744 4.117-2.3887-2.114 2.1914-1.5586 6.5529-5.5968 11.9079-3.8661 5.1254-5.5681.7532-5.715.3622-.1935-1.6032.1971-3.1168.1971-3.1168s.5876 3.3213 2.6049 2.9913c2.0208-.3264 4.8156-5.1183 5.3853-8.5364 0 0-.0716.0323-.2006.0753-.2078.0646-.5697.1507-1.0319.1686-1.2398.0502-3.1961-.4376-4.8479-3.3356-.0072-.0467-.0144-.0754-.0144-.0754l-.1325-.3084c.4944.3228 2.9381 1.7324 4.6759-.7819 1.942-2.812 4.1707-10.6239 10.4088-16.16176.4443-.39095.8886-.77114 1.3329-1.1334h.0036ZM94.1419 43.9768c.9065-5.6886-1.702-13.7766-1.702-13.7766s4.9483 6.4668 1.702 13.7766ZM18.03 39.9775c.0144 3.5581-5.6971 6.6426-7.5065 11.5887-.89579 2.4497-.6199 7.2667.0143 8.5902-.57328-.9433-1.0785-2.0516-1.39023-3.3034-1.143-4.5838.88503-9.7451 4.32123-12.245 2.9453-2.1485 3.9199-3.4755 4.4358-4.5767l.1254-.0538ZM55.871 84.7501c-.2651.1937-.4801.495-.8097.6707-1.788.9505-5.2528 1.6104-9.0939 1.0832-5.5681-.764-8.6244-4.2359-11.0179-6.7825-.0789-.0861-.1577-.1721-.2329-.2511-2.4222-2.5645-2.9489-3.5436-5.1382-3.4934-2.1892.0466-6.0303-.3408-9.3876-5.1685-3.3538-4.8277-3.0994-8.5112-2.8092-10.1504.1433-.8034.1326-1.6821.0215-2.4174l.0753-.269c.043.165.4944 4.0494 2.0423 7.9087 2.3864 5.9539 6.9942 8.7049 10.6633 9.5119 5.1775 1.137 7.4026 7.6003 14.0205 9.4474 7.2701 2.0337 11.4946-.0035 11.6665-.0896Z"/>
    <path fill="#CB6275" d="M62.3525 105.632c.0036 1.349 2.2538 1.79 3.9808 2.127 1.7271.337 3.515.85 3.1854.301-.3296-.549-7.1697-3.809-7.1662-2.428ZM76.8749 107.652c.6378.276 3.9772-1.309 4.2997-2.102.3225-.792.086-1.879-.7059-1.445-.7882.434-4.1563 3.303-3.5974 3.547h.0036Z" opacity=".4"/>
    <path fill="#FF2ED2" d="M140.686 164.799c-8.607 6.033-23.061 5.143-30.578-2.511-5.407-5.498-7.797-11.836-10.004-16.126-.8634-1.678-1.383-2.715-1.4905-2.679-.3762.126-.627 5.52-.8778 9.785-.2509 4.264-.5877 11.28-.5877 11.28s-5.6791 5.28-14.8267 6.033c-9.1512.753-19.4275-4.014-19.4275-4.014-.2508-5.771-9.3984-33.805-11.9066-34.805-2.0638-.825-12.4977 10.921-16.1381 15.118-.7847.907-1.2541 1.46-1.2541 1.46s3.085.997 6.2202 6.226c4.1456 6.915 1.1215 14.021-1.7629 19.164-3.3179 5.922-13.2609 11.28-23.9313 7.496-5.58247-1.98-13.196512-7.632-14.0707826-19.928C-.827637 149.007 10.2548 137.515 15.5184 132.371c5.2635-5.143 25.791-25.171 29.1734-26.929 3.3824-1.757 10.7886-4.777 10.7886-4.777s2.4007 6.309 8.1659 12.708c5.7651 6.398 11.713 10.81 15.5398 10.035 3.7694-.764 5.4606-3.791 5.1668-10.412-.2616-5.925-2.3004-12.64-2.3004-12.64s9.4128 3.856 12.6734 5.614c3.257 1.754 9.0261 8.909 13.5371 15.559 3.049 4.494 7.187 8.414 9.549 10.487 1.132.99 1.856 1.557 1.856 1.557 3.135-3.766 11.405-7.277 16.919-6.775 5.514.502 12.784 3.134 15.418 12.169 2.63 9.032-.204 18.045-11.319 25.832Z"/>
    <path fill="#DD00C4" d="M100.104 146.162c-.8634-1.678-1.3829-2.715-1.4904-2.679-.2938-4.698-.2795-11.524-1.2219-17.04-.9459-5.52 1.7307-2.525 2.3613 9.3.297 5.595.1971 8.16.351 10.419ZM116.149 146.653c.283 3.827-1.928-1.442-.122-9.039.631-2.654 1.297-4.332 1.785-5.598 1.132.99 1.856 1.556 1.856 1.556-2.444 3.006-3.802 9.254-3.519 13.081ZM34.8493 146.879c-.7847.908-1.2541 1.46-1.2541 1.46-3.0062-1.316-9.4951-2.916-15.8838 1.6 0 0 1.573-3.827 9.1154-4.423 3.8984-.308 6.4782.535 8.0225 1.363Z"/>
    <path fill="#E76F83" d="M68.9885 67.8107c1.2434-.6599 2.7089-1.3199 4.762-.4412 2.0531.8788 4.3928 1.9871 6.5176 1.7683 2.1247-.2188 4.1743-1.18 5.4928 1.5315 1.0463 2.152.1935 5.9755-1.8309 8.6512-1.9456 2.5752-5.4929 4.7667-10.4017 3.2998-5.4104-1.6177-8.4955-7.9195-6.8831-12.0227l2.3433-2.7869Z"/>
    <path fill="#550C1A" d="M80.1213 81.0101c-1.8632.7281-3.902.7604-5.8261.2511-2.5368-.6743-4.873-2.2919-6.3313-4.5049-1.5909-2.4103-1.7665-4.7596-1.3293-6.4131.2579-.9935.7345-1.736 1.2576-2.091 1.0248-.703 1.9026-1.1048 3.0134-.9254.6306.104 1.3365.3945 2.1857.9254 2.3433 1.4669 5.3459 2.8586 7.6176 2.421 1.469-.287 2.612-.972 3.644-.8572.5625.0573 1.0785-.018 1.6267 1.076.9853 1.9727-1.0248 8.2315-5.8583 10.1181Z"/>
    <path fill="#fff" d="M83.2705 72.0642c-.8312.703-4.9948 2.0803-9.0078-.3407-2.7733-1.675-3.3789-3.3428-3.3574-4.3973.6307.104 1.3365.3945 2.1857.9253 2.3433 1.467 5.346 2.8586 7.6176 2.4211 1.4691-.287 2.6121-.972 3.644-.8573.0287.8644-.5088 1.7647-1.0821 2.2489Z"/>
    <path fill="#B14355" d="M74.2952 81.2607c-2.5368-.6743-4.873-2.2919-6.3313-4.5049-1.5909-2.4103-1.7665-4.7596-1.3293-6.413.9996.1363 3.1781.746 5.5788 3.4074 2.3147 2.568 3.0241 6.0472 2.0818 7.5105Z"/>
    <path fill="#9A8FCC" d="M168.813 122.364c29.929 0 54.191-24.2866 54.191-54.2455S198.742 13.873 168.813 13.873c-29.928 0-54.19 24.2866-54.19 54.2455s24.262 54.2455 54.19 54.2455Z"/>
    <path fill="#745BA5" d="M168.813 119.595c28.401 0 51.425-23.0472 51.425-51.4769s-23.024-51.4765-51.425-51.4765c-28.401 0-51.424 23.0468-51.424 51.4765s23.023 51.4769 51.424 51.4769Z" opacity=".4"/>
    <path fill="#F7EFE2" d="M168.813 114.567c25.627 0 46.401-20.7957 46.401-46.4482 0-25.6524-20.774-46.4479-46.401-46.4479-25.626 0-46.4 20.7955-46.4 46.4479 0 25.6525 20.774 46.4482 46.4 46.4482Z"/>
    <path fill="#B6ABDD" d="M168.079 25.666h-.1c-.624 0-1.129.5059-1.129 1.1298v5.6025c0 .624.505 1.1298 1.129 1.1298h.1c.623 0 1.129-.5058 1.129-1.1298v-5.6025c0-.6239-.506-1.1298-1.129-1.1298ZM168.079 102.709h-.1c-.624 0-1.129.506-1.129 1.13v5.602c0 .624.505 1.13 1.129 1.13h.1c.623 0 1.129-.506 1.129-1.13v-5.602c0-.624-.506-1.13-1.129-1.13ZM210.434 68.1687v-.1004c0-.624-.505-1.1298-1.128-1.1298h-5.597c-.623 0-1.129.5058-1.129 1.1298v.1004c0 .624.506 1.1298 1.129 1.1298h5.597c.623 0 1.128-.5058 1.128-1.1298ZM133.47 68.1687v-.1004c0-.624-.506-1.1298-1.129-1.1298h-5.597c-.623 0-1.128.5058-1.128 1.1298v.1004c0 .624.505 1.1298 1.128 1.1298h5.597c.623 0 1.129-.5058 1.129-1.1298ZM204.35 90.0484l.051-.086c.322-.5348.149-1.2289-.385-1.5505l-4.797-2.8871c-.534-.3216-1.227-.1488-1.549.3859l-.051.0861c-.322.5348-.149 1.2289.385 1.5505l4.797 2.8871c.534.3216 1.227.1488 1.549-.386ZM138.389 50.3375l.052-.0861c.321-.5347.148-1.2289-.386-1.5504l-4.796-2.8872c-.534-.3215-1.228-.1487-1.549.386l-.052.0861c-.321.5347-.148 1.2289.386 1.5505l4.796 2.8871c.534.3216 1.228.1487 1.549-.386ZM188.914 105.051l.087-.049c.543-.308.733-.998.425-1.54l-2.762-4.8731c-.307-.5427-.996-.733-1.538-.4251l-.088.0496c-.542.3079-.732.9975-.424 1.5402l2.762 4.8724c.307.543.996.733 1.538.425ZM150.925 38.0485l.087-.0495c.542-.308.733-.9975.425-1.5403l-2.762-4.8727c-.308-.5427-.997-.733-1.539-.4251l-.087.0495c-.542.308-.732.9976-.425 1.5403l2.762 4.8727c.308.5427.997.733 1.539.4251ZM197.622 50.2416l.051.0861c.321.5347 1.015.7075 1.549.386l4.796-2.8872c.535-.3215.707-1.0157.386-1.5504l-.052-.0861c-.321-.5348-1.014-.7076-1.548-.386l-4.797 2.8871c-.534.3216-.707 1.0158-.385 1.5505ZM131.665 89.9525l.052.0861c.321.5347 1.014.7076 1.549.386l4.796-2.8871c.534-.3216.707-1.0158.386-1.5505l-.052-.0861c-.321-.5347-1.015-.7076-1.549-.386l-4.796 2.8872c-.535.3215-.707 1.0157-.386 1.5504ZM185.03 38.015l.087.0495c.542.3079 1.231.1176 1.539-.4251l2.762-4.8727c.307-.5427.117-1.2323-.425-1.5403l-.087-.0495c-.543-.3079-1.231-.1176-1.539.4251l-2.762 4.8728c-.308.5427-.117 1.2322.425 1.5402ZM147.044 105.017l.087.049c.542.308 1.231.118 1.539-.425l2.762-4.8724c.307-.5427.117-1.2323-.425-1.5402l-.087-.0496c-.542-.3079-1.231-.1176-1.539.4252l-2.762 4.873c-.307.542-.117 1.232.425 1.54Z"/>
    <path fill="#00B2FF" d="M168.011 39.1416c-.57 0-1.803 15.8927-1.992 26.6206l1.992.8536 1.992-.8536c-.19-10.7279-1.423-26.6206-1.992-26.6206ZM187.452 80.1845c-.29.4878-9.058-3.2926-18.356-8.6261l.287-2.1484 1.752-1.2733c9.105 5.6599 16.608 11.56 16.314 12.0514l.003-.0036Z"/>
    <path fill="#0096D8" d="M168.176 71.5508c1.832 0 3.318-1.487 3.318-3.3213 0-1.8343-1.486-3.3213-3.318-3.3213-1.833 0-3.318 1.487-3.318 3.3213 0 1.8343 1.485 3.3213 3.318 3.3213Z"/>
    <path fill="#FEAEB4" d="M56.9567 189.759c-.1935 1.047-1.0929 5.208-3.5151 7.069-1.5299 1.18-10.2081 1.442-11.6772.707 0 0-.043-.424.4013-.84.2114-.2.541-.398 1.0355-.541l-1.0391-.068-.9423-.058s.1433-1.108 1.8238-1.707c1.2361-.445 3.1567-1.173 5.9658-1.783 0 0 .6449-2.309 1.4153-5.419.6163-2.497 1.53-5.029 1.53-5.029l-.9388-.394-19.9506-8.4s-2.4508-3.257 0-6.933c3.0492-4.581 6.102-2.934 6.102-2.934s21.9105 13.74 23.247 14.615c1.3258.879-2.9918 9.15-3.4576 11.715Z"/>
    <path fill="#CB6275" d="m51.9546 182.09-.9387-.395c1.6088-1.542 3.4971-1.728 3.7264-1.592.2615.165-1.6124.775-2.7877 1.987ZM42.1655 196.692c1.5873.072 5.7974.011 8.7499-.333 2.9596-.345 2.5906-1.112 2.3075-1.338-.1469-.115-.5375.071-.5375.071s-.4407.617-1.2684.786c-.8277.176-8.2088.276-8.2088.276-.498.144-.8277.341-1.0391.542l-.0036-.004Z" opacity=".6"/>
    <path fill="#F9D64F" d="M97.0011 167.571s-1.8202.144-4.658.219c-2.4938 1.248-5.8476 2.461-9.8785 2.791-9.1512.753-19.4275-4.014-19.4275-4.014-.0107-.215-.0322-.463-.0645-.739-.1791 1.234-.0322 3.002-.8671 4.831-.1863.406-3.7765 8.659-6.7791 17.798-2.0281 6.169-3.6261 14.806-4.1206 22.395h60.5362c-.53-4.16-1.226-7.995-2.136-11.248-5.833-20.867-11.4726-28.475-12.6013-32.033h-.0036Z"/>
    <path fill="#5B1336" d="M62.6432 165.814s8.3987 2.776 22.8994 1.804c7.1555-.481 11.5519-2.439 11.6056-3.07 0 0 .3368 3.149.9639 5.531 0 0-.2472 1.639-12.3616 2.654-15.4252 1.295-23.7988-2.077-23.7988-2.077s.5195-2.27.6951-4.846l-.0036.004Z"/>
    <path fill="#F98F23" d="M86.2448 167.937c1.3222-.093 2.2681-.036 2.6766.007.2902.851.4299 2.924.3368 3.91-.6235.151-1.7808.377-3.1997.52-1.5981.161-2.5762.136-2.9919.093-.2938-.756-.5589-2.987-.3834-4.056.6987-.162 2.0316-.366 3.5616-.474Zm-.215-1.725c-2.0602.122-4.2853.534-4.6329.847-.7094.631-.8313 6.348.7059 6.94.6736.258 2.3397.201 4.0023.018 2.0567-.23 4.0918-.653 4.3176-.918.6593-.779.3225-6.001-.7274-6.657-.4658-.291-2.0101-.33-3.6619-.234l-.0036.004Z"/>
    <path fill="#E7AA3C" d="M86.639 201.914c-1.7987 1.438-3.3143.082-4.7619 3.784-.3225.821-.6843 2.658-1.0606 5.154h-1.6876c.0609-.47.1147-.897.1684-1.277.8886-6.363 1.7127-8.522 4.5649-9.691 2.8593-1.17 4.5791.588 2.7768 2.03Z"/>
    <path fill="#FEAEB4" d="M180.354 91.6516c-.695.5344-1.777 1.162-3.307 1.9368.09-.0431.183-.0861.276-.1327.828-.3982 1.516-.5703 2.032-.556.745.0216 1.139.4304 1.1 1.1191-.04.7747-.524 1.2338-4.755 4.096-4.44 3.0022-8.316 3.8092-8.431 4.4192-.154.796 6.324-.251 9.782-1.051 1.745-.402 2.676.627 1.569 1.51-3.619 2.883-13.354 4.228-15.156 5.025-1.416.627-6.421 2.582-9.137 3.002-1.032.158-1.878.886-2.189 1.883l-6.866 22.155s-1.175 5.323-7.624 3.192c-5.207-1.721-4.003-6.729-4.003-6.729l12.849-26.301s-.337-5.6741 1.76-11.3841c2.092-5.7101 4.389-12.3383 5.091-12.0442 1.817.7639 1.086 3.8593.14 8.6619-1.018 5.1828 2.633 3.723 3.683 3.3607 1.05-.3586 3.444-1.2984 7.894-5.0787 5.055-4.2969 7.485-5.685 8.266-5.129 1.064.7568-.512 2.2201-3.386 5.2007-3.078 3.1922-6.862 6.2229-5.052 6.0938 0 0 2.791-.9146 7.019-2.5107 4.497-1.6965 8.481-3.3858 9.087-2.7904.594.5846.469 1.1979-.642 2.0516Z"/>
    <path fill="#CB6275" d="M177.323 93.4555c.828-.3981 1.516-.5703 2.032-.556-2.347 1.2195-5.766 2.9842-7.539 3.8414-2.87 1.3809-5.446 2.6936-5.765 2.1234-.319-.5703 1.196-.8609 7.395-3.7948 3.565-1.6929 5.69-2.7689 6.908-3.4181-.695.5344-1.777 1.1621-3.307 1.9368.09-.0431.183-.0861.276-.1327Z" opacity=".6"/>
  </g>
  <defs>
    <radialGradient id="b" cx="0" cy="0" r="1" gradientTransform="rotate(27.914 -33.37472622 -136.61876365) scale(9.3065 6.86628)" gradientUnits="userSpaceOnUse">
      <stop offset=".45" stop-color="#FB8994"/>
      <stop offset=".51" stop-color="#FA8994" stop-opacity=".98"/>
      <stop offset=".57" stop-color="#FA8B97" stop-opacity=".92"/>
      <stop offset=".65" stop-color="#F98F9B" stop-opacity=".81"/>
      <stop offset=".73" stop-color="#F893A0" stop-opacity=".67"/>
      <stop offset=".82" stop-color="#F699A7" stop-opacity=".49"/>
      <stop offset=".91" stop-color="#F5A1AF" stop-opacity=".27"/>
      <stop offset="1" stop-color="#F3AABA" stop-opacity="0"/>
    </radialGradient>
    <radialGradient id="c" cx="0" cy="0" r="1" gradientTransform="rotate(97.6623 24.9512972 67.7053754) scale(7.68518 5.11844)" gradientUnits="userSpaceOnUse">
      <stop offset=".45" stop-color="#FB8994"/>
      <stop offset=".51" stop-color="#FA8994" stop-opacity=".98"/>
      <stop offset=".57" stop-color="#FA8B97" stop-opacity=".92"/>
      <stop offset=".65" stop-color="#F98F9B" stop-opacity=".81"/>
      <stop offset=".73" stop-color="#F893A0" stop-opacity=".67"/>
      <stop offset=".82" stop-color="#F699A7" stop-opacity=".49"/>
      <stop offset=".91" stop-color="#F5A1AF" stop-opacity=".27"/>
      <stop offset="1" stop-color="#F3AABA" stop-opacity="0"/>
    </radialGradient>
    <clipPath id="a">
      <path fill="#fff" d="M0 0h223v210.852H0z"/>
    </clipPath>
  </defs>
</svg>
